G04 (created by PCBNEW (2013-mar-13)-testing) date Fri 11 Oct 2013 20:58:12 EST*
%MOIN*%
G04 Gerber Fmt 3.4, Leading zero omitted, Abs format*
%FSLAX34Y34*%
G01*
G70*
G90*
G04 APERTURE LIST*
%ADD10C,0.005000*%
%ADD11C,0.003937*%
%ADD12C,0.007874*%
%ADD13C,0.011811*%
G04 APERTURE END LIST*
G54D10*
G54D11*
X8287Y0D02*
G75*
G03X8287Y0I-8287J0D01*
G74*
G01*
X12027Y0D02*
G75*
G03X12027Y0I-12027J0D01*
G74*
G01*
G54D12*
X-11144Y770D02*
X-10894Y520D01*
X-10894Y770D02*
X-11144Y520D01*
X-10932Y-2115D02*
X-10682Y-2365D01*
X-10682Y-2115D02*
X-10932Y-2365D01*
X-10601Y3605D02*
X-10351Y3355D01*
X-10351Y3605D02*
X-10601Y3355D01*
X-9987Y-4831D02*
X-9737Y-5081D01*
X-9737Y-4831D02*
X-9987Y-5081D01*
X-9353Y6172D02*
X-9103Y5922D01*
X-9103Y6172D02*
X-9353Y5922D01*
X-8373Y-7209D02*
X-8123Y-7459D01*
X-8123Y-7209D02*
X-8373Y-7459D01*
X-7455Y8371D02*
X-7205Y8121D01*
X-7205Y8371D02*
X-7455Y8121D01*
X-6199Y-9091D02*
X-5949Y-9341D01*
X-5949Y-9091D02*
X-6199Y-9341D01*
X-5065Y9995D02*
X-4815Y9745D01*
X-4815Y9995D02*
X-5065Y9745D01*
X-3609Y-10343D02*
X-3359Y-10593D01*
X-3359Y-10343D02*
X-3609Y-10593D01*
X-2349Y10936D02*
X-2099Y10686D01*
X-2099Y10936D02*
X-2349Y10686D01*
X-774Y-10890D02*
X-524Y-11140D01*
X-524Y-10890D02*
X-774Y-11140D01*
X2111Y-10682D02*
X2361Y-10932D01*
X2361Y-10682D02*
X2111Y-10932D01*
X3343Y10601D02*
X3593Y10351D01*
X3593Y10601D02*
X3343Y10351D01*
X4831Y-9737D02*
X5081Y-9987D01*
X5081Y-9737D02*
X4831Y-9987D01*
X5941Y9345D02*
X6191Y9095D01*
X6191Y9345D02*
X5941Y9095D01*
X7201Y-8134D02*
X7451Y-8384D01*
X7451Y-8134D02*
X7201Y-8384D01*
X8123Y7459D02*
X8373Y7209D01*
X8373Y7459D02*
X8123Y7209D01*
X9087Y-5945D02*
X9337Y-6195D01*
X9337Y-5945D02*
X9087Y-6195D01*
X9745Y5069D02*
X9995Y4819D01*
X9995Y5069D02*
X9745Y4819D01*
X10347Y-3351D02*
X10597Y-3601D01*
X10597Y-3351D02*
X10347Y-3601D01*
X10686Y2341D02*
X10936Y2091D01*
X10936Y2341D02*
X10686Y2091D01*
X10886Y-524D02*
X11136Y-774D01*
X11136Y-524D02*
X10886Y-774D01*
X-800Y8956D02*
G75*
G03X-800Y8956I-200J0D01*
G74*
G01*
X200Y8956D02*
G75*
G03X200Y8956I-200J0D01*
G74*
G01*
X1200Y8956D02*
G75*
G03X1200Y8956I-200J0D01*
G74*
G01*
G54D13*
X-10978Y-13880D02*
X-10978Y-12699D01*
X-10697Y-12699D01*
X-10528Y-12755D01*
X-10416Y-12868D01*
X-10359Y-12980D01*
X-10303Y-13205D01*
X-10303Y-13374D01*
X-10359Y-13599D01*
X-10416Y-13712D01*
X-10528Y-13824D01*
X-10697Y-13880D01*
X-10978Y-13880D01*
X-9797Y-13880D02*
X-9797Y-13093D01*
X-9797Y-13318D02*
X-9741Y-13205D01*
X-9685Y-13149D01*
X-9572Y-13093D01*
X-9460Y-13093D01*
X-9066Y-13880D02*
X-9066Y-13093D01*
X-9066Y-12699D02*
X-9122Y-12755D01*
X-9066Y-12812D01*
X-9010Y-12755D01*
X-9066Y-12699D01*
X-9066Y-12812D01*
X-8335Y-13880D02*
X-8447Y-13824D01*
X-8503Y-13712D01*
X-8503Y-12699D01*
X-7716Y-13880D02*
X-7829Y-13824D01*
X-7885Y-13712D01*
X-7885Y-12699D01*
X-6366Y-13880D02*
X-6366Y-12699D01*
X-5973Y-13543D01*
X-5579Y-12699D01*
X-5579Y-13880D01*
X-4510Y-13880D02*
X-4510Y-13262D01*
X-4566Y-13149D01*
X-4679Y-13093D01*
X-4904Y-13093D01*
X-5016Y-13149D01*
X-4510Y-13824D02*
X-4623Y-13880D01*
X-4904Y-13880D01*
X-5016Y-13824D01*
X-5073Y-13712D01*
X-5073Y-13599D01*
X-5016Y-13487D01*
X-4904Y-13430D01*
X-4623Y-13430D01*
X-4510Y-13374D01*
X-3948Y-13093D02*
X-3948Y-14274D01*
X-3948Y-13149D02*
X-3835Y-13093D01*
X-3610Y-13093D01*
X-3498Y-13149D01*
X-3442Y-13205D01*
X-3385Y-13318D01*
X-3385Y-13655D01*
X-3442Y-13768D01*
X-3498Y-13824D01*
X-3610Y-13880D01*
X-3835Y-13880D01*
X-3948Y-13824D01*
X-2879Y-13768D02*
X-2823Y-13824D01*
X-2879Y-13880D01*
X-2935Y-13824D01*
X-2879Y-13768D01*
X-2879Y-13880D01*
X-2879Y-13149D02*
X-2823Y-13205D01*
X-2879Y-13262D01*
X-2935Y-13205D01*
X-2879Y-13149D01*
X-2879Y-13262D01*
X-12297Y-15701D02*
X-12047Y-15951D01*
X-12047Y-15701D02*
X-12297Y-15951D01*
X-10753Y-15179D02*
X-10641Y-15179D01*
X-10528Y-15236D01*
X-10472Y-15292D01*
X-10416Y-15404D01*
X-10359Y-15629D01*
X-10359Y-15911D01*
X-10416Y-16136D01*
X-10472Y-16248D01*
X-10528Y-16304D01*
X-10641Y-16361D01*
X-10753Y-16361D01*
X-10866Y-16304D01*
X-10922Y-16248D01*
X-10978Y-16136D01*
X-11034Y-15911D01*
X-11034Y-15629D01*
X-10978Y-15404D01*
X-10922Y-15292D01*
X-10866Y-15236D01*
X-10753Y-15179D01*
X-9853Y-16248D02*
X-9797Y-16304D01*
X-9853Y-16361D01*
X-9910Y-16304D01*
X-9853Y-16248D01*
X-9853Y-16361D01*
X-8785Y-15179D02*
X-9010Y-15179D01*
X-9122Y-15236D01*
X-9178Y-15292D01*
X-9291Y-15461D01*
X-9347Y-15686D01*
X-9347Y-16136D01*
X-9291Y-16248D01*
X-9235Y-16304D01*
X-9122Y-16361D01*
X-8897Y-16361D01*
X-8785Y-16304D01*
X-8728Y-16248D01*
X-8672Y-16136D01*
X-8672Y-15854D01*
X-8728Y-15742D01*
X-8785Y-15686D01*
X-8897Y-15629D01*
X-9122Y-15629D01*
X-9235Y-15686D01*
X-9291Y-15742D01*
X-9347Y-15854D01*
X-7660Y-15573D02*
X-7660Y-16361D01*
X-7941Y-15123D02*
X-8222Y-15967D01*
X-7491Y-15967D01*
X-7041Y-16361D02*
X-7041Y-15573D01*
X-7041Y-15686D02*
X-6985Y-15629D01*
X-6872Y-15573D01*
X-6704Y-15573D01*
X-6591Y-15629D01*
X-6535Y-15742D01*
X-6535Y-16361D01*
X-6535Y-15742D02*
X-6479Y-15629D01*
X-6366Y-15573D01*
X-6197Y-15573D01*
X-6085Y-15629D01*
X-6029Y-15742D01*
X-6029Y-16361D01*
X-5466Y-16361D02*
X-5466Y-15573D01*
X-5466Y-15686D02*
X-5410Y-15629D01*
X-5298Y-15573D01*
X-5129Y-15573D01*
X-5016Y-15629D01*
X-4960Y-15742D01*
X-4960Y-16361D01*
X-4960Y-15742D02*
X-4904Y-15629D01*
X-4791Y-15573D01*
X-4623Y-15573D01*
X-4510Y-15629D01*
X-4454Y-15742D01*
X-4454Y-16361D01*
X-2148Y-15123D02*
X-3160Y-16642D01*
X-629Y-15179D02*
X-517Y-15179D01*
X-404Y-15236D01*
X-348Y-15292D01*
X-292Y-15404D01*
X-236Y-15629D01*
X-236Y-15911D01*
X-292Y-16136D01*
X-348Y-16248D01*
X-404Y-16304D01*
X-517Y-16361D01*
X-629Y-16361D01*
X-742Y-16304D01*
X-798Y-16248D01*
X-854Y-16136D01*
X-911Y-15911D01*
X-911Y-15629D01*
X-854Y-15404D01*
X-798Y-15292D01*
X-742Y-15236D01*
X-629Y-15179D01*
X269Y-16248D02*
X326Y-16304D01*
X269Y-16361D01*
X213Y-16304D01*
X269Y-16248D01*
X269Y-16361D01*
X1057Y-15179D02*
X1169Y-15179D01*
X1282Y-15236D01*
X1338Y-15292D01*
X1394Y-15404D01*
X1451Y-15629D01*
X1451Y-15911D01*
X1394Y-16136D01*
X1338Y-16248D01*
X1282Y-16304D01*
X1169Y-16361D01*
X1057Y-16361D01*
X944Y-16304D01*
X888Y-16248D01*
X832Y-16136D01*
X776Y-15911D01*
X776Y-15629D01*
X832Y-15404D01*
X888Y-15292D01*
X944Y-15236D01*
X1057Y-15179D01*
X1901Y-15292D02*
X1957Y-15236D01*
X2069Y-15179D01*
X2350Y-15179D01*
X2463Y-15236D01*
X2519Y-15292D01*
X2575Y-15404D01*
X2575Y-15517D01*
X2519Y-15686D01*
X1844Y-16361D01*
X2575Y-16361D01*
X3644Y-15179D02*
X3082Y-15179D01*
X3025Y-15742D01*
X3082Y-15686D01*
X3194Y-15629D01*
X3475Y-15629D01*
X3588Y-15686D01*
X3644Y-15742D01*
X3700Y-15854D01*
X3700Y-16136D01*
X3644Y-16248D01*
X3588Y-16304D01*
X3475Y-16361D01*
X3194Y-16361D01*
X3082Y-16304D01*
X3025Y-16248D01*
X4150Y-15179D02*
X4150Y-15404D01*
X4600Y-15179D02*
X4600Y-15404D01*
X6344Y-16811D02*
X6287Y-16754D01*
X6175Y-16586D01*
X6119Y-16473D01*
X6062Y-16304D01*
X6006Y-16023D01*
X6006Y-15798D01*
X6062Y-15517D01*
X6119Y-15348D01*
X6175Y-15236D01*
X6287Y-15067D01*
X6344Y-15011D01*
X6737Y-15292D02*
X6794Y-15236D01*
X6906Y-15179D01*
X7187Y-15179D01*
X7300Y-15236D01*
X7356Y-15292D01*
X7412Y-15404D01*
X7412Y-15517D01*
X7356Y-15686D01*
X6681Y-16361D01*
X7412Y-16361D01*
X7806Y-15179D02*
X8537Y-15179D01*
X8143Y-15629D01*
X8312Y-15629D01*
X8425Y-15686D01*
X8481Y-15742D01*
X8537Y-15854D01*
X8537Y-16136D01*
X8481Y-16248D01*
X8425Y-16304D01*
X8312Y-16361D01*
X7975Y-16361D01*
X7862Y-16304D01*
X7806Y-16248D01*
X9943Y-16361D02*
X9943Y-15179D01*
X10449Y-16361D02*
X10449Y-15742D01*
X10393Y-15629D01*
X10281Y-15573D01*
X10112Y-15573D01*
X9999Y-15629D01*
X9943Y-15686D01*
X11181Y-16361D02*
X11068Y-16304D01*
X11012Y-16248D01*
X10956Y-16136D01*
X10956Y-15798D01*
X11012Y-15686D01*
X11068Y-15629D01*
X11181Y-15573D01*
X11349Y-15573D01*
X11462Y-15629D01*
X11518Y-15686D01*
X11574Y-15798D01*
X11574Y-16136D01*
X11518Y-16248D01*
X11462Y-16304D01*
X11349Y-16361D01*
X11181Y-16361D01*
X12249Y-16361D02*
X12137Y-16304D01*
X12080Y-16192D01*
X12080Y-15179D01*
X13149Y-16304D02*
X13037Y-16361D01*
X12812Y-16361D01*
X12699Y-16304D01*
X12643Y-16192D01*
X12643Y-15742D01*
X12699Y-15629D01*
X12812Y-15573D01*
X13037Y-15573D01*
X13149Y-15629D01*
X13205Y-15742D01*
X13205Y-15854D01*
X12643Y-15967D01*
X13655Y-16304D02*
X13768Y-16361D01*
X13993Y-16361D01*
X14105Y-16304D01*
X14161Y-16192D01*
X14161Y-16136D01*
X14105Y-16023D01*
X13993Y-15967D01*
X13824Y-15967D01*
X13712Y-15911D01*
X13655Y-15798D01*
X13655Y-15742D01*
X13712Y-15629D01*
X13824Y-15573D01*
X13993Y-15573D01*
X14105Y-15629D01*
X14555Y-16811D02*
X14611Y-16754D01*
X14724Y-16586D01*
X14780Y-16473D01*
X14836Y-16304D01*
X14893Y-16023D01*
X14893Y-15798D01*
X14836Y-15517D01*
X14780Y-15348D01*
X14724Y-15236D01*
X14611Y-15067D01*
X14555Y-15011D01*
G54D12*
X-12047Y-17385D02*
G75*
G03X-12047Y-17385I-200J0D01*
G74*
G01*
G54D13*
X-10359Y-17920D02*
X-11034Y-17920D01*
X-10697Y-17920D02*
X-10697Y-16739D01*
X-10809Y-16907D01*
X-10922Y-17020D01*
X-11034Y-17076D01*
X-9853Y-17807D02*
X-9797Y-17863D01*
X-9853Y-17920D01*
X-9910Y-17863D01*
X-9853Y-17807D01*
X-9853Y-17920D01*
X-9066Y-16739D02*
X-8953Y-16739D01*
X-8841Y-16795D01*
X-8785Y-16851D01*
X-8728Y-16964D01*
X-8672Y-17188D01*
X-8672Y-17470D01*
X-8728Y-17695D01*
X-8785Y-17807D01*
X-8841Y-17863D01*
X-8953Y-17920D01*
X-9066Y-17920D01*
X-9178Y-17863D01*
X-9235Y-17807D01*
X-9291Y-17695D01*
X-9347Y-17470D01*
X-9347Y-17188D01*
X-9291Y-16964D01*
X-9235Y-16851D01*
X-9178Y-16795D01*
X-9066Y-16739D01*
X-8222Y-16851D02*
X-8166Y-16795D01*
X-8053Y-16739D01*
X-7772Y-16739D01*
X-7660Y-16795D01*
X-7604Y-16851D01*
X-7547Y-16964D01*
X-7547Y-17076D01*
X-7604Y-17245D01*
X-8278Y-17920D01*
X-7547Y-17920D01*
X-7041Y-17920D02*
X-7041Y-17132D01*
X-7041Y-17245D02*
X-6985Y-17188D01*
X-6872Y-17132D01*
X-6704Y-17132D01*
X-6591Y-17188D01*
X-6535Y-17301D01*
X-6535Y-17920D01*
X-6535Y-17301D02*
X-6479Y-17188D01*
X-6366Y-17132D01*
X-6197Y-17132D01*
X-6085Y-17188D01*
X-6029Y-17301D01*
X-6029Y-17920D01*
X-5466Y-17920D02*
X-5466Y-17132D01*
X-5466Y-17245D02*
X-5410Y-17188D01*
X-5298Y-17132D01*
X-5129Y-17132D01*
X-5016Y-17188D01*
X-4960Y-17301D01*
X-4960Y-17920D01*
X-4960Y-17301D02*
X-4904Y-17188D01*
X-4791Y-17132D01*
X-4623Y-17132D01*
X-4510Y-17188D01*
X-4454Y-17301D01*
X-4454Y-17920D01*
X-2148Y-16682D02*
X-3160Y-18201D01*
X-629Y-16739D02*
X-517Y-16739D01*
X-404Y-16795D01*
X-348Y-16851D01*
X-292Y-16964D01*
X-236Y-17188D01*
X-236Y-17470D01*
X-292Y-17695D01*
X-348Y-17807D01*
X-404Y-17863D01*
X-517Y-17920D01*
X-629Y-17920D01*
X-742Y-17863D01*
X-798Y-17807D01*
X-854Y-17695D01*
X-911Y-17470D01*
X-911Y-17188D01*
X-854Y-16964D01*
X-798Y-16851D01*
X-742Y-16795D01*
X-629Y-16739D01*
X269Y-17807D02*
X326Y-17863D01*
X269Y-17920D01*
X213Y-17863D01*
X269Y-17807D01*
X269Y-17920D01*
X1057Y-16739D02*
X1169Y-16739D01*
X1282Y-16795D01*
X1338Y-16851D01*
X1394Y-16964D01*
X1451Y-17188D01*
X1451Y-17470D01*
X1394Y-17695D01*
X1338Y-17807D01*
X1282Y-17863D01*
X1169Y-17920D01*
X1057Y-17920D01*
X944Y-17863D01*
X888Y-17807D01*
X832Y-17695D01*
X776Y-17470D01*
X776Y-17188D01*
X832Y-16964D01*
X888Y-16851D01*
X944Y-16795D01*
X1057Y-16739D01*
X2463Y-17132D02*
X2463Y-17920D01*
X2182Y-16682D02*
X1901Y-17526D01*
X2632Y-17526D01*
X3307Y-16739D02*
X3419Y-16739D01*
X3532Y-16795D01*
X3588Y-16851D01*
X3644Y-16964D01*
X3700Y-17188D01*
X3700Y-17470D01*
X3644Y-17695D01*
X3588Y-17807D01*
X3532Y-17863D01*
X3419Y-17920D01*
X3307Y-17920D01*
X3194Y-17863D01*
X3138Y-17807D01*
X3082Y-17695D01*
X3025Y-17470D01*
X3025Y-17188D01*
X3082Y-16964D01*
X3138Y-16851D01*
X3194Y-16795D01*
X3307Y-16739D01*
X4150Y-16739D02*
X4150Y-16964D01*
X4600Y-16739D02*
X4600Y-16964D01*
X6344Y-18370D02*
X6287Y-18313D01*
X6175Y-18145D01*
X6119Y-18032D01*
X6062Y-17863D01*
X6006Y-17582D01*
X6006Y-17357D01*
X6062Y-17076D01*
X6119Y-16907D01*
X6175Y-16795D01*
X6287Y-16626D01*
X6344Y-16570D01*
X6681Y-16739D02*
X7412Y-16739D01*
X7019Y-17188D01*
X7187Y-17188D01*
X7300Y-17245D01*
X7356Y-17301D01*
X7412Y-17413D01*
X7412Y-17695D01*
X7356Y-17807D01*
X7300Y-17863D01*
X7187Y-17920D01*
X6850Y-17920D01*
X6737Y-17863D01*
X6681Y-17807D01*
X8818Y-17920D02*
X8818Y-16739D01*
X9325Y-17920D02*
X9325Y-17301D01*
X9268Y-17188D01*
X9156Y-17132D01*
X8987Y-17132D01*
X8875Y-17188D01*
X8818Y-17245D01*
X10056Y-17920D02*
X9943Y-17863D01*
X9887Y-17807D01*
X9831Y-17695D01*
X9831Y-17357D01*
X9887Y-17245D01*
X9943Y-17188D01*
X10056Y-17132D01*
X10224Y-17132D01*
X10337Y-17188D01*
X10393Y-17245D01*
X10449Y-17357D01*
X10449Y-17695D01*
X10393Y-17807D01*
X10337Y-17863D01*
X10224Y-17920D01*
X10056Y-17920D01*
X11124Y-17920D02*
X11012Y-17863D01*
X10956Y-17751D01*
X10956Y-16739D01*
X12024Y-17863D02*
X11912Y-17920D01*
X11687Y-17920D01*
X11574Y-17863D01*
X11518Y-17751D01*
X11518Y-17301D01*
X11574Y-17188D01*
X11687Y-17132D01*
X11912Y-17132D01*
X12024Y-17188D01*
X12080Y-17301D01*
X12080Y-17413D01*
X11518Y-17526D01*
X12530Y-17863D02*
X12643Y-17920D01*
X12868Y-17920D01*
X12980Y-17863D01*
X13037Y-17751D01*
X13037Y-17695D01*
X12980Y-17582D01*
X12868Y-17526D01*
X12699Y-17526D01*
X12587Y-17470D01*
X12530Y-17357D01*
X12530Y-17301D01*
X12587Y-17188D01*
X12699Y-17132D01*
X12868Y-17132D01*
X12980Y-17188D01*
X13430Y-18370D02*
X13487Y-18313D01*
X13599Y-18145D01*
X13655Y-18032D01*
X13712Y-17863D01*
X13768Y-17582D01*
X13768Y-17357D01*
X13712Y-17076D01*
X13655Y-16907D01*
X13599Y-16795D01*
X13487Y-16626D01*
X13430Y-16570D01*
M02*
