G04 (created by PCBNEW (2013-mar-13)-testing) date Fri 11 Oct 2013 20:58:09 EST*
%MOIN*%
G04 Gerber Fmt 3.4, Leading zero omitted, Abs format*
%FSLAX34Y34*%
G01*
G70*
G90*
G04 APERTURE LIST*
%ADD10C,0.005906*%
%ADD11C,0.060000*%
%ADD12R,0.060000X0.060000*%
%ADD13R,0.045000X0.025000*%
%ADD14R,0.025000X0.045000*%
%ADD15R,0.035433X0.059055*%
%ADD16R,0.059055X0.035433*%
%ADD17C,0.035000*%
%ADD18C,0.010000*%
G04 APERTURE END LIST*
G54D10*
G54D11*
X1000Y8956D03*
G54D12*
X0Y8956D03*
G54D11*
X-1000Y8956D03*
G54D13*
X1377Y10845D03*
X1377Y11445D03*
G54D10*
G36*
X6748Y8482D02*
X6358Y8707D01*
X6483Y8924D01*
X6873Y8699D01*
X6748Y8482D01*
X6748Y8482D01*
G37*
G36*
X7048Y9002D02*
X6658Y9227D01*
X6783Y9444D01*
X7173Y9219D01*
X7048Y9002D01*
X7048Y9002D01*
G37*
G36*
X8714Y6447D02*
X8395Y6765D01*
X8572Y6942D01*
X8890Y6623D01*
X8714Y6447D01*
X8714Y6447D01*
G37*
G36*
X9138Y6871D02*
X8820Y7189D01*
X8996Y7366D01*
X9315Y7048D01*
X9138Y6871D01*
X9138Y6871D01*
G37*
G36*
X10085Y3972D02*
X9860Y4361D01*
X10077Y4486D01*
X10302Y4097D01*
X10085Y3972D01*
X10085Y3972D01*
G37*
G36*
X10605Y4272D02*
X10380Y4661D01*
X10596Y4786D01*
X10821Y4397D01*
X10605Y4272D01*
X10605Y4272D01*
G37*
G36*
X10770Y1226D02*
X10653Y1661D01*
X10895Y1725D01*
X11011Y1291D01*
X10770Y1226D01*
X10770Y1226D01*
G37*
G36*
X11349Y1381D02*
X11233Y1816D01*
X11474Y1881D01*
X11591Y1446D01*
X11349Y1381D01*
X11349Y1381D01*
G37*
G54D14*
X10845Y-1377D03*
X11445Y-1377D03*
G54D10*
G36*
X9940Y-4323D02*
X10056Y-3888D01*
X10298Y-3953D01*
X10181Y-4387D01*
X9940Y-4323D01*
X9940Y-4323D01*
G37*
G36*
X10519Y-4478D02*
X10636Y-4043D01*
X10877Y-4108D01*
X10761Y-4543D01*
X10519Y-4478D01*
X10519Y-4478D01*
G37*
G36*
X8482Y-6748D02*
X8707Y-6358D01*
X8924Y-6483D01*
X8699Y-6873D01*
X8482Y-6748D01*
X8482Y-6748D01*
G37*
G36*
X9002Y-7048D02*
X9227Y-6658D01*
X9443Y-6783D01*
X9218Y-7173D01*
X9002Y-7048D01*
X9002Y-7048D01*
G37*
G36*
X6447Y-8714D02*
X6765Y-8395D01*
X6942Y-8572D01*
X6623Y-8890D01*
X6447Y-8714D01*
X6447Y-8714D01*
G37*
G36*
X6871Y-9138D02*
X7189Y-8820D01*
X7366Y-8996D01*
X7048Y-9315D01*
X6871Y-9138D01*
X6871Y-9138D01*
G37*
G36*
X3972Y-10085D02*
X4361Y-9860D01*
X4486Y-10077D01*
X4097Y-10302D01*
X3972Y-10085D01*
X3972Y-10085D01*
G37*
G36*
X4272Y-10605D02*
X4661Y-10380D01*
X4786Y-10596D01*
X4397Y-10821D01*
X4272Y-10605D01*
X4272Y-10605D01*
G37*
G36*
X1226Y-10770D02*
X1660Y-10653D01*
X1725Y-10895D01*
X1290Y-11011D01*
X1226Y-10770D01*
X1226Y-10770D01*
G37*
G36*
X1381Y-11349D02*
X1816Y-11233D01*
X1880Y-11474D01*
X1446Y-11591D01*
X1381Y-11349D01*
X1381Y-11349D01*
G37*
G54D13*
X-1377Y-10845D03*
X-1377Y-11445D03*
G54D10*
G36*
X-4323Y-9940D02*
X-3888Y-10056D01*
X-3953Y-10298D01*
X-4387Y-10181D01*
X-4323Y-9940D01*
X-4323Y-9940D01*
G37*
G36*
X-4478Y-10519D02*
X-4043Y-10636D01*
X-4108Y-10877D01*
X-4543Y-10761D01*
X-4478Y-10519D01*
X-4478Y-10519D01*
G37*
G36*
X-6748Y-8482D02*
X-6358Y-8707D01*
X-6483Y-8924D01*
X-6873Y-8699D01*
X-6748Y-8482D01*
X-6748Y-8482D01*
G37*
G36*
X-7048Y-9002D02*
X-6658Y-9227D01*
X-6783Y-9443D01*
X-7173Y-9218D01*
X-7048Y-9002D01*
X-7048Y-9002D01*
G37*
G36*
X-8714Y-6447D02*
X-8395Y-6765D01*
X-8572Y-6942D01*
X-8890Y-6623D01*
X-8714Y-6447D01*
X-8714Y-6447D01*
G37*
G36*
X-9138Y-6871D02*
X-8820Y-7189D01*
X-8996Y-7366D01*
X-9315Y-7048D01*
X-9138Y-6871D01*
X-9138Y-6871D01*
G37*
G36*
X-10085Y-3972D02*
X-9860Y-4361D01*
X-10077Y-4486D01*
X-10302Y-4097D01*
X-10085Y-3972D01*
X-10085Y-3972D01*
G37*
G36*
X-10605Y-4272D02*
X-10380Y-4661D01*
X-10596Y-4786D01*
X-10821Y-4397D01*
X-10605Y-4272D01*
X-10605Y-4272D01*
G37*
G36*
X-10770Y-1226D02*
X-10653Y-1660D01*
X-10895Y-1725D01*
X-11011Y-1290D01*
X-10770Y-1226D01*
X-10770Y-1226D01*
G37*
G36*
X-11349Y-1381D02*
X-11233Y-1816D01*
X-11474Y-1880D01*
X-11591Y-1446D01*
X-11349Y-1381D01*
X-11349Y-1381D01*
G37*
G54D14*
X-10845Y1377D03*
X-11445Y1377D03*
G54D10*
G36*
X-9940Y4323D02*
X-10056Y3888D01*
X-10298Y3953D01*
X-10181Y4387D01*
X-9940Y4323D01*
X-9940Y4323D01*
G37*
G36*
X-10519Y4478D02*
X-10636Y4043D01*
X-10877Y4108D01*
X-10761Y4543D01*
X-10519Y4478D01*
X-10519Y4478D01*
G37*
G36*
X-8482Y6748D02*
X-8707Y6358D01*
X-8924Y6483D01*
X-8699Y6873D01*
X-8482Y6748D01*
X-8482Y6748D01*
G37*
G36*
X-9002Y7048D02*
X-9227Y6658D01*
X-9443Y6783D01*
X-9218Y7173D01*
X-9002Y7048D01*
X-9002Y7048D01*
G37*
G36*
X-6447Y8714D02*
X-6765Y8395D01*
X-6942Y8572D01*
X-6623Y8890D01*
X-6447Y8714D01*
X-6447Y8714D01*
G37*
G36*
X-6871Y9138D02*
X-7189Y8820D01*
X-7366Y8996D01*
X-7048Y9315D01*
X-6871Y9138D01*
X-6871Y9138D01*
G37*
G36*
X-3972Y10085D02*
X-4361Y9860D01*
X-4486Y10077D01*
X-4097Y10302D01*
X-3972Y10085D01*
X-3972Y10085D01*
G37*
G36*
X-4272Y10605D02*
X-4661Y10380D01*
X-4786Y10596D01*
X-4397Y10821D01*
X-4272Y10605D01*
X-4272Y10605D01*
G37*
G36*
X-1226Y10770D02*
X-1660Y10653D01*
X-1725Y10895D01*
X-1290Y11011D01*
X-1226Y10770D01*
X-1226Y10770D01*
G37*
G36*
X-1381Y11349D02*
X-1816Y11233D01*
X-1880Y11474D01*
X-1446Y11591D01*
X-1381Y11349D01*
X-1381Y11349D01*
G37*
G36*
X4323Y9940D02*
X3888Y10056D01*
X3953Y10298D01*
X4387Y10181D01*
X4323Y9940D01*
X4323Y9940D01*
G37*
G36*
X4478Y10520D02*
X4043Y10636D01*
X4108Y10878D01*
X4543Y10761D01*
X4478Y10520D01*
X4478Y10520D01*
G37*
G54D15*
X-649Y9665D03*
X649Y9665D03*
X649Y11590D03*
X-649Y11594D03*
G54D10*
G36*
X1968Y9173D02*
X1626Y9264D01*
X1779Y9835D01*
X2121Y9743D01*
X1968Y9173D01*
X1968Y9173D01*
G37*
G36*
X3223Y8836D02*
X2881Y8928D01*
X3034Y9498D01*
X3376Y9407D01*
X3223Y8836D01*
X3223Y8836D01*
G37*
G36*
X3721Y10696D02*
X3379Y10788D01*
X3532Y11358D01*
X3874Y11266D01*
X3721Y10696D01*
X3721Y10696D01*
G37*
G36*
X2468Y11036D02*
X2125Y11128D01*
X2278Y11698D01*
X2620Y11606D01*
X2468Y11036D01*
X2468Y11036D01*
G37*
G36*
X4275Y8350D02*
X3969Y8528D01*
X4264Y9039D01*
X4571Y8862D01*
X4275Y8350D01*
X4275Y8350D01*
G37*
G36*
X5401Y7701D02*
X5094Y7878D01*
X5389Y8389D01*
X5696Y8212D01*
X5401Y7701D01*
X5401Y7701D01*
G37*
G36*
X6363Y9368D02*
X6056Y9545D01*
X6352Y10057D01*
X6658Y9880D01*
X6363Y9368D01*
X6363Y9368D01*
G37*
G36*
X5240Y10021D02*
X4933Y10198D01*
X5228Y10710D01*
X5535Y10533D01*
X5240Y10021D01*
X5240Y10021D01*
G37*
G36*
X6291Y6959D02*
X6041Y7210D01*
X6458Y7627D01*
X6709Y7377D01*
X6291Y6959D01*
X6291Y6959D01*
G37*
G36*
X7210Y6041D02*
X6959Y6291D01*
X7377Y6709D01*
X7627Y6458D01*
X7210Y6041D01*
X7210Y6041D01*
G37*
G36*
X8571Y7402D02*
X8321Y7652D01*
X8738Y8070D01*
X8989Y7819D01*
X8571Y7402D01*
X8571Y7402D01*
G37*
G36*
X7655Y8323D02*
X7405Y8574D01*
X7822Y8991D01*
X8073Y8741D01*
X7655Y8323D01*
X7655Y8323D01*
G37*
G36*
X7878Y5094D02*
X7701Y5401D01*
X8212Y5696D01*
X8390Y5389D01*
X7878Y5094D01*
X7878Y5094D01*
G37*
G36*
X8528Y3969D02*
X8351Y4275D01*
X8862Y4571D01*
X9039Y4264D01*
X8528Y3969D01*
X8528Y3969D01*
G37*
G36*
X10195Y4931D02*
X10018Y5238D01*
X10529Y5533D01*
X10706Y5226D01*
X10195Y4931D01*
X10195Y4931D01*
G37*
G36*
X9549Y6058D02*
X9372Y6365D01*
X9883Y6660D01*
X10060Y6354D01*
X9549Y6058D01*
X9549Y6058D01*
G37*
G36*
X8928Y2881D02*
X8836Y3223D01*
X9407Y3376D01*
X9498Y3034D01*
X8928Y2881D01*
X8928Y2881D01*
G37*
G36*
X9264Y1626D02*
X9173Y1968D01*
X9743Y2121D01*
X9835Y1779D01*
X9264Y1626D01*
X9264Y1626D01*
G37*
G36*
X11124Y2124D02*
X11032Y2467D01*
X11603Y2619D01*
X11694Y2277D01*
X11124Y2124D01*
X11124Y2124D01*
G37*
G36*
X10791Y3380D02*
X10700Y3723D01*
X11270Y3875D01*
X11362Y3533D01*
X10791Y3380D01*
X10791Y3380D01*
G37*
G54D16*
X9665Y649D03*
X9665Y-649D03*
X11590Y-649D03*
X11594Y649D03*
G54D10*
G36*
X9173Y-1968D02*
X9264Y-1626D01*
X9835Y-1779D01*
X9743Y-2121D01*
X9173Y-1968D01*
X9173Y-1968D01*
G37*
G36*
X8836Y-3223D02*
X8928Y-2881D01*
X9498Y-3034D01*
X9407Y-3376D01*
X8836Y-3223D01*
X8836Y-3223D01*
G37*
G36*
X10696Y-3721D02*
X10788Y-3379D01*
X11358Y-3532D01*
X11266Y-3874D01*
X10696Y-3721D01*
X10696Y-3721D01*
G37*
G36*
X11036Y-2468D02*
X11128Y-2125D01*
X11698Y-2278D01*
X11606Y-2620D01*
X11036Y-2468D01*
X11036Y-2468D01*
G37*
G36*
X8351Y-4275D02*
X8528Y-3969D01*
X9039Y-4264D01*
X8862Y-4571D01*
X8351Y-4275D01*
X8351Y-4275D01*
G37*
G36*
X7701Y-5401D02*
X7878Y-5094D01*
X8390Y-5389D01*
X8212Y-5696D01*
X7701Y-5401D01*
X7701Y-5401D01*
G37*
G36*
X9368Y-6363D02*
X9545Y-6056D01*
X10057Y-6352D01*
X9880Y-6658D01*
X9368Y-6363D01*
X9368Y-6363D01*
G37*
G36*
X10021Y-5240D02*
X10198Y-4933D01*
X10710Y-5228D01*
X10533Y-5535D01*
X10021Y-5240D01*
X10021Y-5240D01*
G37*
G36*
X6959Y-6291D02*
X7210Y-6041D01*
X7627Y-6458D01*
X7377Y-6709D01*
X6959Y-6291D01*
X6959Y-6291D01*
G37*
G36*
X6041Y-7210D02*
X6291Y-6959D01*
X6709Y-7377D01*
X6458Y-7627D01*
X6041Y-7210D01*
X6041Y-7210D01*
G37*
G36*
X7402Y-8571D02*
X7652Y-8321D01*
X8070Y-8738D01*
X7819Y-8989D01*
X7402Y-8571D01*
X7402Y-8571D01*
G37*
G36*
X8323Y-7655D02*
X8574Y-7405D01*
X8991Y-7822D01*
X8741Y-8073D01*
X8323Y-7655D01*
X8323Y-7655D01*
G37*
G36*
X5094Y-7878D02*
X5401Y-7701D01*
X5696Y-8212D01*
X5389Y-8390D01*
X5094Y-7878D01*
X5094Y-7878D01*
G37*
G36*
X3969Y-8528D02*
X4275Y-8351D01*
X4571Y-8862D01*
X4264Y-9039D01*
X3969Y-8528D01*
X3969Y-8528D01*
G37*
G36*
X4931Y-10195D02*
X5238Y-10018D01*
X5533Y-10529D01*
X5226Y-10706D01*
X4931Y-10195D01*
X4931Y-10195D01*
G37*
G36*
X6058Y-9549D02*
X6365Y-9372D01*
X6660Y-9883D01*
X6354Y-10060D01*
X6058Y-9549D01*
X6058Y-9549D01*
G37*
G36*
X2881Y-8928D02*
X3223Y-8836D01*
X3376Y-9407D01*
X3034Y-9498D01*
X2881Y-8928D01*
X2881Y-8928D01*
G37*
G36*
X1626Y-9264D02*
X1968Y-9173D01*
X2121Y-9743D01*
X1779Y-9835D01*
X1626Y-9264D01*
X1626Y-9264D01*
G37*
G36*
X2124Y-11124D02*
X2467Y-11032D01*
X2619Y-11603D01*
X2277Y-11694D01*
X2124Y-11124D01*
X2124Y-11124D01*
G37*
G36*
X3380Y-10791D02*
X3723Y-10700D01*
X3875Y-11270D01*
X3533Y-11362D01*
X3380Y-10791D01*
X3380Y-10791D01*
G37*
G54D15*
X649Y-9665D03*
X-649Y-9665D03*
X-649Y-11590D03*
X649Y-11594D03*
G54D10*
G36*
X-1968Y-9173D02*
X-1626Y-9264D01*
X-1779Y-9835D01*
X-2121Y-9743D01*
X-1968Y-9173D01*
X-1968Y-9173D01*
G37*
G36*
X-3223Y-8836D02*
X-2881Y-8928D01*
X-3034Y-9498D01*
X-3376Y-9407D01*
X-3223Y-8836D01*
X-3223Y-8836D01*
G37*
G36*
X-3721Y-10696D02*
X-3379Y-10788D01*
X-3532Y-11358D01*
X-3874Y-11266D01*
X-3721Y-10696D01*
X-3721Y-10696D01*
G37*
G36*
X-2468Y-11036D02*
X-2125Y-11128D01*
X-2278Y-11698D01*
X-2620Y-11606D01*
X-2468Y-11036D01*
X-2468Y-11036D01*
G37*
G36*
X-4275Y-8351D02*
X-3969Y-8528D01*
X-4264Y-9039D01*
X-4571Y-8862D01*
X-4275Y-8351D01*
X-4275Y-8351D01*
G37*
G36*
X-5401Y-7701D02*
X-5094Y-7878D01*
X-5389Y-8390D01*
X-5696Y-8212D01*
X-5401Y-7701D01*
X-5401Y-7701D01*
G37*
G36*
X-6363Y-9368D02*
X-6056Y-9545D01*
X-6352Y-10057D01*
X-6658Y-9880D01*
X-6363Y-9368D01*
X-6363Y-9368D01*
G37*
G36*
X-5240Y-10021D02*
X-4933Y-10198D01*
X-5228Y-10710D01*
X-5535Y-10533D01*
X-5240Y-10021D01*
X-5240Y-10021D01*
G37*
G36*
X-6291Y-6959D02*
X-6041Y-7210D01*
X-6458Y-7627D01*
X-6709Y-7377D01*
X-6291Y-6959D01*
X-6291Y-6959D01*
G37*
G36*
X-7210Y-6041D02*
X-6959Y-6291D01*
X-7377Y-6709D01*
X-7627Y-6458D01*
X-7210Y-6041D01*
X-7210Y-6041D01*
G37*
G36*
X-8571Y-7402D02*
X-8321Y-7652D01*
X-8738Y-8070D01*
X-8989Y-7819D01*
X-8571Y-7402D01*
X-8571Y-7402D01*
G37*
G36*
X-7655Y-8323D02*
X-7405Y-8574D01*
X-7822Y-8991D01*
X-8073Y-8741D01*
X-7655Y-8323D01*
X-7655Y-8323D01*
G37*
G36*
X-7878Y-5094D02*
X-7701Y-5401D01*
X-8212Y-5696D01*
X-8390Y-5389D01*
X-7878Y-5094D01*
X-7878Y-5094D01*
G37*
G36*
X-8528Y-3969D02*
X-8351Y-4275D01*
X-8862Y-4571D01*
X-9039Y-4264D01*
X-8528Y-3969D01*
X-8528Y-3969D01*
G37*
G36*
X-10195Y-4931D02*
X-10018Y-5238D01*
X-10529Y-5533D01*
X-10706Y-5226D01*
X-10195Y-4931D01*
X-10195Y-4931D01*
G37*
G36*
X-9549Y-6058D02*
X-9372Y-6365D01*
X-9883Y-6660D01*
X-10060Y-6354D01*
X-9549Y-6058D01*
X-9549Y-6058D01*
G37*
G36*
X-8928Y-2881D02*
X-8836Y-3223D01*
X-9407Y-3376D01*
X-9498Y-3034D01*
X-8928Y-2881D01*
X-8928Y-2881D01*
G37*
G36*
X-9264Y-1626D02*
X-9173Y-1968D01*
X-9743Y-2121D01*
X-9835Y-1779D01*
X-9264Y-1626D01*
X-9264Y-1626D01*
G37*
G36*
X-11124Y-2124D02*
X-11032Y-2467D01*
X-11603Y-2619D01*
X-11694Y-2277D01*
X-11124Y-2124D01*
X-11124Y-2124D01*
G37*
G36*
X-10791Y-3380D02*
X-10700Y-3723D01*
X-11270Y-3875D01*
X-11362Y-3533D01*
X-10791Y-3380D01*
X-10791Y-3380D01*
G37*
G54D16*
X-9665Y-649D03*
X-9665Y649D03*
X-11590Y649D03*
X-11594Y-649D03*
G54D10*
G36*
X-9173Y1968D02*
X-9264Y1626D01*
X-9835Y1779D01*
X-9743Y2121D01*
X-9173Y1968D01*
X-9173Y1968D01*
G37*
G36*
X-8836Y3223D02*
X-8928Y2881D01*
X-9498Y3034D01*
X-9407Y3376D01*
X-8836Y3223D01*
X-8836Y3223D01*
G37*
G36*
X-10696Y3722D02*
X-10788Y3379D01*
X-11358Y3532D01*
X-11266Y3874D01*
X-10696Y3722D01*
X-10696Y3722D01*
G37*
G36*
X-11036Y2468D02*
X-11128Y2125D01*
X-11698Y2278D01*
X-11606Y2620D01*
X-11036Y2468D01*
X-11036Y2468D01*
G37*
G36*
X-8351Y4275D02*
X-8528Y3969D01*
X-9039Y4264D01*
X-8862Y4571D01*
X-8351Y4275D01*
X-8351Y4275D01*
G37*
G36*
X-7701Y5401D02*
X-7878Y5094D01*
X-8390Y5389D01*
X-8212Y5696D01*
X-7701Y5401D01*
X-7701Y5401D01*
G37*
G36*
X-9368Y6363D02*
X-9545Y6056D01*
X-10057Y6352D01*
X-9880Y6658D01*
X-9368Y6363D01*
X-9368Y6363D01*
G37*
G36*
X-10021Y5240D02*
X-10198Y4933D01*
X-10710Y5228D01*
X-10533Y5535D01*
X-10021Y5240D01*
X-10021Y5240D01*
G37*
G36*
X-6959Y6291D02*
X-7210Y6041D01*
X-7627Y6458D01*
X-7377Y6709D01*
X-6959Y6291D01*
X-6959Y6291D01*
G37*
G36*
X-6041Y7210D02*
X-6291Y6959D01*
X-6709Y7377D01*
X-6458Y7627D01*
X-6041Y7210D01*
X-6041Y7210D01*
G37*
G36*
X-7402Y8571D02*
X-7652Y8321D01*
X-8070Y8738D01*
X-7819Y8989D01*
X-7402Y8571D01*
X-7402Y8571D01*
G37*
G36*
X-8323Y7655D02*
X-8574Y7405D01*
X-8991Y7822D01*
X-8741Y8073D01*
X-8323Y7655D01*
X-8323Y7655D01*
G37*
G36*
X-5094Y7878D02*
X-5401Y7701D01*
X-5696Y8212D01*
X-5389Y8389D01*
X-5094Y7878D01*
X-5094Y7878D01*
G37*
G36*
X-3969Y8528D02*
X-4275Y8350D01*
X-4571Y8862D01*
X-4264Y9039D01*
X-3969Y8528D01*
X-3969Y8528D01*
G37*
G36*
X-4931Y10195D02*
X-5238Y10018D01*
X-5533Y10529D01*
X-5226Y10706D01*
X-4931Y10195D01*
X-4931Y10195D01*
G37*
G36*
X-6058Y9549D02*
X-6365Y9372D01*
X-6660Y9883D01*
X-6354Y10060D01*
X-6058Y9549D01*
X-6058Y9549D01*
G37*
G36*
X-2881Y8928D02*
X-3223Y8836D01*
X-3376Y9407D01*
X-3034Y9498D01*
X-2881Y8928D01*
X-2881Y8928D01*
G37*
G36*
X-1626Y9264D02*
X-1968Y9173D01*
X-2121Y9743D01*
X-1779Y9835D01*
X-1626Y9264D01*
X-1626Y9264D01*
G37*
G36*
X-2124Y11124D02*
X-2467Y11032D01*
X-2619Y11603D01*
X-2277Y11694D01*
X-2124Y11124D01*
X-2124Y11124D01*
G37*
G36*
X-3380Y10791D02*
X-3723Y10700D01*
X-3875Y11270D01*
X-3533Y11362D01*
X-3380Y10791D01*
X-3380Y10791D01*
G37*
G54D17*
X-2224Y10811D03*
X-4940Y9870D03*
X-9228Y6047D03*
X-10476Y3480D03*
X-11019Y645D03*
X-10807Y-2240D03*
X-9862Y-4956D03*
X-8248Y-7334D03*
X-6074Y-9216D03*
X-3484Y-10468D03*
X-649Y-11015D03*
X2236Y-10807D03*
X4956Y-9862D03*
X7326Y-8259D03*
X9212Y-6070D03*
X10472Y-3476D03*
X11011Y-649D03*
X3468Y10476D03*
X6066Y9220D03*
X8248Y7334D03*
X9870Y4944D03*
X10811Y2216D03*
X-7330Y8246D03*
G54D18*
X9196Y649D02*
X8737Y1108D01*
X8737Y1108D02*
X8737Y3013D01*
X9196Y649D02*
X9071Y524D01*
X9665Y649D02*
X9196Y649D01*
X9071Y524D02*
X9071Y-1758D01*
X649Y-9219D02*
X1131Y-8737D01*
X1131Y-8737D02*
X3013Y-8737D01*
X-8695Y4270D02*
X-8472Y4047D01*
X-8472Y4047D02*
X-8309Y4047D01*
X-6874Y5972D02*
X-6874Y5482D01*
X-6874Y5482D02*
X-8309Y4047D01*
X-6885Y5972D02*
X-6874Y5972D01*
X-6874Y5972D02*
X-6860Y5972D01*
X-7288Y6375D02*
X-6885Y5972D01*
X-7293Y6375D02*
X-7288Y6375D01*
X-6860Y5972D02*
X-5172Y7659D01*
X1874Y9504D02*
X1874Y9190D01*
X1874Y9190D02*
X1640Y8956D01*
X-649Y9665D02*
X-503Y9519D01*
X-635Y8506D02*
X-838Y8506D01*
X-503Y8637D02*
X-635Y8506D01*
X-503Y9519D02*
X-503Y8637D01*
X-1475Y10832D02*
X-1475Y10820D01*
X-1475Y10820D02*
X-3129Y9167D01*
X1377Y10845D02*
X1874Y10349D01*
X1874Y10349D02*
X1874Y9504D01*
X1874Y9504D02*
X2489Y10119D01*
X2489Y10119D02*
X4138Y10119D01*
X1759Y9075D02*
X1640Y8956D01*
X2501Y8332D02*
X1759Y9075D01*
X4060Y8332D02*
X2501Y8332D01*
X1640Y8956D02*
X1000Y8956D01*
X6086Y7004D02*
X5388Y7004D01*
X4060Y8332D02*
X4060Y8332D01*
X5388Y7004D02*
X4060Y8332D01*
X10081Y4229D02*
X8915Y5395D01*
X8915Y5395D02*
X8045Y5395D01*
X8737Y3013D02*
X7688Y4063D01*
X7688Y4063D02*
X7688Y5188D01*
X10832Y1476D02*
X9179Y3129D01*
X9179Y3129D02*
X9167Y3129D01*
X-9106Y1767D02*
X-9106Y-591D01*
X-9106Y-591D02*
X-9165Y-649D01*
X-8737Y-3013D02*
X-8737Y-1077D01*
X-8737Y-1077D02*
X-9165Y-649D01*
X-9165Y-649D02*
X-9665Y-649D01*
X10845Y-1377D02*
X10527Y-1059D01*
X10527Y-212D02*
X9665Y649D01*
X10527Y-1059D02*
X10527Y-212D01*
X10119Y-4138D02*
X10119Y-2489D01*
X10119Y-2489D02*
X9504Y-1874D01*
X8333Y-4066D02*
X8333Y-2516D01*
X9071Y-1778D02*
X9071Y-1758D01*
X8333Y-2516D02*
X9071Y-1778D01*
X6978Y-6060D02*
X6978Y-5421D01*
X6978Y-5421D02*
X8333Y-4066D01*
X8333Y-4066D02*
X8336Y-4063D01*
X8703Y-6616D02*
X8695Y-6607D01*
X8695Y-6607D02*
X8695Y-4270D01*
X6694Y-8643D02*
X6921Y-8416D01*
X6921Y-6747D02*
X7293Y-6375D01*
X6921Y-8416D02*
X6921Y-6747D01*
X5153Y-7660D02*
X6753Y-6060D01*
X6753Y-6060D02*
X6978Y-6060D01*
X4229Y-10081D02*
X5395Y-8915D01*
X5395Y-8915D02*
X5395Y-8045D01*
X3013Y-8737D02*
X4091Y-7660D01*
X4091Y-7660D02*
X5153Y-7660D01*
X5153Y-7660D02*
X5172Y-7660D01*
X1475Y-10832D02*
X1475Y-10820D01*
X1475Y-10820D02*
X3129Y-9167D01*
X-1377Y-10845D02*
X-1054Y-10845D01*
X-106Y-10421D02*
X649Y-9665D01*
X-629Y-10421D02*
X-106Y-10421D01*
X-1054Y-10845D02*
X-629Y-10421D01*
X-1758Y-9073D02*
X503Y-9073D01*
X503Y-9073D02*
X649Y-9219D01*
X-4138Y-10119D02*
X-2489Y-10119D01*
X-2489Y-10119D02*
X-1874Y-9504D01*
X-6090Y-7009D02*
X-5207Y-7009D01*
X-5207Y-7009D02*
X-3895Y-8320D01*
X-4270Y-8695D02*
X-3895Y-8320D01*
X-3895Y-8320D02*
X-3882Y-8308D01*
X-2524Y-8308D02*
X-1758Y-9073D01*
X-3901Y-8308D02*
X-2524Y-8308D01*
X-3882Y-8308D02*
X-3894Y-8308D01*
X-3894Y-8308D02*
X-3901Y-8314D01*
X-3901Y-8314D02*
X-3901Y-8308D01*
X-8643Y-6694D02*
X-8096Y-6694D01*
X-7497Y-7293D02*
X-6375Y-7293D01*
X-8096Y-6694D02*
X-7497Y-7293D01*
X-6375Y-7293D02*
X-6090Y-7009D01*
X-6090Y-6742D02*
X-7660Y-5172D01*
X-6090Y-7009D02*
X-6090Y-6742D01*
X-7680Y-5193D02*
X-7680Y-4070D01*
X-7680Y-4070D02*
X-8737Y-3013D01*
X-8045Y-5395D02*
X-7882Y-5395D01*
X-7882Y-5395D02*
X-7680Y-5193D01*
X-7680Y-5193D02*
X-7660Y-5172D01*
X-8309Y4047D02*
X-8309Y2564D01*
X-8309Y2564D02*
X-9106Y1767D01*
X-5395Y8045D02*
X-5172Y7822D01*
X-5172Y7822D02*
X-5172Y7659D01*
X-4229Y10081D02*
X-5395Y8915D01*
X-5395Y8915D02*
X-5395Y8045D01*
X-7293Y6375D02*
X-7293Y7576D01*
X-6694Y8175D02*
X-6694Y8643D01*
X-7293Y7576D02*
X-6694Y8175D01*
X-8703Y6616D02*
X-8695Y6607D01*
X-8695Y6607D02*
X-8695Y4270D01*
X-9504Y1874D02*
X-10119Y2489D01*
X-10119Y2489D02*
X-10119Y4138D01*
X-10845Y1377D02*
X-10516Y1048D01*
X-10516Y1048D02*
X-10516Y201D01*
X-10516Y201D02*
X-9665Y-649D01*
X-10832Y-1475D02*
X-10820Y-1475D01*
X-10820Y-1475D02*
X-9167Y-3129D01*
X-8045Y-5395D02*
X-8915Y-5395D01*
X-8915Y-5395D02*
X-10081Y-4229D01*
X-6616Y-8703D02*
X-4270Y-8695D01*
X4270Y8695D02*
X4060Y8332D01*
X4060Y8332D02*
X4047Y8309D01*
X6616Y8703D02*
X4270Y8695D01*
X-9504Y1874D02*
X-9106Y1767D01*
X-9167Y-3129D02*
X-8737Y-3013D01*
X8045Y5395D02*
X7688Y5188D01*
X7688Y5188D02*
X7660Y5172D01*
X6086Y7004D02*
X7660Y5172D01*
X7660Y5172D02*
X7660Y5172D01*
X9167Y3129D02*
X8737Y3013D01*
X6375Y7293D02*
X6086Y7004D01*
X3129Y-9167D02*
X3013Y-8737D01*
X3013Y-8737D02*
X3013Y-8737D01*
X3013Y-8737D02*
X3013Y-8737D01*
X-1758Y-9073D02*
X-1758Y-9073D01*
X-1767Y-9105D02*
X-1758Y-9073D01*
X649Y-9665D02*
X649Y-9219D01*
X-1193Y8511D02*
X-1450Y8770D01*
X-1450Y8770D02*
X-1450Y8770D01*
X-1450Y8770D02*
X-3025Y8780D01*
X-838Y8506D02*
X-1161Y8506D01*
X-1161Y8506D02*
X-1193Y8511D01*
X-5172Y7659D02*
X-5172Y7659D01*
X-5172Y7659D02*
X-5172Y7659D01*
X-3025Y8780D02*
X-3025Y8780D01*
X8643Y6694D02*
X8378Y6959D01*
X4047Y8309D02*
X4047Y8309D01*
X-1874Y-9504D02*
X-1767Y-9105D01*
X-3129Y9167D02*
X-3025Y8780D01*
X4047Y8309D02*
X4047Y8309D01*
X6375Y7293D02*
X6532Y7451D01*
X5395Y-8045D02*
X5172Y-7660D01*
X6532Y7451D02*
X8378Y6959D01*
X7293Y-6375D02*
X6978Y-6060D01*
X9504Y-1874D02*
X9071Y-1758D01*
X8737Y3013D02*
X8737Y3013D01*
X8737Y3013D02*
X8737Y3013D01*
X8737Y3013D02*
X8737Y3013D01*
X-5172Y7659D02*
X-3025Y8780D01*
X-5172Y7659D02*
X-5172Y7659D01*
X8695Y-4270D02*
X8336Y-4063D01*
X-1000Y8956D02*
X-1000Y10362D01*
X-649Y10712D02*
X-649Y11594D01*
X-1000Y10362D02*
X-649Y10712D01*
X649Y11412D02*
X1002Y11445D01*
X1377Y11445D02*
X1002Y11445D01*
X649Y11590D02*
X649Y11412D01*
X649Y11590D02*
X0Y10940D01*
X0Y10940D02*
X0Y8956D01*
X-2224Y10811D02*
X-2372Y11363D01*
X-4940Y9870D02*
X-5232Y10362D01*
X-9228Y6047D02*
X-9713Y6357D01*
X-10476Y3480D02*
X-11027Y3627D01*
X-11590Y649D02*
X-11019Y645D01*
X-10807Y-2240D02*
X-11363Y-2372D01*
X-9862Y-4956D02*
X-10362Y-5232D01*
X-8248Y-7334D02*
X-8655Y-7736D01*
X-6074Y-9216D02*
X-6357Y-9713D01*
X-3484Y-10468D02*
X-3627Y-11027D01*
X-649Y-11015D02*
X-649Y-11590D01*
X2236Y-10807D02*
X2372Y-11363D01*
X4956Y-9862D02*
X5232Y-10362D01*
X7326Y-8259D02*
X7736Y-8655D01*
X9212Y-6070D02*
X9713Y-6357D01*
X10472Y-3476D02*
X11027Y-3627D01*
X11011Y-649D02*
X11590Y-649D01*
X-2372Y11363D02*
X-1631Y11412D01*
X-5232Y10362D02*
X-4529Y10601D01*
X-7736Y8655D02*
X-7118Y9067D01*
X-9713Y6357D02*
X-9223Y6916D01*
X-11027Y3627D02*
X-10698Y4293D01*
X-11590Y649D02*
X-11445Y1377D01*
X-11363Y-2372D02*
X-11412Y-1631D01*
X-10362Y-5232D02*
X-10601Y-4529D01*
X-8655Y-7736D02*
X-9067Y-7118D01*
X-6357Y-9713D02*
X-6916Y-9223D01*
X-3627Y-11027D02*
X-4293Y-10698D01*
X-649Y-11590D02*
X-1377Y-11445D01*
X2372Y-11363D02*
X1631Y-11412D01*
X5232Y-10362D02*
X4529Y-10601D01*
X7736Y-8655D02*
X7118Y-9067D01*
X9713Y-6357D02*
X9223Y-6916D01*
X11027Y-3627D02*
X10698Y-4293D01*
X11590Y-649D02*
X11445Y-1377D01*
X11363Y2372D02*
X11412Y1631D01*
X3627Y11027D02*
X4293Y10699D01*
X3468Y10476D02*
X3627Y11027D01*
X6357Y9712D02*
X6916Y9223D01*
X6066Y9220D02*
X6357Y9712D01*
X9067Y7118D02*
X8655Y7736D01*
X8248Y7334D02*
X8655Y7736D01*
X10362Y5232D02*
X10601Y4529D01*
X9870Y4944D02*
X10362Y5232D01*
X11363Y2372D02*
X10811Y2216D01*
X-7421Y8340D02*
X-7421Y8340D01*
X-7421Y8340D02*
X-7330Y8246D01*
X-7736Y8655D02*
X-7654Y8573D01*
X-7654Y8573D02*
X-7421Y8340D01*
X-7293Y-6375D02*
X-7582Y-6086D01*
X-9443Y-6086D02*
X-9716Y-6359D01*
X-7582Y-6086D02*
X-9443Y-6086D01*
X-8657Y7739D02*
X-8045Y7127D01*
X-8045Y7127D02*
X-8045Y5395D01*
X-4270Y8695D02*
X-3628Y9337D01*
X-3628Y9337D02*
X-3628Y11031D01*
X11594Y649D02*
X10728Y649D01*
X10728Y649D02*
X9504Y1874D01*
X-9665Y649D02*
X-9665Y1090D01*
X-10948Y2373D02*
X-11367Y2373D01*
X-9665Y1090D02*
X-10948Y2373D01*
X-9167Y3129D02*
X-9167Y3971D01*
X-9167Y4036D02*
X-10366Y5234D01*
X-9167Y3971D02*
X-9167Y4036D01*
X9716Y6359D02*
X9356Y6000D01*
X7668Y6000D02*
X7293Y6375D01*
X9356Y6000D02*
X7668Y6000D01*
X5395Y8045D02*
X7127Y8045D01*
X7127Y8045D02*
X7739Y8657D01*
X8695Y4270D02*
X9337Y3628D01*
X9337Y3628D02*
X11031Y3628D01*
X3129Y9167D02*
X4036Y9167D01*
X4036Y9167D02*
X5234Y10365D01*
X2373Y11367D02*
X2155Y11149D01*
X649Y10767D02*
X649Y9665D01*
X1031Y11149D02*
X649Y10767D01*
X1074Y11149D02*
X1031Y11149D01*
X2155Y11149D02*
X1074Y11149D01*
X8045Y-5395D02*
X8045Y-7127D01*
X8045Y-7127D02*
X8657Y-7739D01*
X6359Y-9716D02*
X6094Y-9451D01*
X6094Y-7574D02*
X6375Y-7293D01*
X6094Y-9451D02*
X6094Y-7574D01*
X1874Y-9504D02*
X649Y-10728D01*
X649Y-10728D02*
X649Y-11594D01*
X3513Y-10601D02*
X4270Y-8695D01*
X3513Y-10601D02*
X3513Y-10601D01*
X3628Y-11031D02*
X3513Y-10601D01*
X9665Y-649D02*
X9665Y-1133D01*
X10904Y-2373D02*
X11367Y-2373D01*
X9665Y-1133D02*
X10904Y-2373D01*
X10366Y-5234D02*
X9167Y-4036D01*
X9167Y-4036D02*
X9167Y-3129D01*
X-5395Y-8045D02*
X-7127Y-8045D01*
X-7127Y-8045D02*
X-7739Y-8657D01*
X-9504Y-1874D02*
X-10728Y-649D01*
X-10728Y-649D02*
X-11594Y-649D01*
X-8695Y-4270D02*
X-9337Y-3628D01*
X-9337Y-3628D02*
X-11031Y-3628D01*
X-649Y-9665D02*
X-1023Y-9665D01*
X-2373Y-11015D02*
X-2373Y-11367D01*
X-1023Y-9665D02*
X-2373Y-11015D01*
X-3129Y-9167D02*
X-4036Y-9167D01*
X-4036Y-9167D02*
X-5234Y-10366D01*
X-6375Y7293D02*
X-6074Y7594D01*
X-6074Y9431D02*
X-6359Y9716D01*
X-6074Y7594D02*
X-6074Y9431D01*
M02*
