G04 (created by PCBNEW (2013-mar-13)-testing) date Fri 11 Oct 2013 20:58:09 EST*
%MOIN*%
G04 Gerber Fmt 3.4, Leading zero omitted, Abs format*
%FSLAX34Y34*%
G01*
G70*
G90*
G04 APERTURE LIST*
%ADD10C,0.005906*%
%ADD11C,0.007382*%
%ADD12C,0.011811*%
%ADD13C,0.006000*%
%ADD14C,0.004700*%
%ADD15C,0.003445*%
G04 APERTURE END LIST*
G54D10*
G54D11*
X1818Y8662D02*
X1943Y8929D01*
X2007Y8900D01*
X2039Y8869D01*
X2053Y8832D01*
X2054Y8800D01*
X2043Y8743D01*
X2025Y8705D01*
X1988Y8660D01*
X1964Y8640D01*
X1926Y8627D01*
X1882Y8632D01*
X1818Y8662D01*
X2086Y8537D02*
X2211Y8804D01*
X2297Y8656D02*
X2213Y8477D01*
X2285Y8630D02*
X2303Y8637D01*
X2335Y8638D01*
X2373Y8620D01*
X2393Y8596D01*
X2393Y8564D01*
X2328Y8424D01*
X2478Y8246D02*
X2656Y8628D01*
X2969Y8435D02*
X2950Y8460D01*
X2912Y8478D01*
X2867Y8483D01*
X2830Y8469D01*
X2805Y8450D01*
X2769Y8405D01*
X2751Y8366D01*
X2740Y8309D01*
X2741Y8278D01*
X2755Y8241D01*
X2787Y8210D01*
X2812Y8198D01*
X2856Y8193D01*
X2875Y8200D01*
X2917Y8289D01*
X2866Y8313D01*
X2978Y8121D02*
X3103Y8389D01*
X3131Y8050D01*
X3256Y8317D01*
X3258Y7990D02*
X3383Y8258D01*
X3447Y8228D01*
X3479Y8197D01*
X3493Y8160D01*
X3494Y8129D01*
X3483Y8072D01*
X3465Y8034D01*
X3428Y7989D01*
X3404Y7969D01*
X3366Y7955D01*
X3322Y7960D01*
X3258Y7990D01*
X3548Y7746D02*
X3726Y8129D01*
X3880Y8026D02*
X4046Y7949D01*
X3909Y7888D01*
X3947Y7871D01*
X3967Y7846D01*
X3974Y7827D01*
X3974Y7796D01*
X3945Y7732D01*
X3920Y7713D01*
X3901Y7706D01*
X3870Y7705D01*
X3794Y7741D01*
X3774Y7765D01*
X3767Y7784D01*
X4093Y7818D02*
X4074Y7610D01*
X4221Y7759D01*
X4339Y7812D02*
X4505Y7735D01*
X4368Y7674D01*
X4406Y7657D01*
X4426Y7632D01*
X4432Y7613D01*
X4433Y7582D01*
X4404Y7518D01*
X4379Y7499D01*
X4360Y7492D01*
X4329Y7491D01*
X4252Y7527D01*
X4233Y7551D01*
X4226Y7570D01*
X-4367Y7469D02*
X-4492Y7737D01*
X-4428Y7767D01*
X-4384Y7772D01*
X-4347Y7758D01*
X-4322Y7739D01*
X-4285Y7693D01*
X-4268Y7655D01*
X-4257Y7598D01*
X-4257Y7567D01*
X-4271Y7530D01*
X-4303Y7499D01*
X-4367Y7469D01*
X-4099Y7594D02*
X-4224Y7862D01*
X-4055Y7832D02*
X-3972Y7653D01*
X-4043Y7806D02*
X-4036Y7825D01*
X-4017Y7850D01*
X-3979Y7868D01*
X-3947Y7867D01*
X-3923Y7847D01*
X-3857Y7707D01*
X-3625Y7707D02*
X-3803Y8089D01*
X-3454Y8205D02*
X-3485Y8206D01*
X-3523Y8188D01*
X-3556Y8158D01*
X-3569Y8121D01*
X-3570Y8089D01*
X-3559Y8032D01*
X-3541Y7994D01*
X-3505Y7949D01*
X-3480Y7929D01*
X-3443Y7916D01*
X-3398Y7921D01*
X-3373Y7933D01*
X-3341Y7963D01*
X-3334Y7982D01*
X-3376Y8071D01*
X-3426Y8047D01*
X-3207Y8010D02*
X-3332Y8278D01*
X-3054Y8081D01*
X-3179Y8349D01*
X-2927Y8141D02*
X-3052Y8408D01*
X-2988Y8438D01*
X-2944Y8443D01*
X-2907Y8430D01*
X-2882Y8410D01*
X-2845Y8365D01*
X-2828Y8327D01*
X-2817Y8270D01*
X-2817Y8238D01*
X-2831Y8201D01*
X-2863Y8170D01*
X-2927Y8141D01*
X-2554Y8206D02*
X-2732Y8588D01*
X-2555Y8640D02*
X-2389Y8717D01*
X-2431Y8574D01*
X-2393Y8592D01*
X-2361Y8591D01*
X-2342Y8584D01*
X-2318Y8564D01*
X-2288Y8501D01*
X-2289Y8469D01*
X-2296Y8451D01*
X-2315Y8426D01*
X-2392Y8390D01*
X-2423Y8391D01*
X-2442Y8398D01*
X-2258Y8670D02*
X-2111Y8521D01*
X-2131Y8729D01*
X-2096Y8854D02*
X-1930Y8931D01*
X-1972Y8788D01*
X-1934Y8806D01*
X-1902Y8805D01*
X-1884Y8798D01*
X-1859Y8778D01*
X-1829Y8715D01*
X-1830Y8683D01*
X-1837Y8665D01*
X-1857Y8640D01*
X-1933Y8604D01*
X-1964Y8605D01*
X-1983Y8612D01*
G54D12*
X-2165Y1441D02*
X-2165Y1047D01*
X-2305Y1666D02*
X-2446Y1244D01*
X-2080Y1244D01*
X-1884Y1582D02*
X-1856Y1610D01*
X-1799Y1638D01*
X-1659Y1638D01*
X-1602Y1610D01*
X-1574Y1582D01*
X-1546Y1525D01*
X-1546Y1469D01*
X-1574Y1385D01*
X-1912Y1047D01*
X-1546Y1047D01*
X-1293Y1104D02*
X-1265Y1075D01*
X-1293Y1047D01*
X-1321Y1075D01*
X-1293Y1104D01*
X-1293Y1047D01*
X-1040Y1582D02*
X-1012Y1610D01*
X-956Y1638D01*
X-815Y1638D01*
X-759Y1610D01*
X-731Y1582D01*
X-703Y1525D01*
X-703Y1469D01*
X-731Y1385D01*
X-1068Y1047D01*
X-703Y1047D01*
X-337Y1638D02*
X-281Y1638D01*
X-224Y1610D01*
X-196Y1582D01*
X-168Y1525D01*
X-140Y1413D01*
X-140Y1272D01*
X-168Y1160D01*
X-196Y1104D01*
X-224Y1075D01*
X-281Y1047D01*
X-337Y1047D01*
X-393Y1075D01*
X-421Y1104D01*
X-449Y1160D01*
X-478Y1272D01*
X-478Y1413D01*
X-449Y1525D01*
X-421Y1582D01*
X-393Y1610D01*
X-337Y1638D01*
X224Y1638D02*
X281Y1638D01*
X337Y1610D01*
X365Y1582D01*
X393Y1525D01*
X421Y1413D01*
X421Y1272D01*
X393Y1160D01*
X365Y1104D01*
X337Y1075D01*
X281Y1047D01*
X224Y1047D01*
X168Y1075D01*
X140Y1104D01*
X112Y1160D01*
X84Y1272D01*
X84Y1413D01*
X112Y1525D01*
X140Y1582D01*
X168Y1610D01*
X224Y1638D01*
X1124Y1047D02*
X1124Y1441D01*
X1124Y1385D02*
X1152Y1413D01*
X1209Y1441D01*
X1293Y1441D01*
X1349Y1413D01*
X1377Y1357D01*
X1377Y1047D01*
X1377Y1357D02*
X1406Y1413D01*
X1462Y1441D01*
X1546Y1441D01*
X1602Y1413D01*
X1631Y1357D01*
X1631Y1047D01*
X1912Y1047D02*
X1912Y1441D01*
X1912Y1385D02*
X1940Y1413D01*
X1996Y1441D01*
X2080Y1441D01*
X2137Y1413D01*
X2165Y1357D01*
X2165Y1047D01*
X2165Y1357D02*
X2193Y1413D01*
X2249Y1441D01*
X2334Y1441D01*
X2390Y1413D01*
X2418Y1357D01*
X2418Y1047D01*
X-8307Y783D02*
X8307Y783D01*
X-8307Y0D02*
X-8307Y1846D01*
X8307Y0D02*
X8307Y1846D01*
X8307Y783D02*
X7863Y552D01*
X8307Y783D02*
X7863Y1014D01*
X-8307Y783D02*
X-7863Y552D01*
X-8307Y783D02*
X-7863Y1014D01*
X-2165Y-12806D02*
X-2277Y-12806D01*
X-2334Y-12834D01*
X-2362Y-12862D01*
X-2418Y-12947D01*
X-2446Y-13059D01*
X-2446Y-13284D01*
X-2418Y-13340D01*
X-2390Y-13368D01*
X-2334Y-13397D01*
X-2221Y-13397D01*
X-2165Y-13368D01*
X-2137Y-13340D01*
X-2109Y-13284D01*
X-2109Y-13143D01*
X-2137Y-13087D01*
X-2165Y-13059D01*
X-2221Y-13031D01*
X-2334Y-13031D01*
X-2390Y-13059D01*
X-2418Y-13087D01*
X-2446Y-13143D01*
X-1546Y-13397D02*
X-1884Y-13397D01*
X-1715Y-13397D02*
X-1715Y-12806D01*
X-1771Y-12890D01*
X-1827Y-12947D01*
X-1884Y-12975D01*
X-1293Y-13340D02*
X-1265Y-13368D01*
X-1293Y-13397D01*
X-1321Y-13368D01*
X-1293Y-13340D01*
X-1293Y-13397D01*
X-899Y-12806D02*
X-843Y-12806D01*
X-787Y-12834D01*
X-759Y-12862D01*
X-731Y-12919D01*
X-703Y-13031D01*
X-703Y-13172D01*
X-731Y-13284D01*
X-759Y-13340D01*
X-787Y-13368D01*
X-843Y-13397D01*
X-899Y-13397D01*
X-956Y-13368D01*
X-984Y-13340D01*
X-1012Y-13284D01*
X-1040Y-13172D01*
X-1040Y-13031D01*
X-1012Y-12919D01*
X-984Y-12862D01*
X-956Y-12834D01*
X-899Y-12806D01*
X-337Y-12806D02*
X-281Y-12806D01*
X-224Y-12834D01*
X-196Y-12862D01*
X-168Y-12919D01*
X-140Y-13031D01*
X-140Y-13172D01*
X-168Y-13284D01*
X-196Y-13340D01*
X-224Y-13368D01*
X-281Y-13397D01*
X-337Y-13397D01*
X-393Y-13368D01*
X-421Y-13340D01*
X-449Y-13284D01*
X-478Y-13172D01*
X-478Y-13031D01*
X-449Y-12919D01*
X-421Y-12862D01*
X-393Y-12834D01*
X-337Y-12806D01*
X224Y-12806D02*
X281Y-12806D01*
X337Y-12834D01*
X365Y-12862D01*
X393Y-12919D01*
X421Y-13031D01*
X421Y-13172D01*
X393Y-13284D01*
X365Y-13340D01*
X337Y-13368D01*
X281Y-13397D01*
X224Y-13397D01*
X168Y-13368D01*
X140Y-13340D01*
X112Y-13284D01*
X84Y-13172D01*
X84Y-13031D01*
X112Y-12919D01*
X140Y-12862D01*
X168Y-12834D01*
X224Y-12806D01*
X1124Y-13397D02*
X1124Y-13003D01*
X1124Y-13059D02*
X1152Y-13031D01*
X1209Y-13003D01*
X1293Y-13003D01*
X1349Y-13031D01*
X1377Y-13087D01*
X1377Y-13397D01*
X1377Y-13087D02*
X1406Y-13031D01*
X1462Y-13003D01*
X1546Y-13003D01*
X1602Y-13031D01*
X1631Y-13087D01*
X1631Y-13397D01*
X1912Y-13397D02*
X1912Y-13003D01*
X1912Y-13059D02*
X1940Y-13031D01*
X1996Y-13003D01*
X2080Y-13003D01*
X2137Y-13031D01*
X2165Y-13087D01*
X2165Y-13397D01*
X2165Y-13087D02*
X2193Y-13031D01*
X2249Y-13003D01*
X2334Y-13003D01*
X2390Y-13031D01*
X2418Y-13087D01*
X2418Y-13397D01*
X12007Y-12598D02*
X-12007Y-12598D01*
X12007Y0D02*
X12007Y-13661D01*
X-12007Y0D02*
X-12007Y-13661D01*
X-12007Y-12598D02*
X-11564Y-12367D01*
X-12007Y-12598D02*
X-11564Y-12829D01*
X12007Y-12598D02*
X11564Y-12367D01*
X12007Y-12598D02*
X11564Y-12829D01*
G54D10*
X-503Y8456D02*
X-503Y9452D01*
G54D13*
X1500Y9456D02*
X1500Y8456D01*
X1500Y8456D02*
X-1500Y8456D01*
X-1500Y8456D02*
X-1500Y9456D01*
X-1500Y9456D02*
X1500Y9456D01*
X500Y8456D02*
X500Y9456D01*
G54D14*
X1633Y11342D02*
X1633Y11617D01*
X1633Y10948D02*
X1633Y10673D01*
X1121Y11342D02*
X1121Y11617D01*
X1121Y10673D02*
X1121Y10948D01*
X1127Y11617D02*
X1627Y11617D01*
X1627Y10673D02*
X1127Y10673D01*
X7086Y9006D02*
X7223Y9244D01*
X6889Y8664D02*
X6751Y8426D01*
X6642Y9262D02*
X6780Y9500D01*
X6308Y8682D02*
X6445Y8920D01*
X6785Y9497D02*
X7218Y9247D01*
X6746Y8429D02*
X6313Y8679D01*
X9175Y6865D02*
X9370Y7059D01*
X8897Y6586D02*
X8702Y6392D01*
X8813Y7227D02*
X9008Y7421D01*
X8340Y6754D02*
X8535Y6948D01*
X9012Y7417D02*
X9366Y7063D01*
X8698Y6396D02*
X8344Y6749D01*
X10639Y4256D02*
X10878Y4393D01*
X10298Y4059D02*
X10060Y3921D01*
X10383Y4699D02*
X10622Y4837D01*
X9804Y4365D02*
X10042Y4502D01*
X10625Y4831D02*
X10875Y4398D01*
X10057Y3926D02*
X9807Y4359D01*
X11378Y1357D02*
X11644Y1428D01*
X10998Y1255D02*
X10732Y1184D01*
X11246Y1851D02*
X11512Y1923D01*
X10600Y1678D02*
X10865Y1749D01*
X11513Y1917D02*
X11643Y1434D01*
X10731Y1190D02*
X10601Y1673D01*
X11342Y-1633D02*
X11617Y-1633D01*
X10948Y-1633D02*
X10673Y-1633D01*
X11342Y-1121D02*
X11617Y-1121D01*
X10673Y-1121D02*
X10948Y-1121D01*
X11617Y-1127D02*
X11617Y-1627D01*
X10673Y-1627D02*
X10673Y-1127D01*
X10533Y-4514D02*
X10798Y-4585D01*
X10152Y-4412D02*
X9886Y-4340D01*
X10665Y-4019D02*
X10931Y-4090D01*
X10019Y-3846D02*
X10285Y-3917D01*
X10929Y-4096D02*
X10800Y-4579D01*
X9888Y-4335D02*
X10017Y-3852D01*
X9005Y-7086D02*
X9244Y-7223D01*
X8664Y-6889D02*
X8426Y-6751D01*
X9261Y-6642D02*
X9500Y-6780D01*
X8682Y-6308D02*
X8920Y-6445D01*
X9497Y-6785D02*
X9247Y-7218D01*
X8429Y-6746D02*
X8679Y-6313D01*
X6864Y-9175D02*
X7059Y-9370D01*
X6586Y-8897D02*
X6391Y-8702D01*
X7227Y-8813D02*
X7421Y-9008D01*
X6753Y-8340D02*
X6948Y-8535D01*
X7417Y-9012D02*
X7063Y-9366D01*
X6396Y-8698D02*
X6749Y-8344D01*
X4256Y-10639D02*
X4393Y-10878D01*
X4059Y-10298D02*
X3921Y-10060D01*
X4699Y-10383D02*
X4837Y-10622D01*
X4365Y-9804D02*
X4502Y-10042D01*
X4832Y-10625D02*
X4399Y-10875D01*
X3927Y-10057D02*
X4360Y-9807D01*
X1357Y-11378D02*
X1428Y-11644D01*
X1255Y-10998D02*
X1184Y-10732D01*
X1851Y-11246D02*
X1922Y-11512D01*
X1678Y-10600D02*
X1749Y-10865D01*
X1917Y-11513D02*
X1434Y-11643D01*
X1189Y-10731D02*
X1672Y-10601D01*
X-1633Y-11342D02*
X-1633Y-11617D01*
X-1633Y-10948D02*
X-1633Y-10673D01*
X-1121Y-11342D02*
X-1121Y-11617D01*
X-1121Y-10673D02*
X-1121Y-10948D01*
X-1127Y-11617D02*
X-1627Y-11617D01*
X-1627Y-10673D02*
X-1127Y-10673D01*
X-4514Y-10533D02*
X-4585Y-10798D01*
X-4412Y-10152D02*
X-4340Y-9886D01*
X-4019Y-10665D02*
X-4090Y-10931D01*
X-3846Y-10019D02*
X-3917Y-10285D01*
X-4096Y-10929D02*
X-4579Y-10800D01*
X-4335Y-9888D02*
X-3852Y-10017D01*
X-7086Y-9005D02*
X-7223Y-9244D01*
X-6889Y-8664D02*
X-6751Y-8426D01*
X-6642Y-9261D02*
X-6780Y-9500D01*
X-6308Y-8682D02*
X-6445Y-8920D01*
X-6785Y-9497D02*
X-7218Y-9247D01*
X-6746Y-8429D02*
X-6313Y-8679D01*
X-9175Y-6864D02*
X-9370Y-7059D01*
X-8897Y-6586D02*
X-8702Y-6391D01*
X-8813Y-7227D02*
X-9008Y-7421D01*
X-8340Y-6753D02*
X-8535Y-6948D01*
X-9012Y-7417D02*
X-9366Y-7063D01*
X-8698Y-6396D02*
X-8344Y-6749D01*
X-10639Y-4256D02*
X-10878Y-4393D01*
X-10298Y-4059D02*
X-10060Y-3921D01*
X-10383Y-4699D02*
X-10622Y-4837D01*
X-9804Y-4365D02*
X-10042Y-4502D01*
X-10625Y-4832D02*
X-10875Y-4399D01*
X-10057Y-3927D02*
X-9807Y-4360D01*
X-11378Y-1357D02*
X-11644Y-1428D01*
X-10998Y-1255D02*
X-10732Y-1184D01*
X-11246Y-1851D02*
X-11512Y-1922D01*
X-10600Y-1678D02*
X-10865Y-1749D01*
X-11513Y-1917D02*
X-11643Y-1434D01*
X-10731Y-1189D02*
X-10601Y-1672D01*
X-11342Y1633D02*
X-11617Y1633D01*
X-10948Y1633D02*
X-10673Y1633D01*
X-11342Y1121D02*
X-11617Y1121D01*
X-10673Y1121D02*
X-10948Y1121D01*
X-11617Y1127D02*
X-11617Y1627D01*
X-10673Y1627D02*
X-10673Y1127D01*
X-10533Y4513D02*
X-10798Y4585D01*
X-10152Y4411D02*
X-9886Y4340D01*
X-10665Y4019D02*
X-10931Y4090D01*
X-10019Y3846D02*
X-10285Y3917D01*
X-10929Y4096D02*
X-10800Y4579D01*
X-9888Y4335D02*
X-10017Y3852D01*
X-9005Y7086D02*
X-9244Y7223D01*
X-8664Y6889D02*
X-8426Y6751D01*
X-9261Y6642D02*
X-9500Y6780D01*
X-8682Y6308D02*
X-8920Y6445D01*
X-9497Y6785D02*
X-9247Y7218D01*
X-8429Y6746D02*
X-8679Y6313D01*
X-6864Y9175D02*
X-7059Y9370D01*
X-6586Y8897D02*
X-6391Y8702D01*
X-7227Y8813D02*
X-7421Y9008D01*
X-6753Y8340D02*
X-6948Y8535D01*
X-7417Y9012D02*
X-7063Y9366D01*
X-6396Y8698D02*
X-6749Y8345D01*
X-4256Y10640D02*
X-4393Y10878D01*
X-4059Y10298D02*
X-3921Y10060D01*
X-4699Y10384D02*
X-4837Y10622D01*
X-4365Y9804D02*
X-4502Y10042D01*
X-4832Y10625D02*
X-4399Y10875D01*
X-3927Y10057D02*
X-4360Y9807D01*
X-1357Y11379D02*
X-1428Y11644D01*
X-1255Y10998D02*
X-1184Y10732D01*
X-1851Y11246D02*
X-1922Y11512D01*
X-1678Y10600D02*
X-1749Y10865D01*
X-1917Y11513D02*
X-1434Y11643D01*
X-1189Y10731D02*
X-1672Y10601D01*
X4514Y10533D02*
X4585Y10798D01*
X4412Y10152D02*
X4340Y9887D01*
X4019Y10665D02*
X4090Y10931D01*
X3846Y10019D02*
X3917Y10285D01*
X4096Y10929D02*
X4579Y10800D01*
X4335Y9888D02*
X3852Y10018D01*
G54D10*
X984Y11318D02*
X688Y11614D01*
X-984Y9645D02*
X984Y9645D01*
X984Y9645D02*
X984Y11614D01*
X984Y11614D02*
X-984Y11614D01*
X-984Y11614D02*
X-984Y9645D01*
X3880Y10678D02*
X3671Y11040D01*
X1545Y9571D02*
X3447Y9062D01*
X3447Y9062D02*
X3956Y10963D01*
X3956Y10963D02*
X2055Y11473D01*
X2055Y11473D02*
X1545Y9571D01*
X6511Y9310D02*
X6403Y9713D01*
X3970Y8845D02*
X5675Y7861D01*
X5675Y7861D02*
X6659Y9566D01*
X6659Y9566D02*
X4954Y10550D01*
X4954Y10550D02*
X3970Y8845D01*
X8699Y7307D02*
X8699Y7725D01*
X6124Y7516D02*
X7516Y6124D01*
X7516Y6124D02*
X8908Y7516D01*
X8908Y7516D02*
X7516Y8908D01*
X7516Y8908D02*
X6124Y7516D01*
X10294Y4807D02*
X10402Y5210D01*
X7861Y5675D02*
X8845Y3970D01*
X8845Y3970D02*
X10550Y4954D01*
X10550Y4954D02*
X9566Y6659D01*
X9566Y6659D02*
X7861Y5675D01*
X11187Y1978D02*
X11396Y2340D01*
X9062Y3447D02*
X9571Y1545D01*
X9571Y1545D02*
X11473Y2055D01*
X11473Y2055D02*
X10963Y3956D01*
X10963Y3956D02*
X9062Y3447D01*
X11318Y-984D02*
X11614Y-688D01*
X9645Y984D02*
X9645Y-984D01*
X9645Y-984D02*
X11614Y-984D01*
X11614Y-984D02*
X11614Y984D01*
X11614Y984D02*
X9645Y984D01*
X10678Y-3880D02*
X11040Y-3671D01*
X9571Y-1545D02*
X9062Y-3447D01*
X9062Y-3447D02*
X10963Y-3956D01*
X10963Y-3956D02*
X11473Y-2055D01*
X11473Y-2055D02*
X9571Y-1545D01*
X9310Y-6511D02*
X9713Y-6403D01*
X8845Y-3970D02*
X7861Y-5675D01*
X7861Y-5675D02*
X9566Y-6659D01*
X9566Y-6659D02*
X10550Y-4954D01*
X10550Y-4954D02*
X8845Y-3970D01*
X7307Y-8699D02*
X7725Y-8699D01*
X7516Y-6124D02*
X6124Y-7516D01*
X6124Y-7516D02*
X7516Y-8908D01*
X7516Y-8908D02*
X8908Y-7516D01*
X8908Y-7516D02*
X7516Y-6124D01*
X4807Y-10294D02*
X5210Y-10402D01*
X5675Y-7861D02*
X3970Y-8845D01*
X3970Y-8845D02*
X4954Y-10550D01*
X4954Y-10550D02*
X6659Y-9566D01*
X6659Y-9566D02*
X5675Y-7861D01*
X1978Y-11187D02*
X2340Y-11396D01*
X3447Y-9062D02*
X1545Y-9571D01*
X1545Y-9571D02*
X2055Y-11473D01*
X2055Y-11473D02*
X3956Y-10963D01*
X3956Y-10963D02*
X3447Y-9062D01*
X-984Y-11318D02*
X-688Y-11614D01*
X984Y-9645D02*
X-984Y-9645D01*
X-984Y-9645D02*
X-984Y-11614D01*
X-984Y-11614D02*
X984Y-11614D01*
X984Y-11614D02*
X984Y-9645D01*
X-3880Y-10678D02*
X-3671Y-11040D01*
X-1545Y-9571D02*
X-3447Y-9062D01*
X-3447Y-9062D02*
X-3956Y-10963D01*
X-3956Y-10963D02*
X-2055Y-11473D01*
X-2055Y-11473D02*
X-1545Y-9571D01*
X-6511Y-9310D02*
X-6403Y-9713D01*
X-3970Y-8845D02*
X-5675Y-7861D01*
X-5675Y-7861D02*
X-6659Y-9566D01*
X-6659Y-9566D02*
X-4954Y-10550D01*
X-4954Y-10550D02*
X-3970Y-8845D01*
X-8699Y-7307D02*
X-8699Y-7725D01*
X-6124Y-7516D02*
X-7516Y-6124D01*
X-7516Y-6124D02*
X-8908Y-7516D01*
X-8908Y-7516D02*
X-7516Y-8908D01*
X-7516Y-8908D02*
X-6124Y-7516D01*
X-10294Y-4807D02*
X-10402Y-5210D01*
X-7861Y-5675D02*
X-8845Y-3970D01*
X-8845Y-3970D02*
X-10550Y-4954D01*
X-10550Y-4954D02*
X-9566Y-6659D01*
X-9566Y-6659D02*
X-7861Y-5675D01*
X-11187Y-1978D02*
X-11396Y-2340D01*
X-9062Y-3447D02*
X-9571Y-1545D01*
X-9571Y-1545D02*
X-11473Y-2055D01*
X-11473Y-2055D02*
X-10963Y-3956D01*
X-10963Y-3956D02*
X-9062Y-3447D01*
X-11318Y984D02*
X-11614Y688D01*
X-9645Y-984D02*
X-9645Y984D01*
X-9645Y984D02*
X-11614Y984D01*
X-11614Y984D02*
X-11614Y-984D01*
X-11614Y-984D02*
X-9645Y-984D01*
X-10678Y3880D02*
X-11040Y3671D01*
X-9571Y1545D02*
X-9062Y3447D01*
X-9062Y3447D02*
X-10963Y3956D01*
X-10963Y3956D02*
X-11473Y2055D01*
X-11473Y2055D02*
X-9571Y1545D01*
X-9310Y6511D02*
X-9713Y6403D01*
X-8845Y3970D02*
X-7861Y5675D01*
X-7861Y5675D02*
X-9566Y6659D01*
X-9566Y6659D02*
X-10550Y4954D01*
X-10550Y4954D02*
X-8845Y3970D01*
X-7307Y8699D02*
X-7725Y8699D01*
X-7516Y6124D02*
X-6124Y7516D01*
X-6124Y7516D02*
X-7516Y8908D01*
X-7516Y8908D02*
X-8908Y7516D01*
X-8908Y7516D02*
X-7516Y6124D01*
X-4807Y10294D02*
X-5210Y10402D01*
X-5675Y7861D02*
X-3970Y8845D01*
X-3970Y8845D02*
X-4954Y10550D01*
X-4954Y10550D02*
X-6659Y9566D01*
X-6659Y9566D02*
X-5675Y7861D01*
X-1978Y11187D02*
X-2340Y11396D01*
X-3447Y9062D02*
X-1545Y9571D01*
X-1545Y9571D02*
X-2055Y11473D01*
X-2055Y11473D02*
X-3956Y10963D01*
X-3956Y10963D02*
X-3447Y9062D01*
G54D15*
X1354Y10781D02*
X1348Y10774D01*
X1328Y10768D01*
X1315Y10768D01*
X1295Y10774D01*
X1282Y10788D01*
X1276Y10801D01*
X1269Y10827D01*
X1269Y10847D01*
X1276Y10873D01*
X1282Y10886D01*
X1295Y10899D01*
X1315Y10906D01*
X1328Y10906D01*
X1348Y10899D01*
X1354Y10893D01*
X1486Y10768D02*
X1407Y10768D01*
X1446Y10768D02*
X1446Y10906D01*
X1433Y10886D01*
X1420Y10873D01*
X1407Y10866D01*
X1164Y11398D02*
X1085Y11398D01*
X1125Y11398D02*
X1125Y11536D01*
X1112Y11516D01*
X1099Y11503D01*
X1085Y11496D01*
X1250Y11536D02*
X1263Y11536D01*
X1276Y11529D01*
X1282Y11522D01*
X1289Y11509D01*
X1295Y11483D01*
X1295Y11450D01*
X1289Y11424D01*
X1282Y11411D01*
X1276Y11404D01*
X1263Y11398D01*
X1250Y11398D01*
X1236Y11404D01*
X1230Y11411D01*
X1223Y11424D01*
X1217Y11450D01*
X1217Y11483D01*
X1223Y11509D01*
X1230Y11522D01*
X1236Y11529D01*
X1250Y11536D01*
X1381Y11536D02*
X1394Y11536D01*
X1407Y11529D01*
X1414Y11522D01*
X1420Y11509D01*
X1427Y11483D01*
X1427Y11450D01*
X1420Y11424D01*
X1414Y11411D01*
X1407Y11404D01*
X1394Y11398D01*
X1381Y11398D01*
X1368Y11404D01*
X1361Y11411D01*
X1354Y11424D01*
X1348Y11450D01*
X1348Y11483D01*
X1354Y11509D01*
X1361Y11522D01*
X1368Y11529D01*
X1381Y11536D01*
X1486Y11490D02*
X1486Y11398D01*
X1486Y11477D02*
X1492Y11483D01*
X1505Y11490D01*
X1525Y11490D01*
X1538Y11483D01*
X1545Y11470D01*
X1545Y11398D01*
X1656Y11470D02*
X1610Y11470D01*
X1610Y11398D02*
X1610Y11536D01*
X1676Y11536D01*
X6564Y8659D02*
X6555Y8657D01*
X6534Y8661D01*
X6523Y8667D01*
X6509Y8683D01*
X6504Y8701D01*
X6505Y8715D01*
X6513Y8741D01*
X6523Y8759D01*
X6541Y8778D01*
X6554Y8786D01*
X6572Y8791D01*
X6592Y8787D01*
X6603Y8780D01*
X6617Y8765D01*
X6619Y8756D01*
X6666Y8744D02*
X6740Y8701D01*
X6674Y8679D01*
X6691Y8669D01*
X6699Y8657D01*
X6701Y8648D01*
X6700Y8633D01*
X6684Y8605D01*
X6672Y8597D01*
X6663Y8594D01*
X6648Y8595D01*
X6614Y8615D01*
X6606Y8627D01*
X6603Y8636D01*
X6707Y9288D02*
X6639Y9328D01*
X6673Y9308D02*
X6742Y9427D01*
X6721Y9417D01*
X6703Y9412D01*
X6688Y9413D01*
X6850Y9365D02*
X6861Y9358D01*
X6869Y9346D01*
X6872Y9337D01*
X6871Y9323D01*
X6864Y9297D01*
X6847Y9268D01*
X6828Y9249D01*
X6816Y9241D01*
X6807Y9238D01*
X6793Y9239D01*
X6781Y9246D01*
X6773Y9258D01*
X6771Y9267D01*
X6772Y9282D01*
X6779Y9308D01*
X6795Y9336D01*
X6814Y9355D01*
X6826Y9364D01*
X6835Y9366D01*
X6850Y9365D01*
X6964Y9299D02*
X6975Y9293D01*
X6983Y9281D01*
X6986Y9272D01*
X6985Y9257D01*
X6977Y9231D01*
X6961Y9203D01*
X6942Y9183D01*
X6930Y9175D01*
X6921Y9173D01*
X6906Y9174D01*
X6895Y9180D01*
X6887Y9192D01*
X6884Y9201D01*
X6885Y9216D01*
X6893Y9242D01*
X6909Y9270D01*
X6928Y9290D01*
X6940Y9298D01*
X6949Y9300D01*
X6964Y9299D01*
X7032Y9207D02*
X6986Y9128D01*
X7025Y9196D02*
X7034Y9198D01*
X7049Y9197D01*
X7066Y9187D01*
X7074Y9175D01*
X7073Y9161D01*
X7037Y9098D01*
X7170Y9105D02*
X7130Y9128D01*
X7094Y9065D02*
X7163Y9185D01*
X7219Y9152D01*
X8581Y6665D02*
X8572Y6665D01*
X8553Y6674D01*
X8544Y6684D01*
X8535Y6702D01*
X8535Y6721D01*
X8540Y6735D01*
X8553Y6758D01*
X8567Y6772D01*
X8591Y6786D01*
X8604Y6790D01*
X8623Y6790D01*
X8642Y6781D01*
X8651Y6772D01*
X8660Y6753D01*
X8660Y6744D01*
X8720Y6637D02*
X8656Y6572D01*
X8734Y6698D02*
X8642Y6651D01*
X8702Y6591D01*
X8883Y7236D02*
X8827Y7291D01*
X8855Y7264D02*
X8952Y7361D01*
X8929Y7356D01*
X8911Y7356D01*
X8897Y7361D01*
X9041Y7273D02*
X9050Y7264D01*
X9055Y7250D01*
X9055Y7240D01*
X9050Y7226D01*
X9036Y7203D01*
X9013Y7180D01*
X8990Y7166D01*
X8976Y7162D01*
X8966Y7162D01*
X8952Y7166D01*
X8943Y7175D01*
X8939Y7189D01*
X8939Y7199D01*
X8943Y7213D01*
X8957Y7236D01*
X8980Y7259D01*
X9003Y7273D01*
X9017Y7277D01*
X9027Y7277D01*
X9041Y7273D01*
X9133Y7180D02*
X9143Y7171D01*
X9147Y7157D01*
X9147Y7148D01*
X9143Y7134D01*
X9129Y7110D01*
X9106Y7087D01*
X9082Y7073D01*
X9068Y7069D01*
X9059Y7069D01*
X9045Y7073D01*
X9036Y7083D01*
X9031Y7097D01*
X9031Y7106D01*
X9036Y7120D01*
X9050Y7143D01*
X9073Y7166D01*
X9096Y7180D01*
X9110Y7185D01*
X9119Y7185D01*
X9133Y7180D01*
X9175Y7073D02*
X9110Y7008D01*
X9166Y7064D02*
X9175Y7064D01*
X9189Y7059D01*
X9203Y7046D01*
X9208Y7032D01*
X9203Y7018D01*
X9152Y6967D01*
X9282Y6939D02*
X9249Y6971D01*
X9198Y6920D02*
X9296Y7018D01*
X9342Y6971D01*
X10014Y4217D02*
X10005Y4219D01*
X9989Y4233D01*
X9983Y4244D01*
X9979Y4265D01*
X9984Y4283D01*
X9992Y4295D01*
X10011Y4314D01*
X10028Y4323D01*
X10054Y4331D01*
X10069Y4332D01*
X10087Y4327D01*
X10102Y4313D01*
X10109Y4302D01*
X10113Y4282D01*
X10111Y4273D01*
X10184Y4171D02*
X10151Y4228D01*
X10091Y4201D01*
X10100Y4198D01*
X10113Y4190D01*
X10129Y4162D01*
X10130Y4147D01*
X10127Y4138D01*
X10119Y4126D01*
X10091Y4110D01*
X10076Y4109D01*
X10067Y4111D01*
X10055Y4119D01*
X10039Y4148D01*
X10038Y4162D01*
X10040Y4171D01*
X10453Y4690D02*
X10414Y4758D01*
X10433Y4724D02*
X10553Y4793D01*
X10529Y4795D01*
X10511Y4799D01*
X10499Y4807D01*
X10615Y4685D02*
X10622Y4674D01*
X10622Y4659D01*
X10620Y4650D01*
X10612Y4638D01*
X10592Y4619D01*
X10564Y4603D01*
X10538Y4595D01*
X10523Y4594D01*
X10514Y4597D01*
X10502Y4605D01*
X10496Y4616D01*
X10495Y4631D01*
X10497Y4640D01*
X10505Y4652D01*
X10525Y4671D01*
X10553Y4687D01*
X10579Y4695D01*
X10594Y4695D01*
X10603Y4693D01*
X10615Y4685D01*
X10681Y4571D02*
X10687Y4560D01*
X10688Y4545D01*
X10686Y4536D01*
X10678Y4524D01*
X10658Y4505D01*
X10630Y4489D01*
X10604Y4481D01*
X10589Y4481D01*
X10580Y4483D01*
X10568Y4491D01*
X10561Y4502D01*
X10560Y4517D01*
X10563Y4526D01*
X10571Y4538D01*
X10590Y4557D01*
X10619Y4574D01*
X10645Y4581D01*
X10659Y4582D01*
X10668Y4579D01*
X10681Y4571D01*
X10693Y4457D02*
X10614Y4412D01*
X10682Y4451D02*
X10691Y4449D01*
X10703Y4440D01*
X10713Y4423D01*
X10714Y4409D01*
X10706Y4396D01*
X10643Y4360D01*
X10762Y4300D02*
X10739Y4340D01*
X10676Y4304D02*
X10795Y4372D01*
X10828Y4316D01*
X10764Y1481D02*
X10756Y1486D01*
X10745Y1503D01*
X10741Y1516D01*
X10743Y1536D01*
X10752Y1553D01*
X10763Y1562D01*
X10787Y1575D01*
X10806Y1581D01*
X10833Y1581D01*
X10847Y1578D01*
X10863Y1569D01*
X10874Y1551D01*
X10878Y1539D01*
X10877Y1518D01*
X10872Y1510D01*
X10915Y1399D02*
X10908Y1425D01*
X10899Y1436D01*
X10891Y1440D01*
X10868Y1448D01*
X10841Y1447D01*
X10790Y1434D01*
X10780Y1424D01*
X10775Y1416D01*
X10772Y1402D01*
X10779Y1376D01*
X10788Y1365D01*
X10797Y1361D01*
X10811Y1358D01*
X10843Y1366D01*
X10854Y1376D01*
X10858Y1384D01*
X10861Y1398D01*
X10854Y1424D01*
X10845Y1435D01*
X10837Y1439D01*
X10822Y1442D01*
X11311Y1825D02*
X11290Y1901D01*
X11301Y1863D02*
X11434Y1898D01*
X11411Y1906D01*
X11395Y1915D01*
X11385Y1926D01*
X11466Y1778D02*
X11469Y1765D01*
X11466Y1751D01*
X11462Y1743D01*
X11451Y1733D01*
X11427Y1720D01*
X11395Y1711D01*
X11368Y1711D01*
X11354Y1714D01*
X11346Y1719D01*
X11336Y1730D01*
X11333Y1742D01*
X11336Y1757D01*
X11340Y1765D01*
X11351Y1774D01*
X11375Y1787D01*
X11407Y1796D01*
X11434Y1796D01*
X11448Y1793D01*
X11456Y1789D01*
X11466Y1778D01*
X11500Y1651D02*
X11503Y1638D01*
X11500Y1624D01*
X11496Y1616D01*
X11485Y1606D01*
X11461Y1593D01*
X11429Y1585D01*
X11402Y1584D01*
X11388Y1587D01*
X11380Y1592D01*
X11370Y1603D01*
X11367Y1615D01*
X11370Y1630D01*
X11374Y1638D01*
X11385Y1648D01*
X11409Y1661D01*
X11441Y1669D01*
X11468Y1670D01*
X11482Y1667D01*
X11490Y1662D01*
X11500Y1651D01*
X11483Y1538D02*
X11394Y1514D01*
X11470Y1534D02*
X11478Y1530D01*
X11488Y1519D01*
X11493Y1500D01*
X11490Y1485D01*
X11479Y1476D01*
X11409Y1457D01*
X11508Y1368D02*
X11496Y1412D01*
X11426Y1394D02*
X11559Y1429D01*
X11576Y1366D01*
X10879Y-1400D02*
X10886Y-1407D01*
X10893Y-1427D01*
X10893Y-1440D01*
X10886Y-1459D01*
X10873Y-1473D01*
X10860Y-1479D01*
X10833Y-1486D01*
X10814Y-1486D01*
X10788Y-1479D01*
X10774Y-1473D01*
X10761Y-1459D01*
X10755Y-1440D01*
X10755Y-1427D01*
X10761Y-1407D01*
X10768Y-1400D01*
X10755Y-1354D02*
X10755Y-1263D01*
X10893Y-1322D01*
X11522Y-1591D02*
X11522Y-1669D01*
X11522Y-1630D02*
X11385Y-1630D01*
X11404Y-1643D01*
X11417Y-1656D01*
X11424Y-1669D01*
X11385Y-1505D02*
X11385Y-1492D01*
X11391Y-1479D01*
X11398Y-1473D01*
X11411Y-1466D01*
X11437Y-1459D01*
X11470Y-1459D01*
X11496Y-1466D01*
X11509Y-1473D01*
X11516Y-1479D01*
X11522Y-1492D01*
X11522Y-1505D01*
X11516Y-1519D01*
X11509Y-1525D01*
X11496Y-1532D01*
X11470Y-1538D01*
X11437Y-1538D01*
X11411Y-1532D01*
X11398Y-1525D01*
X11391Y-1519D01*
X11385Y-1505D01*
X11385Y-1374D02*
X11385Y-1361D01*
X11391Y-1348D01*
X11398Y-1341D01*
X11411Y-1335D01*
X11437Y-1328D01*
X11470Y-1328D01*
X11496Y-1335D01*
X11509Y-1341D01*
X11516Y-1348D01*
X11522Y-1361D01*
X11522Y-1374D01*
X11516Y-1387D01*
X11509Y-1394D01*
X11496Y-1400D01*
X11470Y-1407D01*
X11437Y-1407D01*
X11411Y-1400D01*
X11398Y-1394D01*
X11391Y-1387D01*
X11385Y-1374D01*
X11431Y-1269D02*
X11522Y-1269D01*
X11444Y-1269D02*
X11437Y-1263D01*
X11431Y-1250D01*
X11431Y-1230D01*
X11437Y-1217D01*
X11450Y-1210D01*
X11522Y-1210D01*
X11450Y-1099D02*
X11450Y-1145D01*
X11522Y-1145D02*
X11385Y-1145D01*
X11385Y-1079D01*
X10146Y-4169D02*
X10151Y-4177D01*
X10152Y-4197D01*
X10148Y-4210D01*
X10137Y-4227D01*
X10121Y-4237D01*
X10107Y-4240D01*
X10079Y-4239D01*
X10060Y-4234D01*
X10037Y-4221D01*
X10026Y-4211D01*
X10017Y-4195D01*
X10015Y-4174D01*
X10019Y-4162D01*
X10030Y-4144D01*
X10038Y-4140D01*
X10103Y-4076D02*
X10093Y-4087D01*
X10085Y-4091D01*
X10071Y-4094D01*
X10064Y-4092D01*
X10053Y-4083D01*
X10049Y-4075D01*
X10046Y-4060D01*
X10053Y-4035D01*
X10062Y-4024D01*
X10070Y-4019D01*
X10085Y-4016D01*
X10091Y-4018D01*
X10102Y-4028D01*
X10107Y-4036D01*
X10110Y-4050D01*
X10103Y-4076D01*
X10106Y-4090D01*
X10110Y-4098D01*
X10121Y-4108D01*
X10147Y-4115D01*
X10161Y-4112D01*
X10169Y-4107D01*
X10179Y-4096D01*
X10186Y-4071D01*
X10183Y-4056D01*
X10178Y-4048D01*
X10167Y-4038D01*
X10142Y-4032D01*
X10127Y-4035D01*
X10119Y-4039D01*
X10110Y-4050D01*
X10718Y-4519D02*
X10697Y-4595D01*
X10708Y-4557D02*
X10575Y-4521D01*
X10590Y-4539D01*
X10599Y-4555D01*
X10602Y-4569D01*
X10607Y-4401D02*
X10610Y-4388D01*
X10620Y-4377D01*
X10628Y-4373D01*
X10642Y-4370D01*
X10669Y-4370D01*
X10701Y-4379D01*
X10725Y-4392D01*
X10736Y-4401D01*
X10740Y-4409D01*
X10743Y-4424D01*
X10740Y-4436D01*
X10730Y-4447D01*
X10722Y-4452D01*
X10708Y-4455D01*
X10681Y-4455D01*
X10649Y-4446D01*
X10625Y-4433D01*
X10614Y-4423D01*
X10610Y-4415D01*
X10607Y-4401D01*
X10641Y-4274D02*
X10644Y-4261D01*
X10654Y-4250D01*
X10662Y-4246D01*
X10676Y-4243D01*
X10703Y-4243D01*
X10735Y-4252D01*
X10759Y-4265D01*
X10770Y-4275D01*
X10774Y-4283D01*
X10777Y-4297D01*
X10774Y-4310D01*
X10764Y-4321D01*
X10756Y-4325D01*
X10742Y-4328D01*
X10715Y-4328D01*
X10683Y-4319D01*
X10659Y-4306D01*
X10648Y-4296D01*
X10644Y-4288D01*
X10641Y-4274D01*
X10712Y-4185D02*
X10801Y-4208D01*
X10725Y-4188D02*
X10720Y-4180D01*
X10717Y-4166D01*
X10722Y-4147D01*
X10732Y-4136D01*
X10747Y-4133D01*
X10816Y-4151D01*
X10775Y-4025D02*
X10764Y-4069D01*
X10833Y-4088D02*
X10700Y-4052D01*
X10717Y-3989D01*
X8721Y-6653D02*
X8724Y-6662D01*
X8720Y-6682D01*
X8713Y-6693D01*
X8697Y-6707D01*
X8679Y-6712D01*
X8665Y-6711D01*
X8639Y-6704D01*
X8622Y-6694D01*
X8602Y-6675D01*
X8594Y-6663D01*
X8589Y-6645D01*
X8594Y-6624D01*
X8600Y-6613D01*
X8616Y-6599D01*
X8625Y-6597D01*
X8765Y-6602D02*
X8779Y-6580D01*
X8779Y-6565D01*
X8777Y-6556D01*
X8767Y-6535D01*
X8747Y-6516D01*
X8702Y-6490D01*
X8687Y-6489D01*
X8678Y-6491D01*
X8666Y-6499D01*
X8653Y-6522D01*
X8652Y-6537D01*
X8654Y-6546D01*
X8662Y-6558D01*
X8691Y-6574D01*
X8705Y-6575D01*
X8714Y-6573D01*
X8727Y-6565D01*
X8740Y-6542D01*
X8741Y-6527D01*
X8738Y-6518D01*
X8730Y-6506D01*
X9183Y-7139D02*
X9144Y-7207D01*
X9163Y-7173D02*
X9044Y-7104D01*
X9054Y-7125D01*
X9059Y-7143D01*
X9058Y-7158D01*
X9106Y-6996D02*
X9113Y-6985D01*
X9125Y-6977D01*
X9134Y-6974D01*
X9149Y-6975D01*
X9175Y-6983D01*
X9203Y-6999D01*
X9223Y-7018D01*
X9231Y-7030D01*
X9233Y-7039D01*
X9232Y-7054D01*
X9226Y-7065D01*
X9213Y-7073D01*
X9204Y-7076D01*
X9190Y-7075D01*
X9164Y-7067D01*
X9135Y-7051D01*
X9116Y-7032D01*
X9108Y-7020D01*
X9105Y-7011D01*
X9106Y-6996D01*
X9172Y-6883D02*
X9179Y-6871D01*
X9191Y-6863D01*
X9200Y-6861D01*
X9214Y-6862D01*
X9240Y-6869D01*
X9269Y-6885D01*
X9288Y-6904D01*
X9296Y-6916D01*
X9299Y-6925D01*
X9298Y-6940D01*
X9291Y-6951D01*
X9279Y-6960D01*
X9270Y-6962D01*
X9255Y-6961D01*
X9229Y-6954D01*
X9201Y-6937D01*
X9182Y-6918D01*
X9173Y-6906D01*
X9171Y-6897D01*
X9172Y-6883D01*
X9264Y-6815D02*
X9344Y-6861D01*
X9276Y-6821D02*
X9273Y-6812D01*
X9274Y-6798D01*
X9284Y-6781D01*
X9296Y-6772D01*
X9311Y-6773D01*
X9373Y-6809D01*
X9367Y-6677D02*
X9344Y-6716D01*
X9406Y-6753D02*
X9287Y-6684D01*
X9320Y-6627D01*
X6656Y-8730D02*
X6656Y-8739D01*
X6646Y-8758D01*
X6637Y-8767D01*
X6619Y-8776D01*
X6600Y-8776D01*
X6586Y-8771D01*
X6563Y-8758D01*
X6549Y-8744D01*
X6535Y-8720D01*
X6530Y-8707D01*
X6530Y-8688D01*
X6540Y-8669D01*
X6549Y-8660D01*
X6567Y-8651D01*
X6577Y-8651D01*
X6758Y-8646D02*
X6702Y-8702D01*
X6730Y-8674D02*
X6632Y-8577D01*
X6637Y-8600D01*
X6637Y-8618D01*
X6632Y-8632D01*
X6721Y-8488D02*
X6730Y-8479D01*
X6744Y-8475D01*
X6753Y-8475D01*
X6767Y-8479D01*
X6790Y-8493D01*
X6813Y-8516D01*
X6827Y-8540D01*
X6832Y-8553D01*
X6832Y-8563D01*
X6827Y-8577D01*
X6818Y-8586D01*
X6804Y-8591D01*
X6795Y-8591D01*
X6781Y-8586D01*
X6758Y-8572D01*
X6735Y-8549D01*
X6721Y-8526D01*
X6716Y-8512D01*
X6716Y-8502D01*
X6721Y-8488D01*
X7022Y-9273D02*
X6967Y-9328D01*
X6994Y-9300D02*
X6897Y-9203D01*
X6902Y-9226D01*
X6902Y-9245D01*
X6897Y-9259D01*
X6985Y-9115D02*
X6994Y-9106D01*
X7008Y-9101D01*
X7018Y-9101D01*
X7031Y-9106D01*
X7055Y-9119D01*
X7078Y-9143D01*
X7092Y-9166D01*
X7096Y-9180D01*
X7096Y-9189D01*
X7092Y-9203D01*
X7083Y-9212D01*
X7069Y-9217D01*
X7059Y-9217D01*
X7045Y-9212D01*
X7022Y-9198D01*
X6999Y-9175D01*
X6985Y-9152D01*
X6980Y-9138D01*
X6980Y-9129D01*
X6985Y-9115D01*
X7078Y-9022D02*
X7087Y-9013D01*
X7101Y-9008D01*
X7110Y-9008D01*
X7124Y-9013D01*
X7147Y-9027D01*
X7171Y-9050D01*
X7185Y-9073D01*
X7189Y-9087D01*
X7189Y-9096D01*
X7185Y-9110D01*
X7175Y-9119D01*
X7161Y-9124D01*
X7152Y-9124D01*
X7138Y-9119D01*
X7115Y-9106D01*
X7092Y-9082D01*
X7078Y-9059D01*
X7073Y-9045D01*
X7073Y-9036D01*
X7078Y-9022D01*
X7185Y-8980D02*
X7250Y-9045D01*
X7194Y-8990D02*
X7194Y-8980D01*
X7199Y-8966D01*
X7212Y-8952D01*
X7226Y-8948D01*
X7240Y-8952D01*
X7291Y-9003D01*
X7319Y-8874D02*
X7287Y-8906D01*
X7338Y-8957D02*
X7240Y-8860D01*
X7287Y-8813D01*
X4169Y-10155D02*
X4167Y-10164D01*
X4153Y-10179D01*
X4142Y-10186D01*
X4122Y-10190D01*
X4104Y-10185D01*
X4091Y-10177D01*
X4073Y-10158D01*
X4063Y-10141D01*
X4055Y-10115D01*
X4054Y-10100D01*
X4059Y-10082D01*
X4073Y-10067D01*
X4084Y-10060D01*
X4105Y-10056D01*
X4114Y-10058D01*
X4290Y-10101D02*
X4221Y-10140D01*
X4256Y-10120D02*
X4187Y-10001D01*
X4185Y-10025D01*
X4180Y-10043D01*
X4172Y-10055D01*
X4403Y-10035D02*
X4335Y-10074D01*
X4369Y-10055D02*
X4300Y-9935D01*
X4299Y-9959D01*
X4294Y-9977D01*
X4286Y-9989D01*
X4383Y-10774D02*
X4315Y-10814D01*
X4349Y-10794D02*
X4280Y-10675D01*
X4278Y-10698D01*
X4274Y-10716D01*
X4266Y-10728D01*
X4388Y-10612D02*
X4399Y-10606D01*
X4414Y-10605D01*
X4423Y-10607D01*
X4435Y-10615D01*
X4454Y-10635D01*
X4470Y-10663D01*
X4478Y-10689D01*
X4479Y-10704D01*
X4476Y-10713D01*
X4468Y-10725D01*
X4457Y-10732D01*
X4442Y-10732D01*
X4433Y-10730D01*
X4421Y-10722D01*
X4402Y-10703D01*
X4386Y-10674D01*
X4378Y-10648D01*
X4377Y-10633D01*
X4380Y-10624D01*
X4388Y-10612D01*
X4502Y-10547D02*
X4513Y-10540D01*
X4528Y-10539D01*
X4537Y-10542D01*
X4549Y-10550D01*
X4568Y-10569D01*
X4584Y-10598D01*
X4591Y-10624D01*
X4592Y-10638D01*
X4590Y-10647D01*
X4582Y-10659D01*
X4571Y-10666D01*
X4556Y-10667D01*
X4547Y-10664D01*
X4535Y-10656D01*
X4516Y-10637D01*
X4499Y-10608D01*
X4492Y-10582D01*
X4491Y-10568D01*
X4494Y-10559D01*
X4502Y-10547D01*
X4616Y-10534D02*
X4661Y-10613D01*
X4622Y-10545D02*
X4624Y-10536D01*
X4633Y-10524D01*
X4650Y-10514D01*
X4664Y-10513D01*
X4676Y-10521D01*
X4713Y-10584D01*
X4773Y-10466D02*
X4733Y-10489D01*
X4769Y-10551D02*
X4701Y-10432D01*
X4757Y-10399D01*
X1399Y-10888D02*
X1394Y-10896D01*
X1377Y-10908D01*
X1364Y-10911D01*
X1343Y-10910D01*
X1327Y-10901D01*
X1318Y-10890D01*
X1304Y-10866D01*
X1299Y-10847D01*
X1299Y-10820D01*
X1302Y-10805D01*
X1311Y-10789D01*
X1328Y-10778D01*
X1341Y-10775D01*
X1362Y-10776D01*
X1370Y-10780D01*
X1529Y-10867D02*
X1453Y-10887D01*
X1491Y-10877D02*
X1455Y-10744D01*
X1448Y-10766D01*
X1438Y-10782D01*
X1427Y-10792D01*
X1547Y-10733D02*
X1552Y-10725D01*
X1563Y-10715D01*
X1595Y-10707D01*
X1609Y-10710D01*
X1617Y-10714D01*
X1627Y-10725D01*
X1630Y-10738D01*
X1629Y-10759D01*
X1573Y-10855D01*
X1656Y-10833D01*
X1445Y-11542D02*
X1369Y-11562D01*
X1407Y-11552D02*
X1371Y-11419D01*
X1363Y-11441D01*
X1354Y-11457D01*
X1343Y-11467D01*
X1491Y-11386D02*
X1504Y-11383D01*
X1518Y-11386D01*
X1527Y-11391D01*
X1536Y-11402D01*
X1549Y-11425D01*
X1558Y-11457D01*
X1558Y-11484D01*
X1555Y-11498D01*
X1551Y-11506D01*
X1540Y-11516D01*
X1527Y-11519D01*
X1513Y-11517D01*
X1505Y-11512D01*
X1495Y-11501D01*
X1482Y-11477D01*
X1473Y-11446D01*
X1473Y-11419D01*
X1476Y-11404D01*
X1480Y-11396D01*
X1491Y-11386D01*
X1618Y-11352D02*
X1631Y-11349D01*
X1645Y-11352D01*
X1653Y-11357D01*
X1663Y-11368D01*
X1676Y-11391D01*
X1685Y-11423D01*
X1685Y-11450D01*
X1682Y-11464D01*
X1678Y-11472D01*
X1667Y-11482D01*
X1654Y-11486D01*
X1639Y-11483D01*
X1631Y-11478D01*
X1622Y-11467D01*
X1609Y-11443D01*
X1600Y-11412D01*
X1600Y-11385D01*
X1603Y-11370D01*
X1607Y-11362D01*
X1618Y-11352D01*
X1731Y-11370D02*
X1755Y-11458D01*
X1735Y-11382D02*
X1740Y-11374D01*
X1751Y-11365D01*
X1770Y-11359D01*
X1784Y-11362D01*
X1794Y-11373D01*
X1812Y-11443D01*
X1901Y-11344D02*
X1857Y-11356D01*
X1876Y-11426D02*
X1840Y-11293D01*
X1903Y-11276D01*
X-1466Y-10879D02*
X-1473Y-10886D01*
X-1492Y-10893D01*
X-1505Y-10893D01*
X-1525Y-10886D01*
X-1538Y-10873D01*
X-1545Y-10860D01*
X-1551Y-10833D01*
X-1551Y-10814D01*
X-1545Y-10788D01*
X-1538Y-10774D01*
X-1525Y-10761D01*
X-1505Y-10755D01*
X-1492Y-10755D01*
X-1473Y-10761D01*
X-1466Y-10768D01*
X-1335Y-10893D02*
X-1414Y-10893D01*
X-1374Y-10893D02*
X-1374Y-10755D01*
X-1387Y-10774D01*
X-1400Y-10788D01*
X-1414Y-10794D01*
X-1289Y-10755D02*
X-1204Y-10755D01*
X-1250Y-10807D01*
X-1230Y-10807D01*
X-1217Y-10814D01*
X-1210Y-10820D01*
X-1204Y-10833D01*
X-1204Y-10866D01*
X-1210Y-10879D01*
X-1217Y-10886D01*
X-1230Y-10893D01*
X-1269Y-10893D01*
X-1282Y-10886D01*
X-1289Y-10879D01*
X-1591Y-11522D02*
X-1669Y-11522D01*
X-1630Y-11522D02*
X-1630Y-11385D01*
X-1643Y-11404D01*
X-1656Y-11417D01*
X-1669Y-11424D01*
X-1505Y-11385D02*
X-1492Y-11385D01*
X-1479Y-11391D01*
X-1473Y-11398D01*
X-1466Y-11411D01*
X-1459Y-11437D01*
X-1459Y-11470D01*
X-1466Y-11496D01*
X-1473Y-11509D01*
X-1479Y-11516D01*
X-1492Y-11522D01*
X-1505Y-11522D01*
X-1519Y-11516D01*
X-1525Y-11509D01*
X-1532Y-11496D01*
X-1538Y-11470D01*
X-1538Y-11437D01*
X-1532Y-11411D01*
X-1525Y-11398D01*
X-1519Y-11391D01*
X-1505Y-11385D01*
X-1374Y-11385D02*
X-1361Y-11385D01*
X-1348Y-11391D01*
X-1341Y-11398D01*
X-1335Y-11411D01*
X-1328Y-11437D01*
X-1328Y-11470D01*
X-1335Y-11496D01*
X-1341Y-11509D01*
X-1348Y-11516D01*
X-1361Y-11522D01*
X-1374Y-11522D01*
X-1387Y-11516D01*
X-1394Y-11509D01*
X-1400Y-11496D01*
X-1407Y-11470D01*
X-1407Y-11437D01*
X-1400Y-11411D01*
X-1394Y-11398D01*
X-1387Y-11391D01*
X-1374Y-11385D01*
X-1269Y-11431D02*
X-1269Y-11522D01*
X-1269Y-11444D02*
X-1263Y-11437D01*
X-1250Y-11431D01*
X-1230Y-11431D01*
X-1217Y-11437D01*
X-1210Y-11450D01*
X-1210Y-11522D01*
X-1099Y-11450D02*
X-1145Y-11450D01*
X-1145Y-11522D02*
X-1145Y-11385D01*
X-1079Y-11385D01*
X-4232Y-10129D02*
X-4240Y-10134D01*
X-4261Y-10135D01*
X-4273Y-10131D01*
X-4291Y-10120D01*
X-4300Y-10104D01*
X-4303Y-10090D01*
X-4303Y-10062D01*
X-4297Y-10043D01*
X-4284Y-10020D01*
X-4275Y-10009D01*
X-4259Y-10000D01*
X-4238Y-9998D01*
X-4225Y-10002D01*
X-4208Y-10013D01*
X-4203Y-10021D01*
X-4109Y-10176D02*
X-4185Y-10155D01*
X-4147Y-10165D02*
X-4111Y-10032D01*
X-4129Y-10048D01*
X-4145Y-10057D01*
X-4159Y-10060D01*
X-3971Y-10117D02*
X-3995Y-10206D01*
X-3989Y-10058D02*
X-4046Y-10145D01*
X-3964Y-10167D01*
X-4519Y-10718D02*
X-4595Y-10697D01*
X-4557Y-10708D02*
X-4521Y-10575D01*
X-4539Y-10590D01*
X-4555Y-10599D01*
X-4569Y-10602D01*
X-4401Y-10607D02*
X-4388Y-10610D01*
X-4377Y-10620D01*
X-4373Y-10628D01*
X-4370Y-10642D01*
X-4370Y-10669D01*
X-4379Y-10701D01*
X-4392Y-10725D01*
X-4401Y-10736D01*
X-4409Y-10740D01*
X-4424Y-10743D01*
X-4436Y-10740D01*
X-4447Y-10730D01*
X-4452Y-10722D01*
X-4455Y-10708D01*
X-4455Y-10681D01*
X-4446Y-10649D01*
X-4433Y-10625D01*
X-4423Y-10614D01*
X-4415Y-10610D01*
X-4401Y-10607D01*
X-4274Y-10641D02*
X-4261Y-10644D01*
X-4250Y-10654D01*
X-4246Y-10662D01*
X-4243Y-10676D01*
X-4243Y-10703D01*
X-4252Y-10735D01*
X-4265Y-10759D01*
X-4275Y-10770D01*
X-4283Y-10774D01*
X-4297Y-10777D01*
X-4310Y-10774D01*
X-4321Y-10764D01*
X-4325Y-10756D01*
X-4328Y-10742D01*
X-4328Y-10715D01*
X-4319Y-10683D01*
X-4306Y-10659D01*
X-4296Y-10648D01*
X-4288Y-10644D01*
X-4274Y-10641D01*
X-4185Y-10712D02*
X-4208Y-10801D01*
X-4188Y-10725D02*
X-4180Y-10720D01*
X-4166Y-10717D01*
X-4147Y-10722D01*
X-4136Y-10732D01*
X-4133Y-10747D01*
X-4151Y-10816D01*
X-4025Y-10775D02*
X-4069Y-10764D01*
X-4088Y-10833D02*
X-4052Y-10700D01*
X-3989Y-10717D01*
X-6709Y-8688D02*
X-6718Y-8691D01*
X-6739Y-8687D01*
X-6750Y-8680D01*
X-6764Y-8665D01*
X-6769Y-8647D01*
X-6768Y-8632D01*
X-6760Y-8606D01*
X-6751Y-8589D01*
X-6732Y-8570D01*
X-6719Y-8561D01*
X-6702Y-8557D01*
X-6681Y-8561D01*
X-6670Y-8567D01*
X-6656Y-8583D01*
X-6654Y-8592D01*
X-6602Y-8765D02*
X-6671Y-8726D01*
X-6636Y-8746D02*
X-6568Y-8626D01*
X-6589Y-8637D01*
X-6607Y-8642D01*
X-6621Y-8641D01*
X-6426Y-8708D02*
X-6482Y-8676D01*
X-6521Y-8729D01*
X-6512Y-8727D01*
X-6497Y-8728D01*
X-6469Y-8744D01*
X-6461Y-8756D01*
X-6458Y-8765D01*
X-6459Y-8780D01*
X-6476Y-8808D01*
X-6488Y-8816D01*
X-6497Y-8819D01*
X-6511Y-8818D01*
X-6540Y-8802D01*
X-6548Y-8789D01*
X-6550Y-8780D01*
X-7139Y-9183D02*
X-7207Y-9144D01*
X-7173Y-9163D02*
X-7104Y-9044D01*
X-7125Y-9054D01*
X-7143Y-9059D01*
X-7158Y-9058D01*
X-6996Y-9106D02*
X-6985Y-9113D01*
X-6977Y-9125D01*
X-6974Y-9134D01*
X-6975Y-9149D01*
X-6983Y-9175D01*
X-6999Y-9203D01*
X-7018Y-9223D01*
X-7030Y-9231D01*
X-7039Y-9233D01*
X-7054Y-9232D01*
X-7065Y-9226D01*
X-7073Y-9213D01*
X-7076Y-9204D01*
X-7075Y-9190D01*
X-7067Y-9164D01*
X-7051Y-9135D01*
X-7032Y-9116D01*
X-7020Y-9108D01*
X-7011Y-9105D01*
X-6996Y-9106D01*
X-6883Y-9172D02*
X-6871Y-9179D01*
X-6863Y-9191D01*
X-6861Y-9200D01*
X-6862Y-9214D01*
X-6869Y-9240D01*
X-6885Y-9269D01*
X-6904Y-9288D01*
X-6916Y-9296D01*
X-6925Y-9299D01*
X-6940Y-9298D01*
X-6951Y-9291D01*
X-6960Y-9279D01*
X-6962Y-9270D01*
X-6961Y-9255D01*
X-6954Y-9229D01*
X-6937Y-9201D01*
X-6918Y-9182D01*
X-6906Y-9173D01*
X-6897Y-9171D01*
X-6883Y-9172D01*
X-6815Y-9264D02*
X-6861Y-9344D01*
X-6821Y-9276D02*
X-6812Y-9273D01*
X-6798Y-9274D01*
X-6781Y-9284D01*
X-6772Y-9296D01*
X-6773Y-9311D01*
X-6809Y-9373D01*
X-6677Y-9367D02*
X-6716Y-9344D01*
X-6753Y-9406D02*
X-6684Y-9287D01*
X-6627Y-9320D01*
X-8730Y-6656D02*
X-8739Y-6656D01*
X-8758Y-6646D01*
X-8767Y-6637D01*
X-8776Y-6619D01*
X-8776Y-6600D01*
X-8771Y-6586D01*
X-8758Y-6563D01*
X-8744Y-6549D01*
X-8720Y-6535D01*
X-8707Y-6530D01*
X-8688Y-6530D01*
X-8669Y-6540D01*
X-8660Y-6549D01*
X-8651Y-6567D01*
X-8651Y-6577D01*
X-8646Y-6758D02*
X-8702Y-6702D01*
X-8674Y-6730D02*
X-8577Y-6632D01*
X-8600Y-6637D01*
X-8618Y-6637D01*
X-8632Y-6632D01*
X-8465Y-6744D02*
X-8484Y-6725D01*
X-8498Y-6721D01*
X-8507Y-6721D01*
X-8530Y-6725D01*
X-8553Y-6739D01*
X-8591Y-6776D01*
X-8595Y-6790D01*
X-8595Y-6799D01*
X-8591Y-6813D01*
X-8572Y-6832D01*
X-8558Y-6837D01*
X-8549Y-6837D01*
X-8535Y-6832D01*
X-8512Y-6809D01*
X-8507Y-6795D01*
X-8507Y-6786D01*
X-8512Y-6772D01*
X-8530Y-6753D01*
X-8544Y-6748D01*
X-8553Y-6748D01*
X-8567Y-6753D01*
X-9273Y-7022D02*
X-9328Y-6967D01*
X-9300Y-6994D02*
X-9203Y-6897D01*
X-9226Y-6902D01*
X-9245Y-6902D01*
X-9259Y-6897D01*
X-9115Y-6985D02*
X-9106Y-6994D01*
X-9101Y-7008D01*
X-9101Y-7018D01*
X-9106Y-7031D01*
X-9119Y-7055D01*
X-9143Y-7078D01*
X-9166Y-7092D01*
X-9180Y-7096D01*
X-9189Y-7096D01*
X-9203Y-7092D01*
X-9212Y-7083D01*
X-9217Y-7069D01*
X-9217Y-7059D01*
X-9212Y-7045D01*
X-9198Y-7022D01*
X-9175Y-6999D01*
X-9152Y-6985D01*
X-9138Y-6980D01*
X-9129Y-6980D01*
X-9115Y-6985D01*
X-9022Y-7078D02*
X-9013Y-7087D01*
X-9008Y-7101D01*
X-9008Y-7110D01*
X-9013Y-7124D01*
X-9027Y-7147D01*
X-9050Y-7171D01*
X-9073Y-7185D01*
X-9087Y-7189D01*
X-9096Y-7189D01*
X-9110Y-7185D01*
X-9119Y-7175D01*
X-9124Y-7161D01*
X-9124Y-7152D01*
X-9119Y-7138D01*
X-9106Y-7115D01*
X-9082Y-7092D01*
X-9059Y-7078D01*
X-9045Y-7073D01*
X-9036Y-7073D01*
X-9022Y-7078D01*
X-8980Y-7185D02*
X-9045Y-7250D01*
X-8990Y-7194D02*
X-8980Y-7194D01*
X-8966Y-7199D01*
X-8952Y-7212D01*
X-8948Y-7226D01*
X-8952Y-7240D01*
X-9003Y-7291D01*
X-8874Y-7319D02*
X-8906Y-7287D01*
X-8957Y-7338D02*
X-8860Y-7240D01*
X-8813Y-7287D01*
X-10155Y-4169D02*
X-10164Y-4167D01*
X-10179Y-4153D01*
X-10186Y-4142D01*
X-10190Y-4122D01*
X-10185Y-4104D01*
X-10177Y-4091D01*
X-10158Y-4073D01*
X-10141Y-4063D01*
X-10115Y-4055D01*
X-10100Y-4054D01*
X-10082Y-4059D01*
X-10067Y-4073D01*
X-10060Y-4084D01*
X-10056Y-4105D01*
X-10058Y-4114D01*
X-10101Y-4290D02*
X-10140Y-4221D01*
X-10120Y-4256D02*
X-10001Y-4187D01*
X-10025Y-4185D01*
X-10043Y-4180D01*
X-10055Y-4172D01*
X-9958Y-4261D02*
X-9913Y-4340D01*
X-10061Y-4358D01*
X-10774Y-4383D02*
X-10814Y-4315D01*
X-10794Y-4349D02*
X-10675Y-4280D01*
X-10698Y-4278D01*
X-10716Y-4274D01*
X-10728Y-4266D01*
X-10612Y-4388D02*
X-10606Y-4399D01*
X-10605Y-4414D01*
X-10607Y-4423D01*
X-10615Y-4435D01*
X-10635Y-4454D01*
X-10663Y-4470D01*
X-10689Y-4478D01*
X-10704Y-4479D01*
X-10713Y-4476D01*
X-10725Y-4468D01*
X-10732Y-4457D01*
X-10732Y-4442D01*
X-10730Y-4433D01*
X-10722Y-4421D01*
X-10703Y-4402D01*
X-10674Y-4386D01*
X-10648Y-4378D01*
X-10633Y-4377D01*
X-10624Y-4380D01*
X-10612Y-4388D01*
X-10547Y-4502D02*
X-10540Y-4513D01*
X-10539Y-4528D01*
X-10542Y-4537D01*
X-10550Y-4549D01*
X-10569Y-4568D01*
X-10598Y-4584D01*
X-10624Y-4591D01*
X-10638Y-4592D01*
X-10647Y-4590D01*
X-10659Y-4582D01*
X-10666Y-4571D01*
X-10667Y-4556D01*
X-10664Y-4547D01*
X-10656Y-4535D01*
X-10637Y-4516D01*
X-10608Y-4499D01*
X-10582Y-4492D01*
X-10568Y-4491D01*
X-10559Y-4494D01*
X-10547Y-4502D01*
X-10534Y-4616D02*
X-10613Y-4661D01*
X-10545Y-4622D02*
X-10536Y-4624D01*
X-10524Y-4633D01*
X-10514Y-4650D01*
X-10513Y-4664D01*
X-10521Y-4676D01*
X-10584Y-4713D01*
X-10466Y-4773D02*
X-10489Y-4733D01*
X-10551Y-4769D02*
X-10432Y-4701D01*
X-10399Y-4757D01*
X-10888Y-1399D02*
X-10896Y-1394D01*
X-10908Y-1377D01*
X-10911Y-1364D01*
X-10910Y-1343D01*
X-10901Y-1327D01*
X-10890Y-1318D01*
X-10866Y-1304D01*
X-10847Y-1299D01*
X-10820Y-1299D01*
X-10805Y-1302D01*
X-10789Y-1311D01*
X-10778Y-1328D01*
X-10775Y-1341D01*
X-10776Y-1362D01*
X-10780Y-1370D01*
X-10867Y-1529D02*
X-10887Y-1453D01*
X-10877Y-1491D02*
X-10744Y-1455D01*
X-10766Y-1448D01*
X-10782Y-1438D01*
X-10792Y-1427D01*
X-10770Y-1585D02*
X-10768Y-1570D01*
X-10763Y-1562D01*
X-10752Y-1552D01*
X-10746Y-1551D01*
X-10731Y-1554D01*
X-10723Y-1558D01*
X-10713Y-1569D01*
X-10707Y-1595D01*
X-10710Y-1609D01*
X-10714Y-1617D01*
X-10725Y-1627D01*
X-10732Y-1628D01*
X-10746Y-1626D01*
X-10754Y-1621D01*
X-10764Y-1610D01*
X-10770Y-1585D01*
X-10780Y-1574D01*
X-10788Y-1569D01*
X-10803Y-1566D01*
X-10828Y-1573D01*
X-10839Y-1583D01*
X-10844Y-1591D01*
X-10847Y-1605D01*
X-10840Y-1630D01*
X-10830Y-1641D01*
X-10822Y-1646D01*
X-10808Y-1649D01*
X-10782Y-1642D01*
X-10771Y-1632D01*
X-10767Y-1624D01*
X-10764Y-1610D01*
X-11542Y-1445D02*
X-11562Y-1369D01*
X-11552Y-1407D02*
X-11419Y-1371D01*
X-11441Y-1363D01*
X-11457Y-1354D01*
X-11467Y-1343D01*
X-11386Y-1491D02*
X-11383Y-1504D01*
X-11386Y-1518D01*
X-11391Y-1527D01*
X-11402Y-1536D01*
X-11425Y-1549D01*
X-11457Y-1558D01*
X-11484Y-1558D01*
X-11498Y-1555D01*
X-11506Y-1551D01*
X-11516Y-1540D01*
X-11519Y-1527D01*
X-11517Y-1513D01*
X-11512Y-1505D01*
X-11501Y-1495D01*
X-11477Y-1482D01*
X-11446Y-1473D01*
X-11419Y-1473D01*
X-11404Y-1476D01*
X-11396Y-1480D01*
X-11386Y-1491D01*
X-11352Y-1618D02*
X-11349Y-1631D01*
X-11352Y-1645D01*
X-11357Y-1653D01*
X-11368Y-1663D01*
X-11391Y-1676D01*
X-11423Y-1685D01*
X-11450Y-1685D01*
X-11464Y-1682D01*
X-11472Y-1678D01*
X-11482Y-1667D01*
X-11486Y-1654D01*
X-11483Y-1639D01*
X-11478Y-1631D01*
X-11467Y-1622D01*
X-11443Y-1609D01*
X-11412Y-1600D01*
X-11385Y-1600D01*
X-11370Y-1603D01*
X-11362Y-1607D01*
X-11352Y-1618D01*
X-11370Y-1731D02*
X-11458Y-1755D01*
X-11382Y-1735D02*
X-11374Y-1740D01*
X-11365Y-1751D01*
X-11359Y-1770D01*
X-11362Y-1784D01*
X-11373Y-1794D01*
X-11443Y-1812D01*
X-11344Y-1901D02*
X-11356Y-1857D01*
X-11426Y-1876D02*
X-11293Y-1840D01*
X-11276Y-1903D01*
X-10781Y1289D02*
X-10774Y1282D01*
X-10768Y1263D01*
X-10768Y1250D01*
X-10774Y1230D01*
X-10788Y1217D01*
X-10801Y1210D01*
X-10827Y1204D01*
X-10847Y1204D01*
X-10873Y1210D01*
X-10886Y1217D01*
X-10899Y1230D01*
X-10906Y1250D01*
X-10906Y1263D01*
X-10899Y1282D01*
X-10893Y1289D01*
X-10768Y1420D02*
X-10768Y1341D01*
X-10768Y1381D02*
X-10906Y1381D01*
X-10886Y1368D01*
X-10873Y1354D01*
X-10866Y1341D01*
X-10768Y1486D02*
X-10768Y1512D01*
X-10774Y1525D01*
X-10781Y1532D01*
X-10801Y1545D01*
X-10827Y1551D01*
X-10879Y1551D01*
X-10893Y1545D01*
X-10899Y1538D01*
X-10906Y1525D01*
X-10906Y1499D01*
X-10899Y1486D01*
X-10893Y1479D01*
X-10879Y1473D01*
X-10847Y1473D01*
X-10833Y1479D01*
X-10827Y1486D01*
X-10820Y1499D01*
X-10820Y1525D01*
X-10827Y1538D01*
X-10833Y1545D01*
X-10847Y1551D01*
X-11398Y1164D02*
X-11398Y1085D01*
X-11398Y1125D02*
X-11536Y1125D01*
X-11516Y1112D01*
X-11503Y1099D01*
X-11496Y1085D01*
X-11536Y1250D02*
X-11536Y1263D01*
X-11529Y1276D01*
X-11522Y1282D01*
X-11509Y1289D01*
X-11483Y1295D01*
X-11450Y1295D01*
X-11424Y1289D01*
X-11411Y1282D01*
X-11404Y1276D01*
X-11398Y1263D01*
X-11398Y1250D01*
X-11404Y1236D01*
X-11411Y1230D01*
X-11424Y1223D01*
X-11450Y1217D01*
X-11483Y1217D01*
X-11509Y1223D01*
X-11522Y1230D01*
X-11529Y1236D01*
X-11536Y1250D01*
X-11536Y1381D02*
X-11536Y1394D01*
X-11529Y1407D01*
X-11522Y1414D01*
X-11509Y1420D01*
X-11483Y1427D01*
X-11450Y1427D01*
X-11424Y1420D01*
X-11411Y1414D01*
X-11404Y1407D01*
X-11398Y1394D01*
X-11398Y1381D01*
X-11404Y1368D01*
X-11411Y1361D01*
X-11424Y1354D01*
X-11450Y1348D01*
X-11483Y1348D01*
X-11509Y1354D01*
X-11522Y1361D01*
X-11529Y1368D01*
X-11536Y1381D01*
X-11490Y1486D02*
X-11398Y1486D01*
X-11477Y1486D02*
X-11483Y1492D01*
X-11490Y1505D01*
X-11490Y1525D01*
X-11483Y1538D01*
X-11470Y1545D01*
X-11398Y1545D01*
X-11470Y1656D02*
X-11470Y1610D01*
X-11398Y1610D02*
X-11536Y1610D01*
X-11536Y1676D01*
X-10080Y4035D02*
X-10075Y4027D01*
X-10074Y4007D01*
X-10077Y3994D01*
X-10089Y3977D01*
X-10105Y3967D01*
X-10119Y3964D01*
X-10146Y3965D01*
X-10165Y3970D01*
X-10189Y3983D01*
X-10200Y3993D01*
X-10209Y4009D01*
X-10210Y4030D01*
X-10207Y4042D01*
X-10196Y4060D01*
X-10187Y4064D01*
X-10174Y4115D02*
X-10179Y4123D01*
X-10181Y4137D01*
X-10173Y4169D01*
X-10163Y4180D01*
X-10155Y4185D01*
X-10141Y4188D01*
X-10128Y4184D01*
X-10111Y4173D01*
X-10055Y4076D01*
X-10033Y4159D01*
X-10144Y4277D02*
X-10141Y4289D01*
X-10131Y4300D01*
X-10123Y4305D01*
X-10109Y4308D01*
X-10082Y4308D01*
X-10050Y4299D01*
X-10026Y4286D01*
X-10015Y4276D01*
X-10011Y4268D01*
X-10008Y4254D01*
X-10011Y4241D01*
X-10021Y4230D01*
X-10029Y4226D01*
X-10043Y4223D01*
X-10070Y4223D01*
X-10102Y4232D01*
X-10126Y4245D01*
X-10137Y4254D01*
X-10141Y4262D01*
X-10144Y4277D01*
X-10708Y4075D02*
X-10728Y3999D01*
X-10718Y4037D02*
X-10851Y4072D01*
X-10835Y4054D01*
X-10826Y4038D01*
X-10823Y4024D01*
X-10819Y4193D02*
X-10815Y4205D01*
X-10806Y4216D01*
X-10798Y4221D01*
X-10783Y4224D01*
X-10756Y4223D01*
X-10725Y4215D01*
X-10701Y4202D01*
X-10690Y4192D01*
X-10685Y4184D01*
X-10682Y4170D01*
X-10686Y4157D01*
X-10695Y4146D01*
X-10703Y4141D01*
X-10718Y4138D01*
X-10745Y4139D01*
X-10777Y4147D01*
X-10800Y4161D01*
X-10811Y4170D01*
X-10816Y4178D01*
X-10819Y4193D01*
X-10785Y4319D02*
X-10781Y4332D01*
X-10772Y4343D01*
X-10764Y4348D01*
X-10749Y4351D01*
X-10722Y4350D01*
X-10691Y4342D01*
X-10667Y4329D01*
X-10656Y4319D01*
X-10651Y4311D01*
X-10648Y4296D01*
X-10652Y4284D01*
X-10661Y4273D01*
X-10669Y4268D01*
X-10684Y4265D01*
X-10711Y4266D01*
X-10743Y4274D01*
X-10766Y4287D01*
X-10777Y4297D01*
X-10782Y4305D01*
X-10785Y4319D01*
X-10713Y4409D02*
X-10625Y4385D01*
X-10701Y4406D02*
X-10705Y4414D01*
X-10708Y4428D01*
X-10703Y4447D01*
X-10693Y4458D01*
X-10679Y4461D01*
X-10609Y4442D01*
X-10650Y4569D02*
X-10662Y4524D01*
X-10592Y4506D02*
X-10725Y4541D01*
X-10708Y4605D01*
X-8692Y6507D02*
X-8689Y6498D01*
X-8694Y6478D01*
X-8700Y6466D01*
X-8716Y6452D01*
X-8734Y6448D01*
X-8748Y6449D01*
X-8774Y6456D01*
X-8791Y6466D01*
X-8811Y6485D01*
X-8819Y6497D01*
X-8824Y6515D01*
X-8819Y6535D01*
X-8813Y6546D01*
X-8797Y6560D01*
X-8788Y6563D01*
X-8762Y6608D02*
X-8765Y6617D01*
X-8764Y6632D01*
X-8747Y6660D01*
X-8735Y6668D01*
X-8726Y6671D01*
X-8711Y6670D01*
X-8700Y6663D01*
X-8686Y6648D01*
X-8657Y6540D01*
X-8615Y6614D01*
X-8549Y6728D02*
X-8589Y6659D01*
X-8569Y6694D02*
X-8688Y6762D01*
X-8678Y6741D01*
X-8673Y6723D01*
X-8674Y6709D01*
X-9288Y6707D02*
X-9328Y6639D01*
X-9308Y6673D02*
X-9427Y6742D01*
X-9417Y6721D01*
X-9412Y6703D01*
X-9413Y6688D01*
X-9365Y6850D02*
X-9358Y6861D01*
X-9346Y6870D01*
X-9337Y6872D01*
X-9323Y6871D01*
X-9297Y6864D01*
X-9268Y6847D01*
X-9249Y6828D01*
X-9241Y6816D01*
X-9238Y6807D01*
X-9239Y6793D01*
X-9246Y6781D01*
X-9258Y6773D01*
X-9267Y6771D01*
X-9281Y6772D01*
X-9308Y6779D01*
X-9336Y6795D01*
X-9355Y6814D01*
X-9363Y6826D01*
X-9366Y6835D01*
X-9365Y6850D01*
X-9299Y6964D02*
X-9293Y6975D01*
X-9281Y6983D01*
X-9272Y6986D01*
X-9257Y6985D01*
X-9231Y6977D01*
X-9203Y6961D01*
X-9183Y6942D01*
X-9175Y6930D01*
X-9173Y6921D01*
X-9173Y6906D01*
X-9180Y6895D01*
X-9192Y6887D01*
X-9201Y6884D01*
X-9216Y6885D01*
X-9242Y6893D01*
X-9270Y6909D01*
X-9290Y6928D01*
X-9298Y6940D01*
X-9300Y6949D01*
X-9299Y6964D01*
X-9207Y7032D02*
X-9128Y6986D01*
X-9196Y7025D02*
X-9198Y7034D01*
X-9197Y7049D01*
X-9187Y7066D01*
X-9175Y7074D01*
X-9161Y7073D01*
X-9098Y7037D01*
X-9105Y7170D02*
X-9128Y7130D01*
X-9065Y7094D02*
X-9185Y7163D01*
X-9152Y7219D01*
X-6711Y8535D02*
X-6711Y8526D01*
X-6721Y8507D01*
X-6730Y8498D01*
X-6748Y8489D01*
X-6767Y8489D01*
X-6781Y8493D01*
X-6804Y8507D01*
X-6818Y8521D01*
X-6832Y8544D01*
X-6837Y8558D01*
X-6837Y8577D01*
X-6827Y8595D01*
X-6818Y8605D01*
X-6799Y8614D01*
X-6790Y8614D01*
X-6753Y8651D02*
X-6753Y8660D01*
X-6748Y8674D01*
X-6725Y8697D01*
X-6711Y8702D01*
X-6702Y8702D01*
X-6688Y8697D01*
X-6679Y8688D01*
X-6670Y8669D01*
X-6670Y8558D01*
X-6609Y8618D01*
X-6660Y8744D02*
X-6660Y8753D01*
X-6656Y8767D01*
X-6632Y8790D01*
X-6619Y8795D01*
X-6609Y8795D01*
X-6595Y8790D01*
X-6586Y8781D01*
X-6577Y8762D01*
X-6577Y8651D01*
X-6516Y8711D01*
X-7236Y8883D02*
X-7291Y8827D01*
X-7263Y8855D02*
X-7361Y8952D01*
X-7356Y8929D01*
X-7356Y8911D01*
X-7361Y8897D01*
X-7273Y9041D02*
X-7263Y9050D01*
X-7250Y9055D01*
X-7240Y9055D01*
X-7226Y9050D01*
X-7203Y9036D01*
X-7180Y9013D01*
X-7166Y8990D01*
X-7161Y8976D01*
X-7161Y8966D01*
X-7166Y8952D01*
X-7175Y8943D01*
X-7189Y8939D01*
X-7199Y8939D01*
X-7212Y8943D01*
X-7236Y8957D01*
X-7259Y8980D01*
X-7273Y9004D01*
X-7277Y9017D01*
X-7277Y9027D01*
X-7273Y9041D01*
X-7180Y9133D02*
X-7171Y9143D01*
X-7157Y9147D01*
X-7147Y9147D01*
X-7134Y9143D01*
X-7110Y9129D01*
X-7087Y9106D01*
X-7073Y9082D01*
X-7069Y9068D01*
X-7069Y9059D01*
X-7073Y9045D01*
X-7083Y9036D01*
X-7096Y9031D01*
X-7106Y9031D01*
X-7120Y9036D01*
X-7143Y9050D01*
X-7166Y9073D01*
X-7180Y9096D01*
X-7185Y9110D01*
X-7185Y9120D01*
X-7180Y9133D01*
X-7073Y9175D02*
X-7008Y9110D01*
X-7064Y9166D02*
X-7064Y9175D01*
X-7059Y9189D01*
X-7045Y9203D01*
X-7031Y9208D01*
X-7018Y9203D01*
X-6967Y9152D01*
X-6939Y9282D02*
X-6971Y9249D01*
X-6920Y9198D02*
X-7018Y9296D01*
X-6971Y9342D01*
X-4274Y9981D02*
X-4276Y9972D01*
X-4290Y9957D01*
X-4301Y9950D01*
X-4322Y9946D01*
X-4339Y9951D01*
X-4352Y9959D01*
X-4370Y9978D01*
X-4380Y9995D01*
X-4388Y10021D01*
X-4389Y10036D01*
X-4384Y10054D01*
X-4370Y10070D01*
X-4359Y10076D01*
X-4338Y10080D01*
X-4329Y10078D01*
X-4284Y10104D02*
X-4282Y10113D01*
X-4273Y10125D01*
X-4245Y10142D01*
X-4230Y10143D01*
X-4221Y10140D01*
X-4209Y10132D01*
X-4203Y10121D01*
X-4198Y10100D01*
X-4227Y9993D01*
X-4153Y10035D01*
X-4183Y10178D02*
X-4109Y10220D01*
X-4122Y10152D01*
X-4105Y10162D01*
X-4091Y10163D01*
X-4082Y10160D01*
X-4069Y10152D01*
X-4053Y10124D01*
X-4052Y10109D01*
X-4054Y10100D01*
X-4063Y10088D01*
X-4097Y10068D01*
X-4111Y10067D01*
X-4120Y10070D01*
X-4690Y10453D02*
X-4758Y10414D01*
X-4724Y10433D02*
X-4793Y10553D01*
X-4795Y10529D01*
X-4799Y10511D01*
X-4807Y10499D01*
X-4685Y10615D02*
X-4674Y10622D01*
X-4659Y10622D01*
X-4650Y10620D01*
X-4638Y10612D01*
X-4619Y10593D01*
X-4603Y10564D01*
X-4595Y10538D01*
X-4594Y10523D01*
X-4597Y10515D01*
X-4605Y10502D01*
X-4616Y10496D01*
X-4631Y10495D01*
X-4640Y10497D01*
X-4652Y10505D01*
X-4671Y10525D01*
X-4687Y10553D01*
X-4695Y10579D01*
X-4696Y10594D01*
X-4693Y10603D01*
X-4685Y10615D01*
X-4571Y10681D02*
X-4560Y10687D01*
X-4545Y10688D01*
X-4536Y10686D01*
X-4524Y10678D01*
X-4505Y10658D01*
X-4489Y10630D01*
X-4482Y10604D01*
X-4481Y10589D01*
X-4483Y10580D01*
X-4491Y10568D01*
X-4502Y10561D01*
X-4517Y10560D01*
X-4526Y10563D01*
X-4538Y10571D01*
X-4557Y10590D01*
X-4574Y10619D01*
X-4581Y10645D01*
X-4582Y10659D01*
X-4579Y10668D01*
X-4571Y10681D01*
X-4458Y10693D02*
X-4412Y10614D01*
X-4451Y10682D02*
X-4449Y10691D01*
X-4440Y10703D01*
X-4423Y10713D01*
X-4409Y10714D01*
X-4397Y10706D01*
X-4360Y10643D01*
X-4300Y10762D02*
X-4340Y10739D01*
X-4304Y10676D02*
X-4373Y10796D01*
X-4316Y10828D01*
X-1544Y10747D02*
X-1549Y10739D01*
X-1566Y10728D01*
X-1579Y10724D01*
X-1600Y10726D01*
X-1616Y10735D01*
X-1626Y10746D01*
X-1639Y10770D01*
X-1644Y10789D01*
X-1644Y10816D01*
X-1641Y10830D01*
X-1632Y10846D01*
X-1615Y10858D01*
X-1602Y10861D01*
X-1581Y10860D01*
X-1573Y10855D01*
X-1523Y10869D02*
X-1518Y10877D01*
X-1507Y10886D01*
X-1475Y10895D01*
X-1461Y10892D01*
X-1453Y10887D01*
X-1443Y10876D01*
X-1440Y10864D01*
X-1441Y10843D01*
X-1497Y10747D01*
X-1414Y10769D01*
X-1324Y10888D02*
X-1300Y10799D01*
X-1369Y10930D02*
X-1375Y10827D01*
X-1293Y10849D01*
X-1824Y11311D02*
X-1900Y11290D01*
X-1862Y11301D02*
X-1898Y11434D01*
X-1906Y11411D01*
X-1915Y11395D01*
X-1926Y11386D01*
X-1778Y11466D02*
X-1765Y11469D01*
X-1751Y11466D01*
X-1743Y11462D01*
X-1733Y11451D01*
X-1720Y11427D01*
X-1711Y11396D01*
X-1711Y11368D01*
X-1714Y11354D01*
X-1718Y11346D01*
X-1729Y11336D01*
X-1742Y11333D01*
X-1756Y11336D01*
X-1764Y11341D01*
X-1774Y11351D01*
X-1787Y11375D01*
X-1796Y11407D01*
X-1796Y11434D01*
X-1793Y11448D01*
X-1789Y11456D01*
X-1778Y11466D01*
X-1651Y11500D02*
X-1638Y11503D01*
X-1624Y11500D01*
X-1616Y11496D01*
X-1606Y11485D01*
X-1593Y11461D01*
X-1584Y11429D01*
X-1584Y11402D01*
X-1587Y11388D01*
X-1592Y11380D01*
X-1603Y11370D01*
X-1615Y11367D01*
X-1630Y11370D01*
X-1638Y11374D01*
X-1647Y11385D01*
X-1661Y11409D01*
X-1669Y11441D01*
X-1669Y11468D01*
X-1667Y11482D01*
X-1662Y11490D01*
X-1651Y11500D01*
X-1538Y11483D02*
X-1514Y11394D01*
X-1534Y11470D02*
X-1530Y11478D01*
X-1519Y11488D01*
X-1500Y11493D01*
X-1485Y11490D01*
X-1475Y11479D01*
X-1457Y11409D01*
X-1368Y11508D02*
X-1412Y11496D01*
X-1393Y11426D02*
X-1429Y11559D01*
X-1366Y11576D01*
X4099Y10063D02*
X4091Y10058D01*
X4070Y10057D01*
X4057Y10060D01*
X4040Y10072D01*
X4031Y10088D01*
X4028Y10102D01*
X4028Y10129D01*
X4033Y10148D01*
X4047Y10172D01*
X4056Y10183D01*
X4072Y10192D01*
X4093Y10194D01*
X4106Y10190D01*
X4123Y10179D01*
X4128Y10171D01*
X4178Y10157D02*
X4186Y10162D01*
X4201Y10165D01*
X4232Y10156D01*
X4243Y10146D01*
X4248Y10138D01*
X4251Y10124D01*
X4248Y10111D01*
X4236Y10094D01*
X4140Y10038D01*
X4222Y10016D01*
X4075Y10708D02*
X3999Y10728D01*
X4037Y10718D02*
X4072Y10851D01*
X4055Y10836D01*
X4038Y10826D01*
X4024Y10823D01*
X4193Y10819D02*
X4205Y10816D01*
X4216Y10806D01*
X4221Y10798D01*
X4224Y10783D01*
X4223Y10756D01*
X4215Y10725D01*
X4202Y10701D01*
X4192Y10690D01*
X4184Y10685D01*
X4170Y10682D01*
X4157Y10686D01*
X4146Y10696D01*
X4141Y10704D01*
X4138Y10718D01*
X4139Y10745D01*
X4147Y10777D01*
X4161Y10800D01*
X4170Y10811D01*
X4178Y10816D01*
X4193Y10819D01*
X4319Y10785D02*
X4332Y10782D01*
X4343Y10772D01*
X4348Y10764D01*
X4351Y10749D01*
X4350Y10722D01*
X4342Y10691D01*
X4329Y10667D01*
X4319Y10656D01*
X4311Y10651D01*
X4296Y10649D01*
X4284Y10652D01*
X4273Y10662D01*
X4268Y10670D01*
X4265Y10684D01*
X4266Y10711D01*
X4274Y10743D01*
X4287Y10766D01*
X4297Y10777D01*
X4305Y10782D01*
X4319Y10785D01*
X4409Y10713D02*
X4385Y10625D01*
X4406Y10701D02*
X4414Y10705D01*
X4428Y10708D01*
X4447Y10703D01*
X4458Y10694D01*
X4461Y10679D01*
X4442Y10609D01*
X4569Y10650D02*
X4524Y10662D01*
X4506Y10592D02*
X4541Y10726D01*
X4605Y10709D01*
G54D10*
X464Y11377D02*
X703Y11377D01*
X731Y11391D01*
X745Y11405D01*
X759Y11433D01*
X759Y11489D01*
X745Y11517D01*
X731Y11532D01*
X703Y11546D01*
X464Y11546D01*
X759Y11841D02*
X759Y11672D01*
X759Y11757D02*
X464Y11757D01*
X506Y11728D01*
X534Y11700D01*
X548Y11672D01*
X3393Y10869D02*
X3623Y10807D01*
X3654Y10813D01*
X3672Y10823D01*
X3692Y10847D01*
X3707Y10901D01*
X3701Y10932D01*
X3691Y10949D01*
X3667Y10970D01*
X3436Y11032D01*
X3496Y11147D02*
X3486Y11164D01*
X3480Y11195D01*
X3498Y11263D01*
X3519Y11286D01*
X3536Y11296D01*
X3567Y11303D01*
X3594Y11295D01*
X3631Y11271D01*
X3751Y11064D01*
X3798Y11241D01*
X6090Y9620D02*
X6297Y9501D01*
X6329Y9499D01*
X6348Y9504D01*
X6374Y9522D01*
X6402Y9570D01*
X6404Y9602D01*
X6399Y9621D01*
X6382Y9647D01*
X6175Y9767D01*
X6231Y9864D02*
X6322Y10022D01*
X6370Y9881D01*
X6392Y9917D01*
X6418Y9935D01*
X6437Y9940D01*
X6468Y9938D01*
X6529Y9903D01*
X6547Y9877D01*
X6552Y9857D01*
X6550Y9826D01*
X6508Y9753D01*
X6481Y9736D01*
X6462Y9730D01*
X8373Y7716D02*
X8542Y7547D01*
X8572Y7537D01*
X8592Y7537D01*
X8621Y7547D01*
X8661Y7587D01*
X8671Y7617D01*
X8671Y7637D01*
X8661Y7667D01*
X8492Y7836D01*
X8751Y7955D02*
X8890Y7816D01*
X8621Y7985D02*
X8721Y7786D01*
X8850Y7915D01*
X10085Y5286D02*
X10204Y5079D01*
X10231Y5062D01*
X10250Y5057D01*
X10281Y5059D01*
X10330Y5087D01*
X10347Y5113D01*
X10352Y5132D01*
X10351Y5163D01*
X10231Y5370D01*
X10475Y5511D02*
X10353Y5441D01*
X10411Y5312D01*
X10416Y5331D01*
X10433Y5357D01*
X10494Y5393D01*
X10526Y5394D01*
X10545Y5389D01*
X10571Y5372D01*
X10606Y5311D01*
X10608Y5280D01*
X10603Y5261D01*
X10586Y5234D01*
X10525Y5199D01*
X10493Y5197D01*
X10474Y5202D01*
X11109Y2496D02*
X11171Y2265D01*
X11192Y2241D01*
X11209Y2231D01*
X11240Y2225D01*
X11294Y2240D01*
X11318Y2260D01*
X11328Y2278D01*
X11334Y2308D01*
X11272Y2539D01*
X11530Y2609D02*
X11476Y2594D01*
X11453Y2573D01*
X11443Y2556D01*
X11426Y2508D01*
X11427Y2450D01*
X11456Y2341D01*
X11477Y2318D01*
X11495Y2308D01*
X11525Y2301D01*
X11580Y2316D01*
X11603Y2337D01*
X11613Y2354D01*
X11619Y2385D01*
X11601Y2453D01*
X11580Y2476D01*
X11563Y2486D01*
X11532Y2493D01*
X11478Y2478D01*
X11455Y2457D01*
X11445Y2440D01*
X11438Y2409D01*
X11377Y-464D02*
X11377Y-703D01*
X11391Y-731D01*
X11405Y-745D01*
X11433Y-759D01*
X11489Y-759D01*
X11517Y-745D01*
X11532Y-731D01*
X11546Y-703D01*
X11546Y-464D01*
X11658Y-464D02*
X11855Y-464D01*
X11728Y-759D01*
X10869Y-3393D02*
X10807Y-3623D01*
X10813Y-3654D01*
X10823Y-3672D01*
X10847Y-3692D01*
X10901Y-3707D01*
X10932Y-3701D01*
X10949Y-3691D01*
X10970Y-3667D01*
X11032Y-3436D01*
X11176Y-3606D02*
X11152Y-3585D01*
X11142Y-3568D01*
X11136Y-3537D01*
X11140Y-3523D01*
X11161Y-3500D01*
X11178Y-3490D01*
X11209Y-3484D01*
X11263Y-3498D01*
X11286Y-3519D01*
X11296Y-3536D01*
X11303Y-3567D01*
X11299Y-3581D01*
X11278Y-3604D01*
X11261Y-3614D01*
X11230Y-3620D01*
X11176Y-3606D01*
X11145Y-3612D01*
X11128Y-3622D01*
X11107Y-3646D01*
X11092Y-3700D01*
X11099Y-3731D01*
X11109Y-3748D01*
X11132Y-3769D01*
X11186Y-3783D01*
X11217Y-3777D01*
X11235Y-3767D01*
X11255Y-3744D01*
X11270Y-3689D01*
X11264Y-3658D01*
X11254Y-3641D01*
X11230Y-3620D01*
X9621Y-6090D02*
X9501Y-6297D01*
X9499Y-6329D01*
X9504Y-6348D01*
X9522Y-6374D01*
X9570Y-6402D01*
X9602Y-6404D01*
X9621Y-6399D01*
X9647Y-6382D01*
X9767Y-6175D01*
X9753Y-6508D02*
X9802Y-6536D01*
X9833Y-6538D01*
X9852Y-6533D01*
X9898Y-6510D01*
X9938Y-6468D01*
X9994Y-6371D01*
X9996Y-6340D01*
X9991Y-6320D01*
X9974Y-6294D01*
X9925Y-6266D01*
X9894Y-6264D01*
X9874Y-6269D01*
X9848Y-6287D01*
X9813Y-6348D01*
X9811Y-6379D01*
X9816Y-6398D01*
X9834Y-6424D01*
X9882Y-6452D01*
X9914Y-6454D01*
X9933Y-6449D01*
X9959Y-6432D01*
X7617Y-8273D02*
X7448Y-8442D01*
X7438Y-8472D01*
X7438Y-8492D01*
X7448Y-8522D01*
X7488Y-8562D01*
X7517Y-8572D01*
X7537Y-8572D01*
X7567Y-8562D01*
X7736Y-8393D01*
X7736Y-8810D02*
X7617Y-8691D01*
X7677Y-8751D02*
X7885Y-8542D01*
X7836Y-8552D01*
X7796Y-8552D01*
X7766Y-8542D01*
X8074Y-8731D02*
X8094Y-8751D01*
X8104Y-8781D01*
X8104Y-8800D01*
X8094Y-8830D01*
X8064Y-8880D01*
X8015Y-8930D01*
X7965Y-8959D01*
X7935Y-8969D01*
X7915Y-8969D01*
X7885Y-8959D01*
X7865Y-8940D01*
X7855Y-8910D01*
X7855Y-8890D01*
X7865Y-8860D01*
X7895Y-8810D01*
X7945Y-8761D01*
X7995Y-8731D01*
X8024Y-8721D01*
X8044Y-8721D01*
X8074Y-8731D01*
X5216Y-9963D02*
X5009Y-10083D01*
X4991Y-10109D01*
X4986Y-10128D01*
X4988Y-10159D01*
X5016Y-10208D01*
X5043Y-10225D01*
X5062Y-10231D01*
X5093Y-10229D01*
X5300Y-10109D01*
X5192Y-10513D02*
X5108Y-10366D01*
X5150Y-10440D02*
X5406Y-10292D01*
X5355Y-10289D01*
X5317Y-10278D01*
X5290Y-10261D01*
X5333Y-10756D02*
X5248Y-10610D01*
X5291Y-10683D02*
X5546Y-10535D01*
X5496Y-10532D01*
X5457Y-10522D01*
X5431Y-10505D01*
X2459Y-10974D02*
X2228Y-11035D01*
X2205Y-11056D01*
X2195Y-11074D01*
X2189Y-11104D01*
X2203Y-11159D01*
X2224Y-11182D01*
X2241Y-11192D01*
X2272Y-11198D01*
X2503Y-11137D01*
X2294Y-11498D02*
X2250Y-11335D01*
X2272Y-11417D02*
X2558Y-11340D01*
X2510Y-11324D01*
X2475Y-11304D01*
X2454Y-11281D01*
X2581Y-11538D02*
X2599Y-11548D01*
X2619Y-11571D01*
X2638Y-11639D01*
X2631Y-11670D01*
X2621Y-11687D01*
X2598Y-11708D01*
X2571Y-11715D01*
X2526Y-11713D01*
X2320Y-11593D01*
X2367Y-11770D01*
X-787Y-11967D02*
X-548Y-11967D01*
X-520Y-11953D01*
X-506Y-11939D01*
X-492Y-11911D01*
X-492Y-11855D01*
X-506Y-11827D01*
X-520Y-11813D01*
X-548Y-11799D01*
X-787Y-11799D01*
X-492Y-11503D02*
X-492Y-11672D01*
X-492Y-11588D02*
X-787Y-11588D01*
X-745Y-11616D01*
X-717Y-11644D01*
X-703Y-11672D01*
X-787Y-11405D02*
X-787Y-11222D01*
X-675Y-11321D01*
X-675Y-11278D01*
X-661Y-11250D01*
X-647Y-11236D01*
X-618Y-11222D01*
X-548Y-11222D01*
X-520Y-11236D01*
X-506Y-11250D01*
X-492Y-11278D01*
X-492Y-11363D01*
X-506Y-11391D01*
X-520Y-11405D01*
X-3858Y-11356D02*
X-3627Y-11418D01*
X-3596Y-11411D01*
X-3579Y-11401D01*
X-3558Y-11378D01*
X-3544Y-11324D01*
X-3550Y-11293D01*
X-3560Y-11276D01*
X-3583Y-11255D01*
X-3814Y-11193D01*
X-3453Y-10984D02*
X-3496Y-11147D01*
X-3474Y-11065D02*
X-3760Y-10989D01*
X-3726Y-11027D01*
X-3706Y-11062D01*
X-3700Y-11092D01*
X-3577Y-10689D02*
X-3387Y-10740D01*
X-3704Y-10727D02*
X-3518Y-10850D01*
X-3471Y-10673D01*
X-6666Y-9970D02*
X-6459Y-10090D01*
X-6427Y-10092D01*
X-6408Y-10087D01*
X-6382Y-10069D01*
X-6354Y-10021D01*
X-6352Y-9989D01*
X-6357Y-9970D01*
X-6374Y-9944D01*
X-6581Y-9824D01*
X-6178Y-9716D02*
X-6262Y-9862D01*
X-6220Y-9789D02*
X-6476Y-9642D01*
X-6453Y-9687D01*
X-6443Y-9725D01*
X-6445Y-9757D01*
X-6300Y-9337D02*
X-6370Y-9459D01*
X-6256Y-9541D01*
X-6261Y-9522D01*
X-6259Y-9491D01*
X-6224Y-9430D01*
X-6197Y-9413D01*
X-6178Y-9407D01*
X-6147Y-9409D01*
X-6086Y-9444D01*
X-6069Y-9471D01*
X-6064Y-9490D01*
X-6065Y-9521D01*
X-6101Y-9582D01*
X-6127Y-9599D01*
X-6146Y-9605D01*
X-9019Y-7905D02*
X-8850Y-8074D01*
X-8820Y-8084D01*
X-8800Y-8084D01*
X-8771Y-8074D01*
X-8731Y-8034D01*
X-8721Y-8005D01*
X-8721Y-7985D01*
X-8731Y-7955D01*
X-8900Y-7786D01*
X-8482Y-7786D02*
X-8602Y-7905D01*
X-8542Y-7846D02*
X-8751Y-7637D01*
X-8741Y-7686D01*
X-8741Y-7726D01*
X-8751Y-7756D01*
X-8512Y-7398D02*
X-8552Y-7438D01*
X-8562Y-7468D01*
X-8562Y-7488D01*
X-8552Y-7537D01*
X-8522Y-7587D01*
X-8442Y-7667D01*
X-8413Y-7677D01*
X-8393Y-7677D01*
X-8363Y-7667D01*
X-8323Y-7627D01*
X-8313Y-7597D01*
X-8313Y-7577D01*
X-8323Y-7547D01*
X-8373Y-7498D01*
X-8403Y-7488D01*
X-8423Y-7488D01*
X-8452Y-7498D01*
X-8492Y-7537D01*
X-8502Y-7567D01*
X-8502Y-7587D01*
X-8492Y-7617D01*
X-10758Y-5301D02*
X-10638Y-5508D01*
X-10612Y-5526D01*
X-10593Y-5531D01*
X-10562Y-5529D01*
X-10513Y-5501D01*
X-10496Y-5475D01*
X-10490Y-5455D01*
X-10492Y-5424D01*
X-10612Y-5217D01*
X-10209Y-5325D02*
X-10355Y-5409D01*
X-10282Y-5367D02*
X-10429Y-5111D01*
X-10432Y-5162D01*
X-10443Y-5201D01*
X-10460Y-5227D01*
X-10271Y-5020D02*
X-10100Y-4922D01*
X-10062Y-5241D01*
X-11764Y-2336D02*
X-11702Y-2567D01*
X-11681Y-2591D01*
X-11664Y-2600D01*
X-11633Y-2607D01*
X-11578Y-2592D01*
X-11555Y-2571D01*
X-11545Y-2554D01*
X-11539Y-2523D01*
X-11601Y-2292D01*
X-11239Y-2501D02*
X-11402Y-2545D01*
X-11320Y-2523D02*
X-11397Y-2238D01*
X-11413Y-2286D01*
X-11433Y-2320D01*
X-11456Y-2341D01*
X-11120Y-2295D02*
X-11150Y-2288D01*
X-11168Y-2278D01*
X-11188Y-2255D01*
X-11192Y-2241D01*
X-11186Y-2210D01*
X-11176Y-2193D01*
X-11152Y-2172D01*
X-11098Y-2158D01*
X-11067Y-2164D01*
X-11050Y-2174D01*
X-11029Y-2198D01*
X-11025Y-2211D01*
X-11032Y-2242D01*
X-11042Y-2259D01*
X-11065Y-2280D01*
X-11120Y-2295D01*
X-11143Y-2315D01*
X-11153Y-2333D01*
X-11159Y-2363D01*
X-11145Y-2418D01*
X-11124Y-2441D01*
X-11107Y-2451D01*
X-11076Y-2458D01*
X-11022Y-2443D01*
X-10998Y-2422D01*
X-10988Y-2405D01*
X-10982Y-2374D01*
X-10996Y-2320D01*
X-11017Y-2296D01*
X-11034Y-2286D01*
X-11065Y-2280D01*
X-11967Y787D02*
X-11967Y548D01*
X-11953Y520D01*
X-11939Y506D01*
X-11911Y492D01*
X-11855Y492D01*
X-11827Y506D01*
X-11813Y520D01*
X-11799Y548D01*
X-11799Y787D01*
X-11503Y492D02*
X-11672Y492D01*
X-11588Y492D02*
X-11588Y787D01*
X-11616Y745D01*
X-11644Y717D01*
X-11672Y703D01*
X-11363Y492D02*
X-11307Y492D01*
X-11278Y506D01*
X-11264Y520D01*
X-11236Y562D01*
X-11222Y618D01*
X-11222Y731D01*
X-11236Y759D01*
X-11250Y773D01*
X-11278Y787D01*
X-11335Y787D01*
X-11363Y773D01*
X-11377Y759D01*
X-11391Y731D01*
X-11391Y661D01*
X-11377Y633D01*
X-11363Y618D01*
X-11335Y604D01*
X-11278Y604D01*
X-11250Y618D01*
X-11236Y633D01*
X-11222Y661D01*
X-11356Y3858D02*
X-11418Y3627D01*
X-11411Y3596D01*
X-11401Y3579D01*
X-11378Y3558D01*
X-11324Y3544D01*
X-11293Y3550D01*
X-11276Y3560D01*
X-11255Y3583D01*
X-11193Y3814D01*
X-11078Y3754D02*
X-11061Y3764D01*
X-11030Y3771D01*
X-10962Y3752D01*
X-10938Y3731D01*
X-10928Y3714D01*
X-10922Y3683D01*
X-10929Y3656D01*
X-10954Y3619D01*
X-11161Y3500D01*
X-10984Y3453D01*
X-10731Y3690D02*
X-10704Y3683D01*
X-10680Y3662D01*
X-10670Y3645D01*
X-10664Y3614D01*
X-10665Y3556D01*
X-10683Y3488D01*
X-10711Y3438D01*
X-10732Y3414D01*
X-10749Y3404D01*
X-10780Y3398D01*
X-10807Y3405D01*
X-10831Y3426D01*
X-10841Y3443D01*
X-10847Y3474D01*
X-10846Y3532D01*
X-10828Y3600D01*
X-10800Y3651D01*
X-10779Y3674D01*
X-10762Y3684D01*
X-10731Y3690D01*
X-9970Y6666D02*
X-10090Y6459D01*
X-10092Y6427D01*
X-10087Y6408D01*
X-10069Y6382D01*
X-10021Y6354D01*
X-9989Y6352D01*
X-9970Y6357D01*
X-9944Y6374D01*
X-9824Y6581D01*
X-9729Y6494D02*
X-9709Y6499D01*
X-9678Y6497D01*
X-9617Y6462D01*
X-9600Y6436D01*
X-9595Y6416D01*
X-9597Y6385D01*
X-9611Y6361D01*
X-9644Y6331D01*
X-9874Y6269D01*
X-9716Y6178D01*
X-9473Y6037D02*
X-9619Y6122D01*
X-9546Y6079D02*
X-9398Y6335D01*
X-9443Y6313D01*
X-9482Y6302D01*
X-9513Y6304D01*
X-7905Y9019D02*
X-8074Y8850D01*
X-8084Y8820D01*
X-8084Y8800D01*
X-8074Y8771D01*
X-8034Y8731D01*
X-8005Y8721D01*
X-7985Y8721D01*
X-7955Y8731D01*
X-7786Y8900D01*
X-7716Y8790D02*
X-7696Y8790D01*
X-7667Y8780D01*
X-7617Y8731D01*
X-7607Y8701D01*
X-7607Y8681D01*
X-7617Y8651D01*
X-7637Y8631D01*
X-7677Y8611D01*
X-7915Y8611D01*
X-7786Y8482D01*
X-7517Y8592D02*
X-7498Y8592D01*
X-7468Y8582D01*
X-7418Y8532D01*
X-7408Y8502D01*
X-7408Y8482D01*
X-7418Y8452D01*
X-7438Y8432D01*
X-7478Y8413D01*
X-7716Y8413D01*
X-7587Y8283D01*
X-5301Y10758D02*
X-5508Y10638D01*
X-5526Y10612D01*
X-5531Y10593D01*
X-5529Y10562D01*
X-5501Y10513D01*
X-5475Y10496D01*
X-5455Y10490D01*
X-5424Y10492D01*
X-5217Y10612D01*
X-5178Y10488D02*
X-5159Y10483D01*
X-5133Y10466D01*
X-5097Y10405D01*
X-5096Y10373D01*
X-5101Y10354D01*
X-5118Y10328D01*
X-5142Y10314D01*
X-5186Y10305D01*
X-5416Y10367D01*
X-5325Y10208D01*
X-5020Y10271D02*
X-4929Y10113D01*
X-5075Y10142D01*
X-5054Y10105D01*
X-5052Y10074D01*
X-5058Y10054D01*
X-5075Y10028D01*
X-5136Y9993D01*
X-5167Y9991D01*
X-5186Y9996D01*
X-5213Y10014D01*
X-5255Y10087D01*
X-5257Y10118D01*
X-5251Y10137D01*
X-2336Y11764D02*
X-2567Y11702D01*
X-2591Y11681D01*
X-2600Y11664D01*
X-2607Y11633D01*
X-2592Y11578D01*
X-2571Y11555D01*
X-2554Y11545D01*
X-2523Y11539D01*
X-2292Y11601D01*
X-2287Y11471D02*
X-2270Y11461D01*
X-2249Y11438D01*
X-2231Y11370D01*
X-2237Y11339D01*
X-2247Y11322D01*
X-2270Y11301D01*
X-2298Y11293D01*
X-2342Y11296D01*
X-2549Y11415D01*
X-2501Y11239D01*
X-2246Y11045D02*
X-2436Y10994D01*
X-2155Y11142D02*
X-2377Y11156D01*
X-2330Y10979D01*
M02*
