G04 (created by PCBNEW (2013-mar-13)-testing) date Fri 11 Oct 2013 20:58:09 EST*
%MOIN*%
G04 Gerber Fmt 3.4, Leading zero omitted, Abs format*
%FSLAX34Y34*%
G01*
G70*
G90*
G04 APERTURE LIST*
%ADD10C,0.005906*%
%ADD11C,0.060000*%
%ADD12R,0.060000X0.060000*%
%ADD13R,0.045000X0.025000*%
%ADD14R,0.025000X0.045000*%
%ADD15R,0.035433X0.059055*%
%ADD16R,0.059055X0.035433*%
G04 APERTURE END LIST*
G54D10*
G54D11*
X1000Y8956D03*
G54D12*
X0Y8956D03*
G54D11*
X-1000Y8956D03*
G54D13*
X1377Y10845D03*
X1377Y11445D03*
G54D10*
G36*
X6748Y8482D02*
X6358Y8707D01*
X6483Y8924D01*
X6873Y8699D01*
X6748Y8482D01*
X6748Y8482D01*
G37*
G36*
X7048Y9002D02*
X6658Y9227D01*
X6783Y9444D01*
X7173Y9219D01*
X7048Y9002D01*
X7048Y9002D01*
G37*
G36*
X8714Y6447D02*
X8395Y6765D01*
X8572Y6942D01*
X8890Y6623D01*
X8714Y6447D01*
X8714Y6447D01*
G37*
G36*
X9138Y6871D02*
X8820Y7189D01*
X8996Y7366D01*
X9315Y7048D01*
X9138Y6871D01*
X9138Y6871D01*
G37*
G36*
X10085Y3972D02*
X9860Y4361D01*
X10077Y4486D01*
X10302Y4097D01*
X10085Y3972D01*
X10085Y3972D01*
G37*
G36*
X10605Y4272D02*
X10380Y4661D01*
X10596Y4786D01*
X10821Y4397D01*
X10605Y4272D01*
X10605Y4272D01*
G37*
G36*
X10770Y1226D02*
X10653Y1661D01*
X10895Y1725D01*
X11011Y1291D01*
X10770Y1226D01*
X10770Y1226D01*
G37*
G36*
X11349Y1381D02*
X11233Y1816D01*
X11474Y1881D01*
X11591Y1446D01*
X11349Y1381D01*
X11349Y1381D01*
G37*
G54D14*
X10845Y-1377D03*
X11445Y-1377D03*
G54D10*
G36*
X9940Y-4323D02*
X10056Y-3888D01*
X10298Y-3953D01*
X10181Y-4387D01*
X9940Y-4323D01*
X9940Y-4323D01*
G37*
G36*
X10519Y-4478D02*
X10636Y-4043D01*
X10877Y-4108D01*
X10761Y-4543D01*
X10519Y-4478D01*
X10519Y-4478D01*
G37*
G36*
X8482Y-6748D02*
X8707Y-6358D01*
X8924Y-6483D01*
X8699Y-6873D01*
X8482Y-6748D01*
X8482Y-6748D01*
G37*
G36*
X9002Y-7048D02*
X9227Y-6658D01*
X9443Y-6783D01*
X9218Y-7173D01*
X9002Y-7048D01*
X9002Y-7048D01*
G37*
G36*
X6447Y-8714D02*
X6765Y-8395D01*
X6942Y-8572D01*
X6623Y-8890D01*
X6447Y-8714D01*
X6447Y-8714D01*
G37*
G36*
X6871Y-9138D02*
X7189Y-8820D01*
X7366Y-8996D01*
X7048Y-9315D01*
X6871Y-9138D01*
X6871Y-9138D01*
G37*
G36*
X3972Y-10085D02*
X4361Y-9860D01*
X4486Y-10077D01*
X4097Y-10302D01*
X3972Y-10085D01*
X3972Y-10085D01*
G37*
G36*
X4272Y-10605D02*
X4661Y-10380D01*
X4786Y-10596D01*
X4397Y-10821D01*
X4272Y-10605D01*
X4272Y-10605D01*
G37*
G36*
X1226Y-10770D02*
X1660Y-10653D01*
X1725Y-10895D01*
X1290Y-11011D01*
X1226Y-10770D01*
X1226Y-10770D01*
G37*
G36*
X1381Y-11349D02*
X1816Y-11233D01*
X1880Y-11474D01*
X1446Y-11591D01*
X1381Y-11349D01*
X1381Y-11349D01*
G37*
G54D13*
X-1377Y-10845D03*
X-1377Y-11445D03*
G54D10*
G36*
X-4323Y-9940D02*
X-3888Y-10056D01*
X-3953Y-10298D01*
X-4387Y-10181D01*
X-4323Y-9940D01*
X-4323Y-9940D01*
G37*
G36*
X-4478Y-10519D02*
X-4043Y-10636D01*
X-4108Y-10877D01*
X-4543Y-10761D01*
X-4478Y-10519D01*
X-4478Y-10519D01*
G37*
G36*
X-6748Y-8482D02*
X-6358Y-8707D01*
X-6483Y-8924D01*
X-6873Y-8699D01*
X-6748Y-8482D01*
X-6748Y-8482D01*
G37*
G36*
X-7048Y-9002D02*
X-6658Y-9227D01*
X-6783Y-9443D01*
X-7173Y-9218D01*
X-7048Y-9002D01*
X-7048Y-9002D01*
G37*
G36*
X-8714Y-6447D02*
X-8395Y-6765D01*
X-8572Y-6942D01*
X-8890Y-6623D01*
X-8714Y-6447D01*
X-8714Y-6447D01*
G37*
G36*
X-9138Y-6871D02*
X-8820Y-7189D01*
X-8996Y-7366D01*
X-9315Y-7048D01*
X-9138Y-6871D01*
X-9138Y-6871D01*
G37*
G36*
X-10085Y-3972D02*
X-9860Y-4361D01*
X-10077Y-4486D01*
X-10302Y-4097D01*
X-10085Y-3972D01*
X-10085Y-3972D01*
G37*
G36*
X-10605Y-4272D02*
X-10380Y-4661D01*
X-10596Y-4786D01*
X-10821Y-4397D01*
X-10605Y-4272D01*
X-10605Y-4272D01*
G37*
G36*
X-10770Y-1226D02*
X-10653Y-1660D01*
X-10895Y-1725D01*
X-11011Y-1290D01*
X-10770Y-1226D01*
X-10770Y-1226D01*
G37*
G36*
X-11349Y-1381D02*
X-11233Y-1816D01*
X-11474Y-1880D01*
X-11591Y-1446D01*
X-11349Y-1381D01*
X-11349Y-1381D01*
G37*
G54D14*
X-10845Y1377D03*
X-11445Y1377D03*
G54D10*
G36*
X-9940Y4323D02*
X-10056Y3888D01*
X-10298Y3953D01*
X-10181Y4387D01*
X-9940Y4323D01*
X-9940Y4323D01*
G37*
G36*
X-10519Y4478D02*
X-10636Y4043D01*
X-10877Y4108D01*
X-10761Y4543D01*
X-10519Y4478D01*
X-10519Y4478D01*
G37*
G36*
X-8482Y6748D02*
X-8707Y6358D01*
X-8924Y6483D01*
X-8699Y6873D01*
X-8482Y6748D01*
X-8482Y6748D01*
G37*
G36*
X-9002Y7048D02*
X-9227Y6658D01*
X-9443Y6783D01*
X-9218Y7173D01*
X-9002Y7048D01*
X-9002Y7048D01*
G37*
G36*
X-6447Y8714D02*
X-6765Y8395D01*
X-6942Y8572D01*
X-6623Y8890D01*
X-6447Y8714D01*
X-6447Y8714D01*
G37*
G36*
X-6871Y9138D02*
X-7189Y8820D01*
X-7366Y8996D01*
X-7048Y9315D01*
X-6871Y9138D01*
X-6871Y9138D01*
G37*
G36*
X-3972Y10085D02*
X-4361Y9860D01*
X-4486Y10077D01*
X-4097Y10302D01*
X-3972Y10085D01*
X-3972Y10085D01*
G37*
G36*
X-4272Y10605D02*
X-4661Y10380D01*
X-4786Y10596D01*
X-4397Y10821D01*
X-4272Y10605D01*
X-4272Y10605D01*
G37*
G36*
X-1226Y10770D02*
X-1660Y10653D01*
X-1725Y10895D01*
X-1290Y11011D01*
X-1226Y10770D01*
X-1226Y10770D01*
G37*
G36*
X-1381Y11349D02*
X-1816Y11233D01*
X-1880Y11474D01*
X-1446Y11591D01*
X-1381Y11349D01*
X-1381Y11349D01*
G37*
G36*
X4323Y9940D02*
X3888Y10056D01*
X3953Y10298D01*
X4387Y10181D01*
X4323Y9940D01*
X4323Y9940D01*
G37*
G36*
X4478Y10520D02*
X4043Y10636D01*
X4108Y10878D01*
X4543Y10761D01*
X4478Y10520D01*
X4478Y10520D01*
G37*
G54D15*
X-649Y9665D03*
X649Y9665D03*
X649Y11590D03*
X-649Y11594D03*
G54D10*
G36*
X1968Y9173D02*
X1626Y9264D01*
X1779Y9835D01*
X2121Y9743D01*
X1968Y9173D01*
X1968Y9173D01*
G37*
G36*
X3223Y8836D02*
X2881Y8928D01*
X3034Y9498D01*
X3376Y9407D01*
X3223Y8836D01*
X3223Y8836D01*
G37*
G36*
X3721Y10696D02*
X3379Y10788D01*
X3532Y11358D01*
X3874Y11266D01*
X3721Y10696D01*
X3721Y10696D01*
G37*
G36*
X2468Y11036D02*
X2125Y11128D01*
X2278Y11698D01*
X2620Y11606D01*
X2468Y11036D01*
X2468Y11036D01*
G37*
G36*
X4275Y8350D02*
X3969Y8528D01*
X4264Y9039D01*
X4571Y8862D01*
X4275Y8350D01*
X4275Y8350D01*
G37*
G36*
X5401Y7701D02*
X5094Y7878D01*
X5389Y8389D01*
X5696Y8212D01*
X5401Y7701D01*
X5401Y7701D01*
G37*
G36*
X6363Y9368D02*
X6056Y9545D01*
X6352Y10057D01*
X6658Y9880D01*
X6363Y9368D01*
X6363Y9368D01*
G37*
G36*
X5240Y10021D02*
X4933Y10198D01*
X5228Y10710D01*
X5535Y10533D01*
X5240Y10021D01*
X5240Y10021D01*
G37*
G36*
X6291Y6959D02*
X6041Y7210D01*
X6458Y7627D01*
X6709Y7377D01*
X6291Y6959D01*
X6291Y6959D01*
G37*
G36*
X7210Y6041D02*
X6959Y6291D01*
X7377Y6709D01*
X7627Y6458D01*
X7210Y6041D01*
X7210Y6041D01*
G37*
G36*
X8571Y7402D02*
X8321Y7652D01*
X8738Y8070D01*
X8989Y7819D01*
X8571Y7402D01*
X8571Y7402D01*
G37*
G36*
X7655Y8323D02*
X7405Y8574D01*
X7822Y8991D01*
X8073Y8741D01*
X7655Y8323D01*
X7655Y8323D01*
G37*
G36*
X7878Y5094D02*
X7701Y5401D01*
X8212Y5696D01*
X8390Y5389D01*
X7878Y5094D01*
X7878Y5094D01*
G37*
G36*
X8528Y3969D02*
X8351Y4275D01*
X8862Y4571D01*
X9039Y4264D01*
X8528Y3969D01*
X8528Y3969D01*
G37*
G36*
X10195Y4931D02*
X10018Y5238D01*
X10529Y5533D01*
X10706Y5226D01*
X10195Y4931D01*
X10195Y4931D01*
G37*
G36*
X9549Y6058D02*
X9372Y6365D01*
X9883Y6660D01*
X10060Y6354D01*
X9549Y6058D01*
X9549Y6058D01*
G37*
G36*
X8928Y2881D02*
X8836Y3223D01*
X9407Y3376D01*
X9498Y3034D01*
X8928Y2881D01*
X8928Y2881D01*
G37*
G36*
X9264Y1626D02*
X9173Y1968D01*
X9743Y2121D01*
X9835Y1779D01*
X9264Y1626D01*
X9264Y1626D01*
G37*
G36*
X11124Y2124D02*
X11032Y2467D01*
X11603Y2619D01*
X11694Y2277D01*
X11124Y2124D01*
X11124Y2124D01*
G37*
G36*
X10791Y3380D02*
X10700Y3723D01*
X11270Y3875D01*
X11362Y3533D01*
X10791Y3380D01*
X10791Y3380D01*
G37*
G54D16*
X9665Y649D03*
X9665Y-649D03*
X11590Y-649D03*
X11594Y649D03*
G54D10*
G36*
X9173Y-1968D02*
X9264Y-1626D01*
X9835Y-1779D01*
X9743Y-2121D01*
X9173Y-1968D01*
X9173Y-1968D01*
G37*
G36*
X8836Y-3223D02*
X8928Y-2881D01*
X9498Y-3034D01*
X9407Y-3376D01*
X8836Y-3223D01*
X8836Y-3223D01*
G37*
G36*
X10696Y-3721D02*
X10788Y-3379D01*
X11358Y-3532D01*
X11266Y-3874D01*
X10696Y-3721D01*
X10696Y-3721D01*
G37*
G36*
X11036Y-2468D02*
X11128Y-2125D01*
X11698Y-2278D01*
X11606Y-2620D01*
X11036Y-2468D01*
X11036Y-2468D01*
G37*
G36*
X8351Y-4275D02*
X8528Y-3969D01*
X9039Y-4264D01*
X8862Y-4571D01*
X8351Y-4275D01*
X8351Y-4275D01*
G37*
G36*
X7701Y-5401D02*
X7878Y-5094D01*
X8390Y-5389D01*
X8212Y-5696D01*
X7701Y-5401D01*
X7701Y-5401D01*
G37*
G36*
X9368Y-6363D02*
X9545Y-6056D01*
X10057Y-6352D01*
X9880Y-6658D01*
X9368Y-6363D01*
X9368Y-6363D01*
G37*
G36*
X10021Y-5240D02*
X10198Y-4933D01*
X10710Y-5228D01*
X10533Y-5535D01*
X10021Y-5240D01*
X10021Y-5240D01*
G37*
G36*
X6959Y-6291D02*
X7210Y-6041D01*
X7627Y-6458D01*
X7377Y-6709D01*
X6959Y-6291D01*
X6959Y-6291D01*
G37*
G36*
X6041Y-7210D02*
X6291Y-6959D01*
X6709Y-7377D01*
X6458Y-7627D01*
X6041Y-7210D01*
X6041Y-7210D01*
G37*
G36*
X7402Y-8571D02*
X7652Y-8321D01*
X8070Y-8738D01*
X7819Y-8989D01*
X7402Y-8571D01*
X7402Y-8571D01*
G37*
G36*
X8323Y-7655D02*
X8574Y-7405D01*
X8991Y-7822D01*
X8741Y-8073D01*
X8323Y-7655D01*
X8323Y-7655D01*
G37*
G36*
X5094Y-7878D02*
X5401Y-7701D01*
X5696Y-8212D01*
X5389Y-8390D01*
X5094Y-7878D01*
X5094Y-7878D01*
G37*
G36*
X3969Y-8528D02*
X4275Y-8351D01*
X4571Y-8862D01*
X4264Y-9039D01*
X3969Y-8528D01*
X3969Y-8528D01*
G37*
G36*
X4931Y-10195D02*
X5238Y-10018D01*
X5533Y-10529D01*
X5226Y-10706D01*
X4931Y-10195D01*
X4931Y-10195D01*
G37*
G36*
X6058Y-9549D02*
X6365Y-9372D01*
X6660Y-9883D01*
X6354Y-10060D01*
X6058Y-9549D01*
X6058Y-9549D01*
G37*
G36*
X2881Y-8928D02*
X3223Y-8836D01*
X3376Y-9407D01*
X3034Y-9498D01*
X2881Y-8928D01*
X2881Y-8928D01*
G37*
G36*
X1626Y-9264D02*
X1968Y-9173D01*
X2121Y-9743D01*
X1779Y-9835D01*
X1626Y-9264D01*
X1626Y-9264D01*
G37*
G36*
X2124Y-11124D02*
X2467Y-11032D01*
X2619Y-11603D01*
X2277Y-11694D01*
X2124Y-11124D01*
X2124Y-11124D01*
G37*
G36*
X3380Y-10791D02*
X3723Y-10700D01*
X3875Y-11270D01*
X3533Y-11362D01*
X3380Y-10791D01*
X3380Y-10791D01*
G37*
G54D15*
X649Y-9665D03*
X-649Y-9665D03*
X-649Y-11590D03*
X649Y-11594D03*
G54D10*
G36*
X-1968Y-9173D02*
X-1626Y-9264D01*
X-1779Y-9835D01*
X-2121Y-9743D01*
X-1968Y-9173D01*
X-1968Y-9173D01*
G37*
G36*
X-3223Y-8836D02*
X-2881Y-8928D01*
X-3034Y-9498D01*
X-3376Y-9407D01*
X-3223Y-8836D01*
X-3223Y-8836D01*
G37*
G36*
X-3721Y-10696D02*
X-3379Y-10788D01*
X-3532Y-11358D01*
X-3874Y-11266D01*
X-3721Y-10696D01*
X-3721Y-10696D01*
G37*
G36*
X-2468Y-11036D02*
X-2125Y-11128D01*
X-2278Y-11698D01*
X-2620Y-11606D01*
X-2468Y-11036D01*
X-2468Y-11036D01*
G37*
G36*
X-4275Y-8351D02*
X-3969Y-8528D01*
X-4264Y-9039D01*
X-4571Y-8862D01*
X-4275Y-8351D01*
X-4275Y-8351D01*
G37*
G36*
X-5401Y-7701D02*
X-5094Y-7878D01*
X-5389Y-8390D01*
X-5696Y-8212D01*
X-5401Y-7701D01*
X-5401Y-7701D01*
G37*
G36*
X-6363Y-9368D02*
X-6056Y-9545D01*
X-6352Y-10057D01*
X-6658Y-9880D01*
X-6363Y-9368D01*
X-6363Y-9368D01*
G37*
G36*
X-5240Y-10021D02*
X-4933Y-10198D01*
X-5228Y-10710D01*
X-5535Y-10533D01*
X-5240Y-10021D01*
X-5240Y-10021D01*
G37*
G36*
X-6291Y-6959D02*
X-6041Y-7210D01*
X-6458Y-7627D01*
X-6709Y-7377D01*
X-6291Y-6959D01*
X-6291Y-6959D01*
G37*
G36*
X-7210Y-6041D02*
X-6959Y-6291D01*
X-7377Y-6709D01*
X-7627Y-6458D01*
X-7210Y-6041D01*
X-7210Y-6041D01*
G37*
G36*
X-8571Y-7402D02*
X-8321Y-7652D01*
X-8738Y-8070D01*
X-8989Y-7819D01*
X-8571Y-7402D01*
X-8571Y-7402D01*
G37*
G36*
X-7655Y-8323D02*
X-7405Y-8574D01*
X-7822Y-8991D01*
X-8073Y-8741D01*
X-7655Y-8323D01*
X-7655Y-8323D01*
G37*
G36*
X-7878Y-5094D02*
X-7701Y-5401D01*
X-8212Y-5696D01*
X-8390Y-5389D01*
X-7878Y-5094D01*
X-7878Y-5094D01*
G37*
G36*
X-8528Y-3969D02*
X-8351Y-4275D01*
X-8862Y-4571D01*
X-9039Y-4264D01*
X-8528Y-3969D01*
X-8528Y-3969D01*
G37*
G36*
X-10195Y-4931D02*
X-10018Y-5238D01*
X-10529Y-5533D01*
X-10706Y-5226D01*
X-10195Y-4931D01*
X-10195Y-4931D01*
G37*
G36*
X-9549Y-6058D02*
X-9372Y-6365D01*
X-9883Y-6660D01*
X-10060Y-6354D01*
X-9549Y-6058D01*
X-9549Y-6058D01*
G37*
G36*
X-8928Y-2881D02*
X-8836Y-3223D01*
X-9407Y-3376D01*
X-9498Y-3034D01*
X-8928Y-2881D01*
X-8928Y-2881D01*
G37*
G36*
X-9264Y-1626D02*
X-9173Y-1968D01*
X-9743Y-2121D01*
X-9835Y-1779D01*
X-9264Y-1626D01*
X-9264Y-1626D01*
G37*
G36*
X-11124Y-2124D02*
X-11032Y-2467D01*
X-11603Y-2619D01*
X-11694Y-2277D01*
X-11124Y-2124D01*
X-11124Y-2124D01*
G37*
G36*
X-10791Y-3380D02*
X-10700Y-3723D01*
X-11270Y-3875D01*
X-11362Y-3533D01*
X-10791Y-3380D01*
X-10791Y-3380D01*
G37*
G54D16*
X-9665Y-649D03*
X-9665Y649D03*
X-11590Y649D03*
X-11594Y-649D03*
G54D10*
G36*
X-9173Y1968D02*
X-9264Y1626D01*
X-9835Y1779D01*
X-9743Y2121D01*
X-9173Y1968D01*
X-9173Y1968D01*
G37*
G36*
X-8836Y3223D02*
X-8928Y2881D01*
X-9498Y3034D01*
X-9407Y3376D01*
X-8836Y3223D01*
X-8836Y3223D01*
G37*
G36*
X-10696Y3722D02*
X-10788Y3379D01*
X-11358Y3532D01*
X-11266Y3874D01*
X-10696Y3722D01*
X-10696Y3722D01*
G37*
G36*
X-11036Y2468D02*
X-11128Y2125D01*
X-11698Y2278D01*
X-11606Y2620D01*
X-11036Y2468D01*
X-11036Y2468D01*
G37*
G36*
X-8351Y4275D02*
X-8528Y3969D01*
X-9039Y4264D01*
X-8862Y4571D01*
X-8351Y4275D01*
X-8351Y4275D01*
G37*
G36*
X-7701Y5401D02*
X-7878Y5094D01*
X-8390Y5389D01*
X-8212Y5696D01*
X-7701Y5401D01*
X-7701Y5401D01*
G37*
G36*
X-9368Y6363D02*
X-9545Y6056D01*
X-10057Y6352D01*
X-9880Y6658D01*
X-9368Y6363D01*
X-9368Y6363D01*
G37*
G36*
X-10021Y5240D02*
X-10198Y4933D01*
X-10710Y5228D01*
X-10533Y5535D01*
X-10021Y5240D01*
X-10021Y5240D01*
G37*
G36*
X-6959Y6291D02*
X-7210Y6041D01*
X-7627Y6458D01*
X-7377Y6709D01*
X-6959Y6291D01*
X-6959Y6291D01*
G37*
G36*
X-6041Y7210D02*
X-6291Y6959D01*
X-6709Y7377D01*
X-6458Y7627D01*
X-6041Y7210D01*
X-6041Y7210D01*
G37*
G36*
X-7402Y8571D02*
X-7652Y8321D01*
X-8070Y8738D01*
X-7819Y8989D01*
X-7402Y8571D01*
X-7402Y8571D01*
G37*
G36*
X-8323Y7655D02*
X-8574Y7405D01*
X-8991Y7822D01*
X-8741Y8073D01*
X-8323Y7655D01*
X-8323Y7655D01*
G37*
G36*
X-5094Y7878D02*
X-5401Y7701D01*
X-5696Y8212D01*
X-5389Y8389D01*
X-5094Y7878D01*
X-5094Y7878D01*
G37*
G36*
X-3969Y8528D02*
X-4275Y8350D01*
X-4571Y8862D01*
X-4264Y9039D01*
X-3969Y8528D01*
X-3969Y8528D01*
G37*
G36*
X-4931Y10195D02*
X-5238Y10018D01*
X-5533Y10529D01*
X-5226Y10706D01*
X-4931Y10195D01*
X-4931Y10195D01*
G37*
G36*
X-6058Y9549D02*
X-6365Y9372D01*
X-6660Y9883D01*
X-6354Y10060D01*
X-6058Y9549D01*
X-6058Y9549D01*
G37*
G36*
X-2881Y8928D02*
X-3223Y8836D01*
X-3376Y9407D01*
X-3034Y9498D01*
X-2881Y8928D01*
X-2881Y8928D01*
G37*
G36*
X-1626Y9264D02*
X-1968Y9173D01*
X-2121Y9743D01*
X-1779Y9835D01*
X-1626Y9264D01*
X-1626Y9264D01*
G37*
G36*
X-2124Y11124D02*
X-2467Y11032D01*
X-2619Y11603D01*
X-2277Y11694D01*
X-2124Y11124D01*
X-2124Y11124D01*
G37*
G36*
X-3380Y10791D02*
X-3723Y10700D01*
X-3875Y11270D01*
X-3533Y11362D01*
X-3380Y10791D01*
X-3380Y10791D01*
G37*
M02*
