M48
;DRILL file {Pcbnew (2013-mar-13)-testing} date Fri 11 Oct 2013 20:58:11 EST
;FORMAT={-:-/ absolute / metric / decimal}
FMAT,2
METRIC,TZ
T1C0.635
T2C1.016
%
G90
G05
M71
T1
X-27.99Y1.64
X-27.45Y-5.69
X-26.61Y8.84
X-25.05Y-12.59
X-23.44Y15.36
X-20.95Y-18.63
X-18.618Y20.946
X-15.43Y-23.41
X-12.55Y25.07
X-8.85Y-26.59
X-5.65Y27.46
X-1.65Y-27.98
X5.68Y-27.45
X8.81Y26.61
X12.59Y-25.05
X15.41Y23.42
X18.61Y-20.98
X20.95Y18.63
X23.4Y-15.42
X25.07Y12.56
X26.6Y-8.83
X27.46Y5.63
X27.97Y-1.65
T2
X-2.54Y22.75
X0.Y22.75
X2.54Y22.75
T0
M30
